<svg xmlns="http://www.w3.org/2000/svg" xmlns:xlink="http://www.w3.org/1999/xlink" width="1920.956" height="474.777" viewBox="0 0 1920.956 474.777">
  <defs>
    <clipPath id="clip-path">
      <rect width="1920.956" height="474.777" fill="none"/>
    </clipPath>
    <linearGradient id="linear-gradient" x1="0.527" y1="0.401" x2="0.164" y2="0.722" gradientUnits="objectBoundingBox">
      <stop offset="0" stop-color="#ff0177"/>
      <stop offset="0.703" stop-color="#8c3cb9"/>
      <stop offset="1" stop-color="#0900fd"/>
    </linearGradient>
    <filter id="Path_47" x="-148.5" y="-89.276" width="1180.892" height="625.833" filterUnits="userSpaceOnUse">
      <feOffset dy="3" input="SourceAlpha"/>
      <feGaussianBlur stdDeviation="49.5" result="blur"/>
      <feFlood/>
      <feComposite operator="in" in2="blur"/>
      <feComposite in="SourceGraphic"/>
    </filter>
    <linearGradient id="linear-gradient-2" x1="0.5" x2="0.5" y2="1" gradientUnits="objectBoundingBox">
      <stop offset="0" stop-color="red"/>
      <stop offset="1" stop-color="#0900fc"/>
    </linearGradient>
    <linearGradient id="linear-gradient-3" x1="0.136" y1="0.5" x2="1.068" y2="-0.045" gradientUnits="objectBoundingBox">
      <stop offset="0" stop-color="#0588fa"/>
      <stop offset="0.292" stop-color="#5010d3"/>
      <stop offset="1" stop-color="#060000"/>
    </linearGradient>
  </defs>
  <g id="about_background" clip-path="url(#clip-path)">
    <g id="about_background-2" data-name="about_background" transform="translate(0 0)">
      <g transform="matrix(1, 0, 0, 1, 0, 0)" filter="url(#Path_47)">
        <path id="Path_47-2" data-name="Path 47" d="M5900,571.777l883.892-328.833L5900,432.5Z" transform="translate(-5900 -186.72)" fill="url(#linear-gradient)"/>
      </g>
      <path id="Path_48" data-name="Path 48" d="M5900,650.391,6420.995,399.32l125.68-60.566,176.208-84.916-144.419,46.174-100.206,45.111L5900,560.908Z" transform="translate(-5900 -175.614)" fill="url(#linear-gradient-2)"/>
      <path id="Path_46" data-name="Path 46" d="M5900,249.8C7820.859,2.055,7819.426.843,7819.426.843S5903.442-1.148,5900,.843,5900,249.8,5900,249.8Z" transform="translate(-5898.47 0.042)" fill="url(#linear-gradient-3)"/>
    </g>
  </g>
</svg>
