<svg xmlns="http://www.w3.org/2000/svg" width="459.954" height="138.609" viewBox="0 0 459.954 138.609">
  <g id="iconfinder_amazon_294695" transform="translate(-26.022 -187.196)">
    <g id="形状_4_3_">
      <g id="形状_4">
        <g id="Group_29" data-name="Group 29">
          <path id="Path_326" data-name="Path 326" d="M342.951,247.745c-8.171-4.6-17.69-5.941-26.687-5.731l24.238-34.6c2.244-3.111,3.511-5.072,3.521-6.572l0-8.956a2.614,2.614,0,0,0-2.7-2.638l-46.794.006a2.583,2.583,0,0,0-2.646,2.644v10.441a2.606,2.606,0,0,0,2.7,2.629l24.449,0-28.08,40.285a12.588,12.588,0,0,0-1.741,7.176V263.02c0,1.534,1.7,3.288,3.331,2.419a53.891,53.891,0,0,1,49.441-.091c1.763.922,3.443-.854,3.443-2.387V251.822A4.769,4.769,0,0,0,342.951,247.745ZM180.164,187.9c-8.372,0-16.213,4.3-19.666,13.529-3.987-9.225-9.568-13.529-18.472-13.529-8.769,0-15.281,4.3-18.736,13.529h-.266v-9.537a2.683,2.683,0,0,0-2.588-2.454l-13.257,0a2.687,2.687,0,0,0-2.749,2.632l-.009,73.063a2.682,2.682,0,0,0,2.546,2.4H121.2a2.684,2.684,0,0,0,2.745-2.629l.006-38.727c0-8.457-.4-20.142,9.834-20.142,10.1,0,8.77,11.994,8.77,20.142l.013,38.729a2.672,2.672,0,0,0,2.555,2.626h14.22a2.687,2.687,0,0,0,2.744-2.629V226.185c0-4.153-.134-10.3,1.33-13.993a9.441,9.441,0,0,1,8.505-5.994c4.119,0,7.309,1.384,8.371,6.3.666,2.921.4,10.607.4,13.684l0,38.729a2.674,2.674,0,0,0,2.557,2.626h14.219a2.687,2.687,0,0,0,2.746-2.629l.012-46.107c0-7.844.93-16.759-3.591-22.907C192.655,190.362,186.144,187.9,180.164,187.9Zm204.144,0c-20.6,0-32.024,17.682-32.024,40.435,0,22.6,11.3,40.746,32.024,40.746,19.934,0,32.555-17.684,32.555-39.976C416.862,206.045,405.438,187.9,384.308,187.9Zm0,66.112c-11.159,0-11.028-19.064-11.028-27.982s.662-23.214,11.162-23.214c4.515,0,7.707,2,9.3,7.071,1.862,5.842,2.128,13.222,2.128,19.373C395.869,238.638,395.341,254.014,384.308,254.014Zm97.942-57.5c-3.986-6.3-10.231-8.612-16.613-8.612-9.831,0-15.411,4.769-19.395,14.761h-.271V191.49a2.7,2.7,0,0,0-2.527-2.049l-13.2,0a2.7,2.7,0,0,0-2.737,2.384l.023,73.089a2.673,2.673,0,0,0,2.557,2.626h14.182a2.724,2.724,0,0,0,2.772-2.629V225.57c0-4.92.266-9.379,2.262-13.838a9.312,9.312,0,0,1,8.235-5.842c9.837,0,8.9,11.684,8.9,19.68v39.673a2.686,2.686,0,0,0,2.536,2.3h14.271a2.705,2.705,0,0,0,2.73-2.3V219.266C485.976,212.193,485.976,202.356,482.25,196.515ZM274.564,240.964V218.785c0-9.4.666-18.031-6.26-24.5-5.459-5.238-14.515-7.089-21.44-7.089-13.547,0-28.664,5.058-31.835,21.8a2.507,2.507,0,0,0,2.125,2.977l13.8,1.494a3.012,3.012,0,0,0,2.473-2.617c1.187-5.767,6.013-8.551,11.441-8.551,2.931,0,6.26,1.08,7.992,3.7,2,2.927,1.731,6.934,1.731,10.324v1.848c-8.257.925-19.044,1.541-26.768,4.932-8.922,3.852-15.18,11.708-15.18,23.267,0,14.789,9.322,22.187,21.307,22.187,10.122,0,15.655-2.387,23.471-10.348,2.583,3.741,3.431,5.557,8.158,9.487a2.949,2.949,0,0,0,3.364-.333l.032.032c2.842-2.53,8.009-7.016,10.918-9.455,1.16-.945.955-2.486.047-3.782C277.335,250.559,274.564,247.635,274.564,240.964Zm-22.639,6.787c-2.265,4.01-5.86,6.47-9.854,6.47-5.461,0-8.657-4.161-8.657-10.321,0-12.122,10.875-14.331,21.175-14.331v3.084C254.589,238.2,254.72,242.819,251.925,247.751ZM87.947,240.964V218.785c0-9.4.666-18.031-6.258-24.5-5.461-5.238-14.517-7.089-21.441-7.089-13.547,0-28.664,5.058-31.834,21.8a2.5,2.5,0,0,0,2.124,2.977l13.8,1.494a3.009,3.009,0,0,0,2.473-2.617c1.185-5.767,6.013-8.551,11.442-8.551,2.928,0,6.258,1.08,7.991,3.7,2,2.927,1.73,6.934,1.73,10.324v1.848c-8.257.925-19.044,1.541-26.769,4.932-8.921,3.852-15.18,11.708-15.18,23.267,0,14.789,9.32,22.187,21.307,22.187,10.12,0,15.656-2.387,23.469-10.348,2.585,3.741,3.432,5.557,8.161,9.487a2.948,2.948,0,0,0,3.363-.333l.033.032c2.841-2.53,8.011-7.016,10.917-9.455,1.158-.945.954-2.486.047-3.782C90.718,250.559,87.947,247.635,87.947,240.964Zm-22.639,6.787c-2.263,4.01-5.86,6.47-9.854,6.47C50,254.221,46.8,250.06,46.8,243.9c0-12.122,10.876-14.331,21.174-14.331v3.084C67.973,238.2,68.105,242.819,65.308,247.751Z" fill="#080404" fill-rule="evenodd"/>
        </g>
      </g>
    </g>
    <g id="形状_4_2_">
      <g id="形状_4_1_">
        <g id="Group_30" data-name="Group 30">
          <path id="Path_327" data-name="Path 327" d="M307.486,289.35A240.29,240.29,0,0,1,215.348,308.2c-43.908,0-86.42-12.043-120.8-32.048-3.007-1.75-5.24,1.34-2.739,3.6,31.865,28.773,73.968,46.055,120.728,46.055,33.36,0,72.106-10.491,98.83-30.212C315.792,292.329,312.006,287.433,307.486,289.35Zm26.408-15.161c-2.913-3.592-27.977-6.7-43.272,4.048-2.352,1.654-1.947,3.928.66,3.616,8.615-1.027,27.793-3.333,31.211,1.044s-3.8,22.415-7.025,30.472c-.978,2.434,1.119,3.42,3.325,1.576C333.129,302.948,336.832,277.823,333.894,274.189Z" fill="#f2941b" fill-rule="evenodd"/>
        </g>
      </g>
    </g>
  </g>
</svg>
