<svg id="visual" viewBox="0 0 1600 800" width="1600" height="800" xmlns="http://www.w3.org/2000/svg" xmlns:xlink="http://www.w3.org/1999/xlink" version="1.1"><rect x="0" y="0" width="1600" height="800" fill="#ffffff"></rect><defs><linearGradient id="grad1_0" x1="50%" y1="0%" x2="100%" y2="100%"><stop offset="10%" stop-color="#0066ff" stop-opacity="1"></stop><stop offset="90%" stop-color="#0066ff" stop-opacity="1"></stop></linearGradient></defs><defs><linearGradient id="grad1_1" x1="50%" y1="0%" x2="100%" y2="100%"><stop offset="10%" stop-color="#0066ff" stop-opacity="1"></stop><stop offset="90%" stop-color="#617dff" stop-opacity="1"></stop></linearGradient></defs><defs><linearGradient id="grad1_2" x1="50%" y1="0%" x2="100%" y2="100%"><stop offset="10%" stop-color="#8b95ff" stop-opacity="1"></stop><stop offset="90%" stop-color="#617dff" stop-opacity="1"></stop></linearGradient></defs><defs><linearGradient id="grad1_3" x1="50%" y1="0%" x2="100%" y2="100%"><stop offset="10%" stop-color="#8b95ff" stop-opacity="1"></stop><stop offset="90%" stop-color="#acafff" stop-opacity="1"></stop></linearGradient></defs><defs><linearGradient id="grad1_4" x1="50%" y1="0%" x2="100%" y2="100%"><stop offset="10%" stop-color="#cac9ff" stop-opacity="1"></stop><stop offset="90%" stop-color="#acafff" stop-opacity="1"></stop></linearGradient></defs><defs><linearGradient id="grad1_5" x1="50%" y1="0%" x2="100%" y2="100%"><stop offset="10%" stop-color="#cac9ff" stop-opacity="1"></stop><stop offset="90%" stop-color="#e5e4ff" stop-opacity="1"></stop></linearGradient></defs><defs><linearGradient id="grad1_6" x1="50%" y1="0%" x2="100%" y2="100%"><stop offset="10%" stop-color="#ffffff" stop-opacity="1"></stop><stop offset="90%" stop-color="#e5e4ff" stop-opacity="1"></stop></linearGradient></defs><defs><linearGradient id="grad2_0" x1="0%" y1="0%" x2="50%" y2="100%"><stop offset="10%" stop-color="#0066ff" stop-opacity="1"></stop><stop offset="90%" stop-color="#0066ff" stop-opacity="1"></stop></linearGradient></defs><defs><linearGradient id="grad2_1" x1="0%" y1="0%" x2="50%" y2="100%"><stop offset="10%" stop-color="#617dff" stop-opacity="1"></stop><stop offset="90%" stop-color="#0066ff" stop-opacity="1"></stop></linearGradient></defs><defs><linearGradient id="grad2_2" x1="0%" y1="0%" x2="50%" y2="100%"><stop offset="10%" stop-color="#617dff" stop-opacity="1"></stop><stop offset="90%" stop-color="#8b95ff" stop-opacity="1"></stop></linearGradient></defs><defs><linearGradient id="grad2_3" x1="0%" y1="0%" x2="50%" y2="100%"><stop offset="10%" stop-color="#acafff" stop-opacity="1"></stop><stop offset="90%" stop-color="#8b95ff" stop-opacity="1"></stop></linearGradient></defs><defs><linearGradient id="grad2_4" x1="0%" y1="0%" x2="50%" y2="100%"><stop offset="10%" stop-color="#acafff" stop-opacity="1"></stop><stop offset="90%" stop-color="#cac9ff" stop-opacity="1"></stop></linearGradient></defs><defs><linearGradient id="grad2_5" x1="0%" y1="0%" x2="50%" y2="100%"><stop offset="10%" stop-color="#e5e4ff" stop-opacity="1"></stop><stop offset="90%" stop-color="#cac9ff" stop-opacity="1"></stop></linearGradient></defs><defs><linearGradient id="grad2_6" x1="0%" y1="0%" x2="50%" y2="100%"><stop offset="10%" stop-color="#e5e4ff" stop-opacity="1"></stop><stop offset="90%" stop-color="#ffffff" stop-opacity="1"></stop></linearGradient></defs><g transform="translate(1600, 0)"><path d="M0 520C-78 524.2 -156 528.5 -199 480.4C-242 432.3 -250.1 331.9 -272.2 272.2C-294.4 212.5 -330.5 193.6 -374.2 155C-417.8 116.4 -468.9 58.2 -520 0L0 0Z" fill="#f2f1ff"></path><path d="M0 445.7C-66.8 449.4 -133.7 453 -170.6 411.8C-207.5 370.6 -214.4 284.5 -233.3 233.3C-252.3 182.2 -283.3 165.9 -320.7 132.8C-358.1 99.8 -401.9 49.9 -445.7 0L0 0Z" fill="#d7d6ff"></path><path d="M0 371.4C-55.7 374.5 -111.4 377.5 -142.1 343.2C-172.9 308.8 -178.6 237.1 -194.5 194.5C-210.3 151.8 -236.1 138.3 -267.3 110.7C-298.4 83.1 -334.9 41.6 -371.4 0L0 0Z" fill="#bbbcff"></path><path d="M0 297.1C-44.6 299.6 -89.1 302 -113.7 274.5C-138.3 247 -142.9 189.7 -155.6 155.6C-168.2 121.5 -188.9 110.6 -213.8 88.6C-238.7 66.5 -267.9 33.3 -297.1 0L0 0Z" fill="#9ca2ff"></path><path d="M0 222.9C-33.4 224.7 -66.8 226.5 -85.3 205.9C-103.7 185.3 -107.2 142.3 -116.7 116.7C-126.2 91.1 -141.7 83 -160.4 66.4C-179.1 49.9 -201 24.9 -222.9 0L0 0Z" fill="#7789ff"></path><path d="M0 148.6C-22.3 149.8 -44.6 151 -56.9 137.3C-69.2 123.5 -71.5 94.8 -77.8 77.8C-84.1 60.7 -94.4 55.3 -106.9 44.3C-119.4 33.3 -134 16.6 -148.6 0L0 0Z" fill="#4471ff"></path><path d="M0 74.3C-11.1 74.9 -22.3 75.5 -28.4 68.6C-34.6 61.8 -35.7 47.4 -38.9 38.9C-42.1 30.4 -47.2 27.7 -53.5 22.1C-59.7 16.6 -67 8.3 -74.3 0L0 0Z" fill="#0066ff"></path></g><g transform="translate(0, 800)"><path d="M0 -520C70 -516.4 140.1 -512.8 199 -480.4C257.9 -448 305.7 -386.9 326.7 -326.7C347.7 -266.5 341.8 -207.4 369.6 -153.1C397.3 -98.8 458.7 -49.4 520 0L0 0Z" fill="#f2f1ff"></path><path d="M0 -445.7C60 -442.6 120.1 -439.5 170.6 -411.8C221.1 -384 262 -331.6 280 -280C298 -228.4 293 -177.7 316.8 -131.2C340.5 -84.7 393.1 -42.3 445.7 0L0 0Z" fill="#d7d6ff"></path><path d="M0 -371.4C50 -368.9 100.1 -366.3 142.1 -343.2C184.2 -320 218.4 -276.3 233.3 -233.3C248.3 -190.4 244.1 -148.1 264 -109.3C283.8 -70.6 327.6 -35.3 371.4 0L0 0Z" fill="#bbbcff"></path><path d="M0 -297.1C40 -295.1 80 -293 113.7 -274.5C147.4 -256 174.7 -221.1 186.7 -186.7C198.7 -152.3 195.3 -118.5 211.2 -87.5C227 -56.5 262.1 -28.2 297.1 0L0 0Z" fill="#9ca2ff"></path><path d="M0 -222.9C30 -221.3 60 -219.8 85.3 -205.9C110.5 -192 131 -165.8 140 -140C149 -114.2 146.5 -88.9 158.4 -65.6C170.3 -42.3 196.6 -21.2 222.9 0L0 0Z" fill="#7789ff"></path><path d="M0 -148.6C20 -147.5 40 -146.5 56.9 -137.3C73.7 -128 87.3 -110.5 93.3 -93.3C99.3 -76.1 97.7 -59.2 105.6 -43.7C113.5 -28.2 131 -14.1 148.6 0L0 0Z" fill="#4471ff"></path><path d="M0 -74.3C10 -73.8 20 -73.3 28.4 -68.6C36.8 -64 43.7 -55.3 46.7 -46.7C49.7 -38.1 48.8 -29.6 52.8 -21.9C56.8 -14.1 65.5 -7.1 74.3 0L0 0Z" fill="#0066ff"></path></g></svg>