<svg id="visual" viewBox="0 0 1600 800" width="1600" height="800" xmlns="http://www.w3.org/2000/svg" xmlns:xlink="http://www.w3.org/1999/xlink" version="1.1"><rect x="0" y="0" width="1600" height="800" fill="#ffffff"></rect><defs><linearGradient id="grad1_0" x1="50%" y1="0%" x2="100%" y2="100%"><stop offset="10%" stop-color="#0066ff" stop-opacity="1"></stop><stop offset="90%" stop-color="#0066ff" stop-opacity="1"></stop></linearGradient></defs><defs><linearGradient id="grad1_1" x1="50%" y1="0%" x2="100%" y2="100%"><stop offset="10%" stop-color="#0066ff" stop-opacity="1"></stop><stop offset="90%" stop-color="#acafff" stop-opacity="1"></stop></linearGradient></defs><defs><linearGradient id="grad1_2" x1="50%" y1="0%" x2="100%" y2="100%"><stop offset="10%" stop-color="#ffffff" stop-opacity="1"></stop><stop offset="90%" stop-color="#acafff" stop-opacity="1"></stop></linearGradient></defs><defs><linearGradient id="grad2_0" x1="0%" y1="0%" x2="50%" y2="100%"><stop offset="10%" stop-color="#0066ff" stop-opacity="1"></stop><stop offset="90%" stop-color="#0066ff" stop-opacity="1"></stop></linearGradient></defs><defs><linearGradient id="grad2_1" x1="0%" y1="0%" x2="50%" y2="100%"><stop offset="10%" stop-color="#acafff" stop-opacity="1"></stop><stop offset="90%" stop-color="#0066ff" stop-opacity="1"></stop></linearGradient></defs><defs><linearGradient id="grad2_2" x1="0%" y1="0%" x2="50%" y2="100%"><stop offset="10%" stop-color="#acafff" stop-opacity="1"></stop><stop offset="90%" stop-color="#ffffff" stop-opacity="1"></stop></linearGradient></defs><g transform="translate(1600, 0)"><path d="M0 392C-47.1 377.3 -94.2 362.6 -144.3 348.3C-194.4 334 -247.5 320.1 -289.2 289.2C-330.9 258.3 -361.1 210.2 -384.3 159.2C-407.6 108.1 -423.8 54.1 -440 0L0 0Z" fill="#d7d6ff"></path><path d="M0 261.3C-31.4 251.5 -62.8 241.7 -96.2 232.2C-129.6 222.7 -165 213.4 -192.8 192.8C-220.6 172.2 -240.7 140.2 -256.2 106.1C-271.7 72.1 -282.5 36 -293.3 0L0 0Z" fill="#7789ff"></path><path d="M0 130.7C-15.7 125.8 -31.4 120.9 -48.1 116.1C-64.8 111.3 -82.5 106.7 -96.4 96.4C-110.3 86.1 -120.4 70.1 -128.1 53.1C-135.9 36 -141.3 18 -146.7 0L0 0Z" fill="#0066ff"></path></g><g transform="translate(0, 800)"><path d="M0 -440C41.3 -393.3 82.6 -346.6 137 -330.7C191.4 -314.9 258.8 -329.8 306.2 -306.2C353.5 -282.6 380.8 -220.5 393.6 -163C406.4 -105.6 404.7 -52.8 403 0L0 0Z" fill="#d7d6ff"></path><path d="M0 -293.3C27.5 -262.2 55.1 -231.1 91.3 -220.5C127.6 -209.9 172.6 -219.9 204.1 -204.1C235.7 -188.4 253.9 -147 262.4 -108.7C270.9 -70.4 269.8 -35.2 268.7 0L0 0Z" fill="#7789ff"></path><path d="M0 -146.7C13.8 -131.1 27.5 -115.5 45.7 -110.2C63.8 -105 86.3 -109.9 102.1 -102.1C117.8 -94.2 126.9 -73.5 131.2 -54.3C135.5 -35.2 134.9 -17.6 134.3 0L0 0Z" fill="#0066ff"></path></g></svg>