<svg xmlns="http://www.w3.org/2000/svg" width="137.269" height="140.265" viewBox="0 0 137.269 140.265">
  <g id="Group_5" data-name="Group 5" transform="translate(-774.54 -474.558)">
    <path id="Path_5" data-name="Path 5" d="M776.99,492.131c8.884-18.639,17.242-21.513,24.327-20.875,12.27,1.093,20.025,20.875,20.025,20.875" transform="translate(-0.451 4.869)" fill="none" stroke="#000" stroke-linecap="round" stroke-width="3"/>
    <path id="Path_6" data-name="Path 6" d="M776.539,497v91.906l22.183,22.183L820.9,588.906V497" fill="none" stroke="#000" stroke-width="3"/>
    <path id="Path_7" data-name="Path 7" d="M838.961,486.523h81.309v50.743" transform="translate(-9.961 -1.721)" fill="none" stroke="#000" stroke-width="3"/>
    <path id="Path_8" data-name="Path 8" d="M21.5,0C33.374,0,43,10.161,43,22.694S33.374,45.389,21.5,45.389,0,35.228,0,22.694,9.626,0,21.5,0Z" transform="translate(867.309 540)" fill="#71c2ff"/>
    <g id="Group_4" data-name="Group 4" transform="translate(179 -161)">
      <rect id="Rectangle_7" data-name="Rectangle 7" width="38" height="5" transform="translate(661 665)" fill="#71c2ff"/>
      <rect id="Rectangle_9" data-name="Rectangle 9" width="32" height="3" transform="translate(661 678)" fill="#71c2ff"/>
      <rect id="Rectangle_10" data-name="Rectangle 10" width="32" height="4" transform="translate(661 690)" fill="#71c2ff"/>
      <rect id="Rectangle_11" data-name="Rectangle 11" width="28" height="4" transform="translate(661 702)" fill="#71c2ff"/>
      <rect id="Rectangle_8" data-name="Rectangle 8" width="15" height="5" transform="translate(707 665)" fill="#71c2ff"/>
    </g>
    <line id="Line_1" data-name="Line 1" x2="35" transform="translate(829.5 611.5)" fill="none" stroke="#000" stroke-width="3"/>
    <path id="Path_9" data-name="Path 9" d="M1041.042,646.365v22s11.315-11.574,20.3-10.77,18.525,10.77,18.525,10.77v-22" transform="translate(-169.554 -57.275)" fill="none" stroke="#000" stroke-width="3"/>
    <rect id="Rectangle_12" data-name="Rectangle 12" width="12" height="58" transform="translate(807 502)" fill="#71c2ff"/>
    <path id="Path_10" data-name="Path 10" d="M401.088,784.236c2.337,9.044-6.65,15.416-6.65,15.416h-79.5" transform="translate(36.655 900.328) rotate(-90)" fill="none" stroke="#000" stroke-linejoin="round" stroke-width="4"/>
  </g>
</svg>
