<svg xmlns="http://www.w3.org/2000/svg" width="112.239" height="131.951" viewBox="0 0 112.239 131.951">
  <g id="Group_5" data-name="Group 5" transform="translate(-799.57 -483.302)">
    <g id="Group_6" data-name="Group 6" transform="translate(109.497 -139.588)">
      <path id="Path_12" data-name="Path 12" d="M776.99,481.093c3.875-8.82,7.52-10.18,10.611-9.879,5.352.517,8.734,9.879,8.734,9.879" transform="translate(-84.941 155.907)" fill="none" stroke="#000" stroke-linecap="round" stroke-width="3"/>
      <path id="Path_11" data-name="Path 11" d="M776.539,497v91.906l9.672,22.183,9.672-22.183V497" transform="translate(-84.49 140)" fill="none" stroke="#000" stroke-width="3"/>
    </g>
    <path id="Path_7" data-name="Path 7" d="M838.961,486.523h81.309v50.743" transform="translate(-9.961 -1.721)" fill="none" stroke="#000" stroke-width="3"/>
    <path id="Path_8" data-name="Path 8" d="M21.5,0C33.374,0,43,10.161,43,22.694S33.374,45.389,21.5,45.389,0,35.228,0,22.694,9.626,0,21.5,0Z" transform="translate(867.309 540)" fill="#71c2ff"/>
    <g id="Group_4" data-name="Group 4" transform="translate(179 -161)">
      <rect id="Rectangle_7" data-name="Rectangle 7" width="38" height="5" transform="translate(661 665)" fill="#71c2ff"/>
      <rect id="Rectangle_9" data-name="Rectangle 9" width="32" height="3" transform="translate(661 678)" fill="#71c2ff"/>
      <rect id="Rectangle_10" data-name="Rectangle 10" width="32" height="4" transform="translate(661 690)" fill="#71c2ff"/>
      <rect id="Rectangle_11" data-name="Rectangle 11" width="28" height="4" transform="translate(661 702)" fill="#71c2ff"/>
      <rect id="Rectangle_8" data-name="Rectangle 8" width="15" height="5" transform="translate(707 665)" fill="#71c2ff"/>
    </g>
    <line id="Line_1" data-name="Line 1" x2="35" transform="translate(829.5 611.5)" fill="none" stroke="#000" stroke-width="3"/>
    <path id="Path_9" data-name="Path 9" d="M1041.042,646.365v22s11.315-11.574,20.3-10.77,18.525,10.77,18.525,10.77v-22" transform="translate(-169.554 -57.275)" fill="none" stroke="#000" stroke-width="3"/>
    <rect id="Rectangle_12" data-name="Rectangle 12" width="7.781" height="55.752" transform="translate(811.219 502)" fill="#71c2ff"/>
    <path id="Path_10" data-name="Path 10" d="M401.088,784.236c2.337,6.584-6.65,11.223-6.65,11.223h-79.5" transform="translate(36.655 900.328) rotate(-90)" fill="none" stroke="#000" stroke-linejoin="round" stroke-width="4"/>
  </g>
</svg>
