<svg xmlns="http://www.w3.org/2000/svg" xmlns:xlink="http://www.w3.org/1999/xlink" width="234.588" height="232.624" viewBox="0 0 234.588 232.624">
  <defs>
    <linearGradient id="linear-flipkart-gradient" x1="0.535" y1="0.572" x2="0.535" y2="1.572" gradientUnits="objectBoundingBox">
      <stop offset="0" stop-color="#f7e830"/>
      <stop offset="1" stop-color="#fdcb06"/>
    </linearGradient>
    <radialGradient id="radial-flipkart-gradient" cx="0.496" cy="3.536" r="4.378" gradientTransform="translate(0.449) scale(0.154 1)" gradientUnits="objectBoundingBox">
      <stop offset="0.596" stop-color="#f29405"/>
      <stop offset="0.736" stop-color="#f7d01e"/>
      <stop offset="1" stop-color="#fdcb06"/>
    </radialGradient>
    <linearGradient id="linear-flipkart-gradient-2" x1="1.704" y1="11.84" x2="1.712" y2="12.821" gradientUnits="objectBoundingBox">
      <stop offset="0" stop-color="#fada1c"/>
      <stop offset="1" stop-color="#fdcb06"/>
    </linearGradient>
    <linearGradient id="linear-flipkart-gradient-3" x1="224.051" y1="11.84" x2="224.059" y2="12.82" xlink:href="#linear-flipkart-gradient-2"/>
    <clipPath id="clip-path">
      <path id="Path_316" data-name="Path 316" d="M918.272,343.166a3.484,3.484,0,0,1-.295-1.643l-.264.033a3.739,3.739,0,0,0-3.19-2.893c-1.183-.1-2.663-.066-3.352,1.051-1.315,1.776-.692,4.045-.757,6.05,0,.131.034.361.034.493a22.986,22.986,0,0,1-.4,3.978,2.837,2.837,0,0,0-.3,1.283,30.291,30.291,0,0,1-3.189,8.942,3.317,3.317,0,0,0-.624,1.283,44.606,44.606,0,0,1-3.386,4.865,4.16,4.16,0,0,0-.527.559,32.048,32.048,0,0,1-2.729,2.861c-.23.131-.394.295-.592.427a21.4,21.4,0,0,1-3.715,2.926c-.164.1-.328.23-.527.362-8.416,5.556-18.64,7.858-28.6,7.956a53.417,53.417,0,0,1-24.592-5.2c-.131-.066-.46-.2-.592-.262A32.874,32.874,0,0,1,836.9,374.1c-.263-.131-.526-.3-.822-.427a25.124,25.124,0,0,1-3.452-2.433c-.362-.329-.756-.592-1.15-.888a27.663,27.663,0,0,1-3.419-3.123c-.263-.3-.527-.559-.789-.822a32.8,32.8,0,0,1-7.858-13.184c-1.414-3.912-1.216-8.186-1.38-12.3-1.185-1.808-3.682-2.828-5.656-1.71-.821.592-.92,1.677-1.545,2.433-1.018,10.85,3.617,21.667,11.015,29.491a.532.532,0,0,0,.362.526c1.315,1.217,2.6,2.466,3.911,3.65a5.271,5.271,0,0,0,.79.657c1.315,1.085,2.729,2.072,4.11,3.091a6.875,6.875,0,0,0,.821.526,37,37,0,0,0,5.458,3.025,4.253,4.253,0,0,0,.493.328,59.271,59.271,0,0,0,19.891,5.688,10.647,10.647,0,0,1,2.268.23c3.289.2,6.576.1,9.863.033,10.159-.887,20.648-3.353,29.13-9.337l.1.132c.263-.231.492-.428.756-.625,1.348-.987,2.664-2.038,3.978-3.124a10.051,10.051,0,0,0,.921-.788,43.281,43.281,0,0,0,4.34-4.834l.2.1c.1-.164.263-.493.364-.657,1.116-1.513,2.136-3.091,3.123-4.669.064-.1.229-.263.294-.362l-.13-.131c.1-.131.328-.395.428-.526a38.611,38.611,0,0,0,3.977-11.606.563.563,0,0,0,.362-.526,30.647,30.647,0,0,0,.362-3.88A22.462,22.462,0,0,0,918.272,343.166Z" fill="none"/>
    </clipPath>
  </defs>
  <g id="Group_28" data-name="Group 28" transform="translate(-747.229 -292.337)">
    <path id="Path_278" data-name="Path 278" d="M981.611,332.663c-.1-.329-.2-.657-.328-.986q-116.831.049-233.6.033a1.366,1.366,0,0,0-.361.756q0,90.594-.034,181.156a14.653,14.653,0,0,0,4.637,8.35c.1.033.329.065.427.1a11.419,11.419,0,0,0,4.6,2.5c1.217-.066,2.4.461,3.617.329h96.659a7.78,7.78,0,0,0,2.761-.23c.033-.13.066-.362.1-.494.033-.164.065-.525.1-.721,2.072-11.574,4.076-23.18,6.28-34.752.066-.494.13-.987.2-1.479-8.942-.034-17.918,0-26.861-.034-2.169-.066-4.4,0-6.575-.264-3.715-.164-7.463-.032-11.177-.393-4.6,0-9.174-.428-13.776-.428-3.617-.362-7.266-.231-10.916-.4-2.366-.294-4.8-.164-7.2-.263-3.912-.426-7.891-.13-11.8-.558-4.142.033-8.285-.328-12.427-.428a.46.46,0,0,0,.065-.2c1.381.032,2.729-.066,4.11-.1,3.057-.395,6.149-.132,9.206-.56,3.19,0,6.345-.426,9.534-.426,2.828-.395,5.689-.164,8.515-.559,3.32,0,6.575-.428,9.9-.46,2.729-.363,5.49-.164,8.219-.528,3.189.033,6.345-.46,9.535-.425,3.124-.363,6.312-.265,9.435-.594-.3-1.215-.526-2.432-.789-3.65-.229-.755-1.15-.59-1.742-.689q-10.7-1.531-21.338-3.025c.461-.363,1.086-.2,1.611-.263,5.524-.428,11.015-.921,16.537-1.316,1.25-.065,2.467-.3,3.716-.329a43.1,43.1,0,0,0-1.644-5.161c-11.8-1.807-23.606-3.419-35.376-5.359,3.058-.493,6.148-.723,9.205-1.052l.263-.1c9.765-1.02,19.563-2.171,29.328-3.124,12.394-.064,24.756-.033,37.151,0,.394-.064,1.085.131,1.15-.427,1.019-5.327,2.006-10.652,3.025-15.978a79.783,79.783,0,0,1,7.1-21.436,63.218,63.218,0,0,1,24.46-26.17c9.764-5.721,21.075-8.483,32.32-9.008a50.778,50.778,0,0,1,10.948.229c2.367.559,4.8,1.217,6.674,2.828a11.185,11.185,0,0,1,3.156,4.932,78.565,78.565,0,0,1,3.091,13.48c.032,1.84.36,3.912-.625,5.588-.92,1.644-2.761,2.434-4.5,2.927-6.346,1.644-12.986.1-19.332,1.644a23.512,23.512,0,0,0-13.414,8.186c-3.912,4.866-5.985,10.914-7.135,16.964-.887,5.393-2.005,10.784-2.893,16.21,6.247.033,12.528-.034,18.806.033a6.618,6.618,0,0,1,6.083,3.746c1.314,3.026,1.018,6.446.591,9.634a35.08,35.08,0,0,1-2.991,10.422,11.774,11.774,0,0,1-6.642,6.345,13.234,13.234,0,0,1-4.965.494c-5.523,0-11.047.065-16.57,0-.887,4.045-1.48,8.186-2.269,12.3-1.446,7.989-2.86,16.012-4.306,24.034-.033.263-.066.821-.066,1.118,2.6.131,5.2,0,7.791.065,19.267,0,38.567-.034,57.866,0a11.517,11.517,0,0,0,5.983-1.447c1.085-.394,1.742-1.347,2.7-1.874.921-.525,1.184-1.61,1.973-2.3a10.99,10.99,0,0,0,1.809-4.867,3.016,3.016,0,0,0,.493-.064C981.577,453.653,981.678,393.158,981.611,332.663Z" stroke="#fcd109" stroke-width="0.094" fill="url(#linear-flipkart-gradient)"/>
    <path id="Path_279" data-name="Path 279" d="M777.969,292.882c2.795-.888,5.72-.3,8.582-.493q80.532.049,161.065,0c3.19-.132,5.985,1.676,8.943,2.6,2.368.953,4.833,1.71,7.2,2.729a3.913,3.913,0,0,1,1.215.986c-.033,4.34,0,8.712,0,13.086a11.108,11.108,0,0,0,.23,3.452c.691.1,1.052.624,1.513,1.051A44.475,44.475,0,0,1,972.7,320.2c2.959,2.1,6.116,3.944,9.008,6.114a5.47,5.47,0,0,1-.23,2.532,13.728,13.728,0,0,0-.2,2.827q-116.832.049-233.595.033c-.164-1.085.132-2.17-.328-3.189-.066-.855-.362-1.973.46-2.565,3.288-2.3,6.773-4.372,9.994-6.8,2.007-1.282,3.946-2.6,5.885-3.912a4.177,4.177,0,0,0,.263-2.2c0-4.768,0-9.535.033-14.3,1.118-1.446,3.059-1.611,4.6-2.334,3.125-1.184,6.282-2.335,9.372-3.518m.2.559c-4.208,1.611-8.449,3.156-12.658,4.767-.559.1-.856.592-1.151,1.019a9.641,9.641,0,0,1,.066.987c-.033,3.945,0,7.89-.033,11.835a8.257,8.257,0,0,0,.262,2.861,8.155,8.155,0,0,1-1.413,1.184c-4.767,3.09-9.371,6.444-14.137,9.5-.823.493-1.743,1.151-1.48,2.235-.164.593.132,1.086.756.921,10.324-.066,20.614.066,30.938-.1,15.355,0,30.675.032,46.029,0l.23-.1a8.976,8.976,0,0,0,2.1.1q41.719,0,83.475,0c8.746.032,17.524,0,26.3,0,14.466,0,28.966.131,43.432.065.426-.1.558-.394.394-.92-.033-.527.164-1.25-.394-1.578-2.3-1.085-4.274-2.762-6.478-4.077-.788-.658-1.808-1.019-2.4-1.907-2.269-1.282-4.372-2.861-6.609-4.274a6.715,6.715,0,0,1-1.117-1.052,8.062,8.062,0,0,0,.263-2.17c-.033-4.176,0-8.351-.033-12.526a1.82,1.82,0,0,0-.528-1.842c-3.945-1.414-7.856-2.926-11.769-4.373a13.463,13.463,0,0,0-3.879-1.117H780.3A12.747,12.747,0,0,0,778.166,293.441Z" fill="#f8f3b5" stroke="#f8f3b5" stroke-width="0.094"/>
    <path id="Path_280" data-name="Path 280" d="M764.423,300.214c2.893,1.216,5.983,1.907,8.91,3.09,1.578.625,2.071,2.334,2.762,3.715a13.655,13.655,0,0,1-2.335,1.775c-3.026,2.039-6.116,4.012-9.108,6.116a8.257,8.257,0,0,1-.262-2.861C764.423,308.1,764.391,304.159,764.423,300.214Z" fill="#f7b402" stroke="#f7b402" stroke-width="0.094"/>
    <path id="Path_281" data-name="Path 281" d="M955.6,303.3c2.927-1.151,5.985-1.94,8.912-3.09.033,4.175,0,8.35.033,12.526a8.063,8.063,0,0,1-.264,2.17c-2.564-1.775-5.162-3.452-7.726-5.2a30.357,30.357,0,0,1-3.748-2.729C953.5,305.605,954.027,303.929,955.6,303.3Z" fill="#f7b402" stroke="#f7b402" stroke-width="0.094"/>
    <path id="Path_282" data-name="Path 282" d="M814.595,304.652c3.616-.855,7.659,2.367,7.364,6.148a6.261,6.261,0,0,1-7.464,5.885,7.148,7.148,0,0,1-3.715-2.531,6.171,6.171,0,0,1-.493-5.984A5.881,5.881,0,0,1,814.595,304.652Z" fill="#bda727" stroke="#bda727" stroke-width="0.094"/>
    <path id="Path_283" data-name="Path 283" d="M908.394,306.723a6.321,6.321,0,0,1,6.148-2.038,6.15,6.15,0,0,1,1.545,11.343,6.349,6.349,0,0,1-7.562-1.282A6.259,6.259,0,0,1,908.394,306.723Z" fill="#bda727" stroke="#bda727" stroke-width="0.094"/>
    <path id="Path_284" data-name="Path 284" d="M773.761,308.794a13.646,13.646,0,0,0,2.334-1.775l.229.23c.232,1.71.067,3.452.132,5.162-.1,5.129.1,10.291-.132,15.419-9.566,0-19.133-.065-28.7,0-.263-1.084.657-1.742,1.479-2.235,4.767-3.057,9.371-6.411,14.137-9.5a8.162,8.162,0,0,0,1.414-1.184C767.644,312.806,770.735,310.833,773.761,308.794Z" fill="#f7e62d" stroke="#f7e62d" stroke-width="0.094"/>
    <path id="Path_285" data-name="Path 285" d="M952.481,308.137a2.051,2.051,0,0,1,.329-1.151,30.363,30.363,0,0,0,3.749,2.729c2.564,1.743,5.162,3.42,7.726,5.2a6.754,6.754,0,0,0,1.117,1.052c2.237,1.413,4.339,2.992,6.609,4.274.591.888,1.611,1.249,2.4,1.907,2.2,1.315,4.177,2.992,6.478,4.077.558.328.361,1.051.394,1.578-9.568.032-19.1-.033-28.669.032-.164-1.314-.066-2.629-.1-3.912C952.516,318.658,952.449,313.4,952.481,308.137Z" fill="#f7e62d" stroke="#f7e62d" stroke-width="0.094"/>
    <path id="Path_286" data-name="Path 286" d="M981.283,327.8c-9.568.032-19.1-.033-28.669.032a38.623,38.623,0,0,1-.1-3.912c0-5.26-.067-10.521-.035-15.781a2.051,2.051,0,0,1,.329-1.151c.691-1.381,1.216-3.057,2.794-3.682,2.927-1.151,5.985-1.94,8.912-3.09a1.822,1.822,0,0,0-.527-1.842c-3.945-1.414-7.857-2.926-11.771-4.373a13.454,13.454,0,0,0-3.879-1.117H780.3a12.746,12.746,0,0,0-2.138.559c-4.208,1.611-8.449,3.156-12.657,4.767-.56.1-.857.592-1.152,1.019a9.641,9.641,0,0,1,.066.987c2.893,1.216,5.983,1.907,8.91,3.09,1.578.625,2.072,2.334,2.762,3.715l.229.23c.231,1.71.067,3.452.132,5.162-.1,5.129.1,10.291-.132,15.419-9.567,0-19.134-.065-28.7,0-.165.593.131,1.086.755.921,10.324-.066,20.614.066,30.939-.1,15.354,0,30.674.032,46.028,0l.23-.1a8.973,8.973,0,0,0,2.1.1q41.721,0,83.475,0c8.746.032,17.525,0,26.3,0,14.467,0,28.966.131,43.432.065C981.315,328.62,981.447,328.324,981.283,327.8Zm-171-19.628a5.879,5.879,0,0,1,4.308-3.518c3.616-.855,7.659,2.367,7.364,6.148a6.261,6.261,0,0,1-7.464,5.885,7.148,7.148,0,0,1-3.715-2.531A6.171,6.171,0,0,1,810.287,308.17Zm98.107-1.447a6.321,6.321,0,0,1,6.148-2.038,6.15,6.15,0,0,1,1.545,11.343,6.349,6.349,0,0,1-7.562-1.282A6.259,6.259,0,0,1,908.394,306.723Z" stroke="#fcd109" stroke-width="0.094" fill="url(#radial-flipkart-gradient)"/>
    <path id="Path_287" data-name="Path 287" d="M916.773,342.246c.46.1-2.4-2.744-1.837-2.875.526.065,2.521-1.482,4.931-.22s1.814,4.22,1.54,5.316a5.936,5.936,0,0,1-1.813,2.794,3.168,3.168,0,0,1-1.666.723c.3-1.611-.658-1.873-.723-3.517Z" stroke="#fcd109" stroke-width="0.094" fill="url(#linear-flipkart-gradient-2)"/>
    <path id="Path_288" data-name="Path 288" d="M811.674,344.029c-.067,1.643-1.02,1.906-.724,3.517a3.169,3.169,0,0,1-1.666-.723,5.956,5.956,0,0,1-1.813-2.794c-.274-1.1-.871-4.053,1.539-5.316s4.406.285,4.932.22c.559.131-2.3,2.973-1.838,2.875Z" stroke="#fcd109" stroke-width="0.094" fill="url(#linear-flipkart-gradient-3)"/>
    <path id="Path_289" data-name="Path 289" d="M912.469,363.308a1.815,1.815,0,0,1,1.48-.43c-3.945,8.548-8.548,17.1-15.468,23.752a22.969,22.969,0,0,1-2.341,1.833c-.792.58-1.568,1.124-2.34,1.678-.756.525-1.508,1.053-2.239,1.6-1.875,1.019-3.519,2.433-5.59,3.058A52.555,52.555,0,0,1,874,398.682a35.16,35.16,0,0,1-4.9.69c-2.039.592-4.208.165-6.28.3-1.15.2-2.17-.46-3.287-.329q-1.457-.2-2.9-.493c-.972-.2-1.939-.427-2.907-.69-15.072-4.7-29.866-16.209-34.176-31.772a17.352,17.352,0,0,1-.293-3.178q.69,1.382,1.43,2.741c6.132,13.37,18.295,23.891,32.667,27.063,1.167.532,2.43.346,3.548.8a9.169,9.169,0,0,1,2.991.3c3.386.065,6.774.032,10.161.032a4.994,4.994,0,0,0,1.346-.3,43.307,43.307,0,0,0,16.322-4.065q1.548-.7,3.043-1.492,1.324-.7,2.554-1.492t2.372-1.676a54.423,54.423,0,0,0,14.92-18.251C911.3,365.58,911.92,364.383,912.469,363.308Z" fill="#bda727" stroke="#bda727" stroke-width="0.094"/>
    <path id="Path_290" data-name="Path 290" d="M907.111,392.534c9.764-5.721,21.075-8.483,32.32-9.009a50.779,50.779,0,0,1,10.948.23c2.366.559,4.8,1.217,6.673,2.827a14.107,14.107,0,0,1-2.827-.493,49.045,49.045,0,0,0-8.219-.394,86.364,86.364,0,0,0-23.573,2.794,55.36,55.36,0,0,0-11.672,4.735,58.259,58.259,0,0,0-16.6,13.611c-8.219,9.436-13.052,21.4-15.386,33.6-1.118,6.541-2.4,13.051-3.419,19.626-1.644.164-3.321.066-4.964.066q-10.851-.048-21.7-.131c-1.544.065-3.057-.295-4.6-.2-13.151.066-26.3-.033-39.453-.033l.262-.1c9.765-1.02,19.563-2.172,29.327-3.125,12.394-.064,24.757-.033,37.151,0,.394-.064,1.086.131,1.151-.427,1.02-5.325,2.006-10.651,3.024-15.978a79.849,79.849,0,0,1,7.1-21.435A63.208,63.208,0,0,1,907.111,392.534Z" fill="#0d69b3" stroke="#0d69b3" stroke-width="0.094"/>
    <path id="Path_291" data-name="Path 291" d="M922.433,388.489a86.369,86.369,0,0,1,23.573-2.794,49.045,49.045,0,0,1,8.219.394,14.107,14.107,0,0,0,2.827.493,11.179,11.179,0,0,1,3.156,4.932,78.382,78.382,0,0,1,3.091,13.48c.033,1.841.361,3.912-.625,5.589-.92,1.644-2.76,2.433-4.5,2.926-6.346,1.644-12.986.1-19.331,1.644a23.525,23.525,0,0,0-13.415,8.186c-3.912,4.866-5.984,10.914-7.135,16.965-.887,5.392-2.005,10.783-2.893,16.209a29,29,0,0,0-.854,3.815c6.213.1,12.428,0,18.642.065,2.366-.065,4.732.065,7.1-.1,1.316,3.025,1.02,6.446.592,9.634a35.066,35.066,0,0,1-2.991,10.422,11.784,11.784,0,0,1-6.641,6.346,13.261,13.261,0,0,1-4.966.493c-5.523,0-11.047.064-16.57,0-.887,4.044-1.479,8.186-2.269,12.3-1.445,7.988-2.859,16.011-4.306,24.033-.032.264-.066.821-.066,1.118v.033c-14.367,0-28.7.034-43.069,0,.032-.13.066-.362.1-.494.033-.164.065-.525.1-.721.033.263.066.755.1.985.887.1,2.5.559,2.728-.722,2.236-12.1,4.307-24.264,6.609-36.364a6.925,6.925,0,0,0-2.73-.032c-.13.46-.262.92-.426,1.38q.1-.741.2-1.48c-8.942-.034-17.918,0-26.861-.034-2.169-.064-4.405,0-6.576-.262-3.714-.164-7.463-.032-11.177-.4-4.6,0-9.173-.427-13.776-.427-3.616-.361-7.265-.23-10.916-.395-2.366-.3-4.8-.165-7.2-.263-3.912-.428-7.891-.13-11.8-.559-4.142.034-8.286-.329-12.428-.427a.47.47,0,0,0,.066-.2c1.382.032,2.729-.065,4.109-.1,3.058-.395,6.149-.132,9.206-.56,3.19,0,6.346-.428,9.535-.428,2.828-.393,5.688-.164,8.514-.557,3.321,0,6.576-.428,9.9-.461,2.728-.362,5.49-.164,8.219-.527,3.189.033,6.345-.46,9.535-.427,3.123-.363,6.311-.263,9.434-.592-.295-1.217-.525-2.432-.788-3.65-.23-.756-1.15-.591-1.742-.69q-10.7-1.531-21.338-3.024c.461-.364,1.085-.2,1.61-.263,5.525-.429,11.016-.922,16.538-1.316,1.249-.065,2.466-.3,3.715-.329a42.868,42.868,0,0,0-1.643-5.162c-11.8-1.808-23.606-3.419-35.376-5.358,3.057-.493,6.147-.724,9.2-1.052,13.151,0,26.3.1,39.453.032,1.545-.1,3.057.264,4.6.2q10.852.1,21.7.131c1.643,0,3.32.1,4.963-.065,1.019-6.576,2.3-13.085,3.419-19.628,2.335-12.2,7.167-24.165,15.387-33.6a58.272,58.272,0,0,1,16.6-13.611A55.35,55.35,0,0,1,922.433,388.489Z" fill="#107bd4" stroke="#107bd4" stroke-width="0.094"/>
    <path id="Path_292" data-name="Path 292" d="M915.4,456.513c6.248.033,12.528-.033,18.806.033a6.618,6.618,0,0,1,6.082,3.747c-2.366.165-4.734.035-7.1.1-6.214-.065-12.429.033-18.642-.065A28.838,28.838,0,0,1,915.4,456.513Z" fill="#0d69b3" stroke="#0d69b3" stroke-width="0.094"/>
    <path id="Path_293" data-name="Path 293" d="M866.9,487.32a6.919,6.919,0,0,1,2.729.032c-2.3,12.1-4.372,24.265-6.609,36.364-.229,1.281-1.84.822-2.728.722-.034-.23-.066-.722-.1-.985,2.072-11.574,4.076-23.18,6.28-34.752C866.639,488.24,866.77,487.78,866.9,487.32Z" fill="#0d69b3" stroke="#0d69b3" stroke-width="0.094"/>
    <path id="Path_294" data-name="Path 294" d="M918.272,343.166a3.484,3.484,0,0,1-.295-1.643l-.264.033a3.739,3.739,0,0,0-3.19-2.893c-1.183-.1-2.663-.066-3.352,1.051-1.315,1.776-.692,4.045-.757,6.05,0,.131.034.361.034.493a22.986,22.986,0,0,1-.4,3.978,2.837,2.837,0,0,0-.3,1.283,30.291,30.291,0,0,1-3.189,8.942,3.317,3.317,0,0,0-.624,1.283,44.606,44.606,0,0,1-3.386,4.865,4.16,4.16,0,0,0-.527.559,32.048,32.048,0,0,1-2.729,2.861c-.23.131-.394.295-.592.427a21.4,21.4,0,0,1-3.715,2.926c-.164.1-.328.23-.527.362-8.416,5.556-18.64,7.858-28.6,7.956a53.417,53.417,0,0,1-24.592-5.2c-.131-.066-.46-.2-.592-.262A32.874,32.874,0,0,1,836.9,374.1c-.263-.131-.526-.3-.822-.427a25.124,25.124,0,0,1-3.452-2.433c-.362-.329-.756-.592-1.15-.888a27.663,27.663,0,0,1-3.419-3.123c-.263-.3-.527-.559-.789-.822a32.8,32.8,0,0,1-7.858-13.184c-1.414-3.912-1.216-8.186-1.38-12.3-1.185-1.808-3.682-2.828-5.656-1.71-.821.592-.92,1.677-1.545,2.433-1.018,10.85,3.617,21.667,11.015,29.491a.532.532,0,0,0,.362.526c1.315,1.217,2.6,2.466,3.911,3.65a5.271,5.271,0,0,0,.79.657c1.315,1.085,2.729,2.072,4.11,3.091a6.875,6.875,0,0,0,.821.526,37,37,0,0,0,5.458,3.025,4.253,4.253,0,0,0,.493.328,59.271,59.271,0,0,0,19.891,5.688,10.647,10.647,0,0,1,2.268.23c3.289.2,6.576.1,9.863.033,10.159-.887,20.648-3.353,29.13-9.337l.1.132c.263-.231.492-.428.756-.625,1.348-.987,2.664-2.038,3.978-3.124a10.051,10.051,0,0,0,.921-.788,43.281,43.281,0,0,0,4.34-4.834l.2.1c.1-.164.263-.493.364-.657,1.116-1.513,2.136-3.091,3.123-4.669.064-.1.229-.263.294-.362l-.13-.131c.1-.131.328-.395.428-.526a38.611,38.611,0,0,0,3.977-11.606.563.563,0,0,0,.362-.526,30.647,30.647,0,0,0,.362-3.88A22.462,22.462,0,0,0,918.272,343.166Z" fill="#fff" stroke="#fff" stroke-width="0.094"/>
    <g id="Group_26" data-name="Group 26">
      <g id="Group_25" data-name="Group 25">
        <g id="Group_24" data-name="Group 24">
          <g id="Group_23" data-name="Group 23" clip-path="url(#clip-path)">
            <g id="Group_22" data-name="Group 22">
              <path id="Path_295" data-name="Path 295" d="M808.3,342.056c2.665.836,8.788-1.268,10.52.658" fill="none" stroke="#d1d1d1" stroke-width="2"/>
              <path id="Path_296" data-name="Path 296" d="M809.838,350.165c2.555-.888,8.03-2.992,10.3-1.753" fill="none" stroke="#d1d1d1" stroke-width="2"/>
              <path id="Path_297" data-name="Path 297" d="M812.469,358.276c1.234.4,3.667-1.77,4.877-2.4a17.945,17.945,0,0,1,5.643-1.979" fill="none" stroke="#d1d1d1" stroke-width="2"/>
              <path id="Path_298" data-name="Path 298" d="M816.413,366.824a18.559,18.559,0,0,1,4.638-4.6c1.823-1.274,6.81-4.677,8.952-3.513" fill="none" stroke="#d1d1d1" stroke-width="2"/>
              <path id="Path_299" data-name="Path 299" d="M820.14,372.961c1.445-1.149,2.033-3.182,3.551-4.389,1.836-1.46,4.649-1.722,6.532-2.625" fill="none" stroke="#d1d1d1" stroke-width="2"/>
              <path id="Path_300" data-name="Path 300" d="M826.331,377.508c.433-3.178,3.66-7.014,6.74-6.74" fill="none" stroke="#d1d1d1" stroke-width="2"/>
              <path id="Path_301" data-name="Path 301" d="M831.1,381.947c1.627-.163,3-3.806,4.1-5.04,1.649-1.849,3.358-2.418,5.539-3.07" fill="none" stroke="#d1d1d1" stroke-width="2"/>
              <path id="Path_302" data-name="Path 302" d="M840.523,385.893c-.1-2.3,2.271-8.9,5.041-8.549" fill="none" stroke="#d1d1d1" stroke-width="2"/>
              <path id="Path_303" data-name="Path 303" d="M847.537,388.084c-.115-2.718,1.291-10.894,4.6-11.178" fill="none" stroke="#d1d1d1" stroke-width="2"/>
              <path id="Path_304" data-name="Path 304" d="M854.77,392.468c-.627-3.8-.586-9.3,2.411-12.055" fill="none" stroke="#d1d1d1" stroke-width="2"/>
              <path id="Path_305" data-name="Path 305" d="M863.757,393.345c-.335-3.169-3.484-9.574,0-12.055" fill="none" stroke="#d1d1d1" stroke-width="2"/>
              <path id="Path_306" data-name="Path 306" d="M873.4,391.153c-1.5-1.743-2.377-8.617-1.754-10.521" fill="none" stroke="#d1d1d1" stroke-width="2"/>
              <path id="Path_307" data-name="Path 307" d="M882.606,389.619c-1.159-2.1-2.6-4.082-3.035-6.526-.262-1.461.2-3.541-.034-4.653" fill="none" stroke="#d1d1d1" stroke-width="2"/>
              <path id="Path_308" data-name="Path 308" d="M890.278,386.331c-2.515-1.645-3.213-7.69-2.411-10.3" fill="none" stroke="#d1d1d1" stroke-width="2"/>
              <path id="Path_309" data-name="Path 309" d="M897.729,383.043c-1.788-3.837-3.7-6.812-3.726-11.178" fill="none" stroke="#d1d1d1" stroke-width="2"/>
              <path id="Path_310" data-name="Path 310" d="M904.963,376.029c-2.779-1.869-6.326-5.268-5.918-8.986" fill="none" stroke="#d1d1d1" stroke-width="2"/>
              <path id="Path_311" data-name="Path 311" d="M912.635,370.112c-4.224-.936-9.292-4.715-11.835-8.111" fill="none" stroke="#d1d1d1" stroke-width="2"/>
              <path id="Path_312" data-name="Path 312" d="M916.142,362.878c-3.047-.653-13.113-4.58-12.494-8.548" fill="none" stroke="#d1d1d1" stroke-width="2"/>
              <path id="Path_313" data-name="Path 313" d="M919.43,355.207c-4.245-1.556-10.42-2.955-13.81-5.918" fill="none" stroke="#d1d1d1" stroke-width="2"/>
              <path id="Path_314" data-name="Path 314" d="M921.621,348.193c-2.674.229-6.5-1.066-9.222-1.534-3.017-.521-5.815-1.537-8.752-2.192" fill="none" stroke="#d1d1d1" stroke-width="2"/>
              <path id="Path_315" data-name="Path 315" d="M918.99,341.4c-5.156.309-9.995-1.455-14.684-3.068" fill="none" stroke="#d1d1d1" stroke-width="2"/>
            </g>
          </g>
        </g>
      </g>
    </g>
  </g>
</svg>
