<svg xmlns="http://www.w3.org/2000/svg" width="377.376" height="93.166" viewBox="0 0 377.376 93.166">
  <g id="Group_3" data-name="Group 3" transform="translate(-1007.973 -484.245)">
    <path id="Path_4" data-name="Path 4" d="M40.559,4.245,52.986,29.983H71.061L60.55,53.909,74.733,75.66H52.986L40.559,97.411,26.72,75.66H4.973l11.8-21.751L4.973,29.983H26.72Z" transform="translate(1003 480)" fill="#eefd26"/>
    <path id="Path_4-2" data-name="Path 4" d="M40.559,4.245,52.986,29.983H71.061L60.55,53.909,74.733,75.66H52.986L40.559,97.411,26.72,75.66H4.973l11.8-21.751L4.973,29.983H26.72Z" transform="translate(1079.904 480)" fill="#eefd26"/>
    <path id="Path_4-3" data-name="Path 4" d="M40.559,4.245,52.986,29.983H71.061L60.55,53.909,74.733,75.66H52.986L40.559,97.411,26.72,75.66H4.973l11.8-21.751L4.973,29.983H26.72Z" transform="translate(1156.808 480)" fill="#eefd26"/>
    <g id="Path_4-4" data-name="Path 4" transform="translate(1233.712 480)" fill="#fff">
      <path d="M 40.53594970703125 96.44345092773438 L 27.14198112487793 75.39180755615234 L 26.99462890625 75.16020965576172 L 26.72012329101563 75.16020965576172 L 5.813257694244385 75.16020965576172 L 17.21334648132324 54.14766693115234 L 17.33677101135254 53.92017364501953 L 17.22228813171387 53.68805694580078 L 5.777268409729004 30.48333930969238 L 26.72012329101563 30.48333930969238 L 27.01898193359375 30.48333930969238 L 27.16049957275391 30.22011566162109 L 40.53501510620117 5.345127105712891 L 52.53554534912109 30.20072746276855 L 52.67199325561523 30.48333930969238 L 52.98581695556641 30.48333930969238 L 70.29534912109375 30.48333930969238 L 60.09236907958984 53.70812606811523 L 59.98358154296875 53.95576095581055 L 60.13130950927734 54.18232727050781 L 73.80986785888672 75.16020965576172 L 52.98581695556641 75.16020965576172 L 52.69562911987305 75.16020965576172 L 52.55167770385742 75.41217041015625 L 40.53594970703125 96.44345092773438 Z" stroke="none"/>
      <path d="M 40.51106643676758 6.445518493652344 L 27.60088348388672 30.45690155029297 L 27.31783294677734 30.98333740234375 L 26.72011947631836 30.98333740234375 L 6.581382751464844 30.98333740234375 L 17.67070770263672 53.46690368652344 L 17.8996696472168 53.93112945556641 L 17.65283203125 54.38611602783203 L 6.65338134765625 74.66020202636719 L 26.72011947631836 74.66020202636719 L 27.26911926269531 74.66020202636719 L 27.5638313293457 75.12340545654297 L 40.51292419433594 95.47582244873047 L 52.11753082275391 75.16412353515625 L 52.40544509887695 74.66020202636719 L 52.98582077026367 74.66020202636719 L 72.88694763183594 74.66020202636719 L 59.71248245239258 54.45542907714844 L 59.41702270507813 54.00230407714844 L 59.63459777832031 53.50702667236328 L 69.52957153320313 30.98333740234375 L 52.98582077026367 30.98333740234375 L 52.35818481445313 30.98333740234375 L 52.08528137207031 30.41812896728516 L 40.51106643676758 6.445518493652344 M 40.5589714050293 4.2447509765625 L 52.98582077026367 29.98333740234375 L 71.06113433837891 29.98333740234375 L 60.55014419555664 53.90924072265625 L 74.73279571533203 75.66020202636719 L 52.98582077026367 75.66020202636719 L 40.5589714050293 97.41107940673828 L 26.72011947631836 75.66020202636719 L 4.97314453125 75.66020202636719 L 16.77385711669922 53.90924072265625 L 4.97314453125 29.98333740234375 L 26.72011947631836 29.98333740234375 L 40.5589714050293 4.2447509765625 Z" stroke="none" fill="#000"/>
    </g>
    <g id="Path_4-5" data-name="Path 4" transform="translate(1310.616 480)" fill="#fff">
      <path d="M 40.53594970703125 96.44345092773438 L 27.14198112487793 75.39180755615234 L 26.99462890625 75.16020965576172 L 26.72012329101563 75.16020965576172 L 5.813257694244385 75.16020965576172 L 17.21334648132324 54.14766693115234 L 17.33677101135254 53.92017364501953 L 17.22228813171387 53.68805694580078 L 5.777268409729004 30.48333930969238 L 26.72012329101563 30.48333930969238 L 27.01898193359375 30.48333930969238 L 27.16049957275391 30.22011566162109 L 40.53501510620117 5.345127105712891 L 52.53554534912109 30.20072746276855 L 52.67199325561523 30.48333930969238 L 52.98581695556641 30.48333930969238 L 70.29534912109375 30.48333930969238 L 60.09236907958984 53.70812606811523 L 59.98358154296875 53.95576095581055 L 60.13130950927734 54.18232727050781 L 73.80986785888672 75.16020965576172 L 52.98581695556641 75.16020965576172 L 52.69562911987305 75.16020965576172 L 52.55167770385742 75.41217041015625 L 40.53594970703125 96.44345092773438 Z" stroke="none"/>
      <path d="M 40.51106643676758 6.445518493652344 L 27.60088348388672 30.45690155029297 L 27.31783294677734 30.98333740234375 L 26.72011947631836 30.98333740234375 L 6.581382751464844 30.98333740234375 L 17.67070770263672 53.46690368652344 L 17.8996696472168 53.93112945556641 L 17.65283203125 54.38611602783203 L 6.65338134765625 74.66020202636719 L 26.72011947631836 74.66020202636719 L 27.26911926269531 74.66020202636719 L 27.5638313293457 75.12340545654297 L 40.51292419433594 95.47582244873047 L 52.11753082275391 75.16412353515625 L 52.40544509887695 74.66020202636719 L 52.98582077026367 74.66020202636719 L 72.88694763183594 74.66020202636719 L 59.71248245239258 54.45542907714844 L 59.41702270507813 54.00230407714844 L 59.63459777832031 53.50702667236328 L 69.52957153320313 30.98333740234375 L 52.98582077026367 30.98333740234375 L 52.35818481445313 30.98333740234375 L 52.08528137207031 30.41812896728516 L 40.51106643676758 6.445518493652344 M 40.5589714050293 4.2447509765625 L 52.98582077026367 29.98333740234375 L 71.06113433837891 29.98333740234375 L 60.55014419555664 53.90924072265625 L 74.73279571533203 75.66020202636719 L 52.98582077026367 75.66020202636719 L 40.5589714050293 97.41107940673828 L 26.72011947631836 75.66020202636719 L 4.97314453125 75.66020202636719 L 16.77385711669922 53.90924072265625 L 4.97314453125 29.98333740234375 L 26.72011947631836 29.98333740234375 L 40.5589714050293 4.2447509765625 Z" stroke="none" fill="#000"/>
    </g>
  </g>
</svg>
