<svg xmlns="http://www.w3.org/2000/svg" width="194.448" height="52.816" viewBox="0 0 194.448 52.816">
  <defs>
    <style>
      .cls-11 {
        fill: #373837;
      }

      .cls-21 {
        fill: #010101;
      }

      .cls-22 {
        fill: #febf10;
      }

      .cls-23 {
        fill: #ff1744;
      }

      .cls-24 {
        fill: #fdde37;
      }

      .cls-25 {
        fill: #fde441;
      }

      .cls-26 {
        fill: #fcd930;
      }

      .cls-27 {
        fill: #fcdc35;
      }

      .cls-28 {
        fill: #fde13c;
      }

      .cls-29 {
        fill: #fde23e;
      }

      .cls-11 {
        fill: #0265fc;
      }

      .cls-12 {
        fill: #0158fd;
      }

      .cls-13 {
        fill: #0549a2;
      }

      .cls-14 {
        fill: #998825;
      }

      .cls-15 {
        fill: #fdfcfb;
      }

      .cls-16 {
        fill: #0174fc;
      }

      .cls-17 {
        fill: #0384fb;
      }

      .cls-18 {
        fill: #474747;
      }

      .cls-19 {
        fill: #0292fb;
      }
    </style>
  </defs>
  <g id="Group_9" data-name="Group 9" transform="translate(-648 -1819.573)">
    <g id="icons8-amazon" transform="translate(788.782 1817.512)">
      <path id="Path_21" data-name="Path 21" class="cls-11" d="M23.164,43.151a13.79,13.79,0,0,1-3.177-.432,15.451,15.451,0,0,1-2.913-.884,10.457,10.457,0,0,1-5.421-6.227,14.517,14.517,0,0,1-.09-8.5A9.218,9.218,0,0,1,13.1,23.838a9.935,9.935,0,0,1,3.459-2.554,28.056,28.056,0,0,1,10.754-2.912c1.343-.085,2.841-.135,3.786-1.13a4.322,4.322,0,0,0,.692-3.862,4.788,4.788,0,0,0-1.065-2.3c-1.266-1.351-3.35-1.238-5.155-1.027-1.2.141-2.6.411-3.155,1.526a13.29,13.29,0,0,0-.436,1.391c-.6,1.621-2.469,2.286-4.136,2.4a12.135,12.135,0,0,1-4.319-.491,1.465,1.465,0,0,1-.783-.444,1.507,1.507,0,0,1-.239-.771,9.679,9.679,0,0,1,1.87-6.309A15.331,15.331,0,0,1,17.6,4.1C20.745,2,24.837,2.373,28.457,3.318a21.067,21.067,0,0,1,6.133,2.51,11.185,11.185,0,0,1,4.372,5.017,18.758,18.758,0,0,1,.947,7.072q.023,4.633.047,9.267c.009,1.789.053,3.7,1.033,5.172.665,1,1.719,1.719,2.184,2.836.737,1.773-.283,3.786-1.438,5.3a4.828,4.828,0,0,1-2.081,1.781,4.245,4.245,0,0,1-1.8.13,6.586,6.586,0,0,1-3.5-1.219,3.782,3.782,0,0,1-1.337-3.5C30.16,40.374,27.019,43.1,23.164,43.151ZM30.2,23.669c-1.414.282-3.149.3-4.562.58a13.444,13.444,0,0,0-4.255,1.356,4.85,4.85,0,0,0-2.513,3.618,6.768,6.768,0,0,0,.27,2.151A6.157,6.157,0,0,0,20.284,34a4.728,4.728,0,0,0,3.659,1.353c2.491-.012,5.159-1.244,6.13-3.628C31.054,29.311,29.755,26.248,30.2,23.669Z" transform="translate(1.398 0.115)"/>
      <path id="Path_22" data-name="Path 22" class="cls-21" d="M23.158,43.881a14.715,14.715,0,0,1-3.2-.444,16.234,16.234,0,0,1-3.022-.92,11.117,11.117,0,0,1-5.745-6.587,15.193,15.193,0,0,1-.1-8.876,9.782,9.782,0,0,1,1.653-3.49A10.476,10.476,0,0,1,16.4,20.847a28.8,28.8,0,0,1,10.975-2.972l.175-.011c1.22-.076,2.481-.154,3.226-.938.913-.959.677-2.625.534-3.3a4.137,4.137,0,0,0-.911-2c-1.082-1.155-2.973-1.042-4.663-.845-1.156.134-2.282.374-2.7,1.2a3.489,3.489,0,0,0-.221.686,6.189,6.189,0,0,1-.187.641c-.584,1.59-2.323,2.635-4.65,2.793a12.626,12.626,0,0,1-4.522-.513,2.039,2.039,0,0,1-1.082-.655,2.065,2.065,0,0,1-.364-1.089,10.259,10.259,0,0,1,2-6.759,16.063,16.063,0,0,1,3.366-3.386C20.143,1.851,23.85,1.572,28.7,2.837a21.421,21.421,0,0,1,6.3,2.585,11.816,11.816,0,0,1,4.605,5.3,19.367,19.367,0,0,1,.995,7.309l.047,9.265c.009,1.892.086,3.561.927,4.826a8.511,8.511,0,0,0,.87,1.04,6.444,6.444,0,0,1,1.369,1.9c.693,1.666.169,3.715-1.517,5.922a5.329,5.329,0,0,1-2.356,1.982,4.836,4.836,0,0,1-2.044.16,7.04,7.04,0,0,1-3.807-1.342,4.426,4.426,0,0,1-1.552-2.635c-2.725,2.479-5.7,4.683-9.271,4.728h-.1ZM27.48,9.432a4.89,4.89,0,0,1,3.766,1.337,5.315,5.315,0,0,1,1.217,2.595,4.868,4.868,0,0,1-.849,4.428c-1.062,1.118-2.622,1.215-4,1.3l-.174.011a27.671,27.671,0,0,0-10.533,2.852,9.452,9.452,0,0,0-3.259,2.39A8.558,8.558,0,0,0,12.224,27.4,13.9,13.9,0,0,0,12.3,35.52a9.883,9.883,0,0,0,5.1,5.865,15.1,15.1,0,0,0,2.8.848,13.721,13.721,0,0,0,3.044.417h0c3.587-.045,6.521-2.537,9.46-5.31a.571.571,0,0,1,.688-.08.62.62,0,0,1,.29.653A3.153,3.153,0,0,0,34.8,40.809a5.948,5.948,0,0,0,3.2,1.1,3.769,3.769,0,0,0,1.56-.1,4.315,4.315,0,0,0,1.8-1.58c.975-1.276,2-3.123,1.357-4.673a5.455,5.455,0,0,0-1.136-1.536,9.661,9.661,0,0,1-.991-1.2c-1.118-1.681-1.128-3.808-1.138-5.517l-.047-9.265a18.385,18.385,0,0,0-.9-6.833,10.622,10.622,0,0,0-4.14-4.738A20.3,20.3,0,0,0,28.4,4.031c-4.515-1.177-7.915-.951-10.388.7a14.914,14.914,0,0,0-3.087,3.127,9.023,9.023,0,0,0-1.741,5.858,1.033,1.033,0,0,0,.114.451,1.125,1.125,0,0,0,.488.239,11.4,11.4,0,0,0,4.114.466c.694-.047,3.005-.331,3.621-2a4.967,4.967,0,0,0,.147-.513,4.553,4.553,0,0,1,.317-.943c.761-1.52,2.688-1.745,3.614-1.853A16.607,16.607,0,0,1,27.48,9.432Z" transform="translate(1.306 0)"/>
      <path id="Path_23" data-name="Path 23" class="cls-21" d="M22.765,32.138a5.282,5.282,0,0,1-4.056-1.556A6.75,6.75,0,0,1,17.435,27.7a7.288,7.288,0,0,1-.285-2.355,5.412,5.412,0,0,1,2.811-4.1A13.931,13.931,0,0,1,24.4,19.818c.735-.145,1.549-.224,2.335-.3.761-.073,1.548-.146,2.227-.282a.574.574,0,0,1,.528.167.632.632,0,0,1,.167.546,12.267,12.267,0,0,0,.079,3.357,9.861,9.861,0,0,1-.249,4.826c-1.12,2.748-4.16,3.99-6.674,4Zm5.628-11.563c-.51.071-1.038.121-1.555.17-.758.073-1.542.146-2.219.282a13.027,13.027,0,0,0-4.075,1.289,4.305,4.305,0,0,0-2.214,3.133,6.247,6.247,0,0,0,.253,1.948A5.618,5.618,0,0,0,19.59,29.76a4.3,4.3,0,0,0,3.216,1.15c2.127-.011,4.679-1.019,5.589-3.252a8.838,8.838,0,0,0,.163-4.207A17.216,17.216,0,0,1,28.393,20.576Z" transform="translate(2.532 3.943)"/>
      <path id="Path_24" data-name="Path 24" class="cls-22" d="M3.883,36.757a68.582,68.582,0,0,0,19.331,5.371c6.741.915,13.97.622,20.268-2.04a23.006,23.006,0,0,1,3.885-1.471c.335.532-.212,1.182-.712,1.548A31.462,31.462,0,0,1,28.7,46.277,33.274,33.274,0,0,1,9.847,41.212C7.823,39.894,6,37.914,3.883,36.757Z" transform="translate(0.092 7.968)"/>
      <path id="Path_25" data-name="Path 25" class="cls-21" d="M27.789,47.022A33.469,33.469,0,0,1,9.624,41.849a29.269,29.269,0,0,1-2.639-2.026A21.869,21.869,0,0,0,3.7,37.416a.629.629,0,0,1-.258-.81.587.587,0,0,1,.77-.3,68.169,68.169,0,0,0,19.171,5.326c7.548,1.028,14.45.333,19.968-2,.27-.114.538-.231.806-.349a17.259,17.259,0,0,1,3.178-1.153.589.589,0,0,1,.618.266c.459.728.121,1.665-.864,2.386A31.844,31.844,0,0,1,28.81,47.01C28.47,47.017,28.129,47.022,27.789,47.022ZM8.184,39.241a23.171,23.171,0,0,0,2.07,1.565A32.393,32.393,0,0,0,28.78,45.778a30.7,30.7,0,0,0,17.626-6,2.279,2.279,0,0,0,.207-.171c-.663.225-1.314.512-1.994.809-.274.121-.547.24-.821.355-5.708,2.411-12.819,3.127-20.567,2.079A72.289,72.289,0,0,1,8.184,39.241Z" transform="translate(0 7.854)"/>
      <path id="Path_26" data-name="Path 26" class="cls-22" d="M45.507,34.92c-1.928-.582-4.538-.065-6.684.658-.41.138-.9.424-.84.867.064.505.726.589,1.215.557a21.352,21.352,0,0,1,3.034.016,1.5,1.5,0,0,1,1.221.514,1.356,1.356,0,0,1,.162.783,8.71,8.71,0,0,1-.844,2.816,1.283,1.283,0,0,0-.121.816.83.83,0,0,0,1.066.459,2.216,2.216,0,0,0,.973-.842A8.816,8.816,0,0,0,46.7,36.407,1.688,1.688,0,0,0,45.507,34.92Z" transform="translate(6.37 7.489)"/>
      <path id="Path_27" data-name="Path 27" class="cls-21" d="M43.516,43.184a1.5,1.5,0,0,1-.715-.178,1.277,1.277,0,0,1-.625-.764,1.888,1.888,0,0,1,.14-1.228l.187-.462a6.459,6.459,0,0,0,.613-2.143.734.734,0,0,0-.062-.418c-.123-.193-.613-.231-.773-.242a20.736,20.736,0,0,0-2.951-.017c-1.063.07-1.744-.337-1.841-1.089-.084-.669.38-1.242,1.245-1.533,1.989-.67,4.822-1.329,7.031-.664h0a2.263,2.263,0,0,1,1.622,2.078,9.291,9.291,0,0,1-2.142,5.537,2.734,2.734,0,0,1-1.255,1.048A1.507,1.507,0,0,1,43.516,43.184Zm-2.829-6.729c.561,0,1.123.022,1.68.065a2.066,2.066,0,0,1,1.67.788,1.935,1.935,0,0,1,.262,1.147,7.482,7.482,0,0,1-.708,2.579l-.18.446a.906.906,0,0,0-.1.4.331.331,0,0,0,.319.054,1.744,1.744,0,0,0,.687-.636,8.088,8.088,0,0,0,1.891-4.78c0-.625-.764-.9-.771-.9-1.5-.448-3.744-.22-6.335.653a1.08,1.08,0,0,0-.427.234,1.706,1.706,0,0,1,.417,0c.052,0,.108,0,.167-.006C39.729,36.473,40.207,36.455,40.687,36.455Z" transform="translate(6.278 7.374)"/>
    </g>
    <g id="tata-cliq-vector-logo" transform="translate(823.8 1747.573)">
      <g id="Group_8" data-name="Group 8">
        <path id="Path_59" data-name="Path 59" d="M-111.8,72v3.725h2.98V84.8h4.147V75.725h2.98V72Zm13.447,0-4.211,12.8h4.2l2.285-7.75,2.3,7.741h4.195L-93.774,72Zm7.91,0v3.725h2.972V84.8h4.147V75.725h2.98V72ZM-77,72l-4.219,12.8h4.211l2.293-7.741,2.293,7.741h4.2l-4.2-12.8Zm-34.8,32c0-8.651,3.979-12.807,10.93-12.807,4.219,0,6.983,1.755,8.414,3.941a2.094,2.094,0,0,1,.384,1.2,1.911,1.911,0,0,1-1.886,1.933,1.889,1.889,0,0,1-1.43-.732,6.574,6.574,0,0,0-5.481-2.552c-4.642,0-6.744,2.993-6.744,9.017,0,6.39,2.093,8.979,6.744,8.979a6.669,6.669,0,0,0,5.657-2.411,2.058,2.058,0,0,1,1.5-.8,1.92,1.92,0,0,1,1.886,1.97,1.878,1.878,0,0,1-.352,1.1,10.705,10.705,0,0,1-8.693,3.941c-6.951,0-10.93-3.837-10.93-12.779m32.759,8.716a1.831,1.831,0,0,1,1.742,1.923v.1a1.839,1.839,0,0,1-1.742,2.036h-9.2a1.9,1.9,0,0,1-1.774-2.1V93.374A2.017,2.017,0,0,1-88.205,91.2a2.011,2.011,0,0,1,1.8,2.177v19.347Zm9,1.8a2.078,2.078,0,0,1-1.814,2.261,2.078,2.078,0,0,1-1.814-2.261V99.848a2.078,2.078,0,0,1,1.814-2.261,2.072,2.072,0,0,1,1.814,2.261Zm25.352,4.391a1.741,1.741,0,0,1-1.326-.647l-2.533-2.984-.735.525a5.169,5.169,0,0,1-.463.31l-.064.038a10.767,10.767,0,0,1-3.572,1.379,9.43,9.43,0,0,1-1.7.16,10.22,10.22,0,0,1-2.812-.4,11.11,11.11,0,0,1-3.923-2.2,12.355,12.355,0,0,1-2.94-3.744c-.2-.375-.384-.76-.551-1.163a14.792,14.792,0,0,1-.935-3.5l-.016-.122-.024-.141-.024-.216a16.011,16.011,0,0,1-.1-1.755,15.206,15.206,0,0,1,.352-3.246,14.512,14.512,0,0,1,1.9-4.6,12.242,12.242,0,0,1,3.236-3.443,10.039,10.039,0,0,1,1.55-.938,10.509,10.509,0,0,1,2.669-.882,9.5,9.5,0,0,1,4.554.3l.032.009q.18.056.336.113l.04.009a11.65,11.65,0,0,1,5.825,5,9.014,9.014,0,0,1,.439.807,14.445,14.445,0,0,1,1.286,3.594,13.585,13.585,0,0,1,.256,1.614,16.72,16.72,0,0,1-.248,4.888,14.684,14.684,0,0,1-1.278,3.622l-.439.854,2.541,2.993a2.468,2.468,0,0,1,0,3.124,1.774,1.774,0,0,1-1.326.638m-10.3-24.095a6.909,6.909,0,0,0-1.238.113,7.818,7.818,0,0,0-3.108,1.314l-.024.019a9.438,9.438,0,0,0-2.325,2.524,9.921,9.921,0,0,0-1.374,3.35,10.072,10.072,0,0,0-.176,3.725,10.113,10.113,0,0,0,1.111,3.547,8.963,8.963,0,0,0,2.141,2.712,7.208,7.208,0,0,0,8.054,1.182,8.4,8.4,0,0,0,3.428-3.209,9.94,9.94,0,0,0,1.326-3.331,11.778,11.778,0,0,0,.16-3.772,10.155,10.155,0,0,0-3.18-6.3,7.225,7.225,0,0,0-4.794-1.877"/>
        <path id="Path_60" data-name="Path 60" class="cls-23" d="M349.85,258.337a2.987,2.987,0,0,1,0,3.744,2.028,2.028,0,0,1-3.188,0l-2.757-3.246a2.974,2.974,0,0,1,.088-3.734,2.02,2.02,0,0,1,3.1,0l2.757,3.237Z" transform="translate(-418.727 -165.263)"/>
      </g>
    </g>
    <g id="iconfinder_flipkart_1220366" transform="translate(648 1819.573)">
      <path id="Path_28" data-name="Path 28" class="cls-24" d="M.021,16.343q0-.633-.008-1.265T.007,13.813q0-.632,0-1.265t0-1.265Q0,9.912,0,8.541t0-2.742q0-1.371.007-2.742T.021.314H15.855c.06,0,.125.006.189.008A.7.7,0,0,0,16.23.31a.269.269,0,0,0,.15-.089A.42.42,0,0,0,16.463,0l.14.1.138.1.138.1.14.1a18.34,18.34,0,0,0,1.924,1.219,16.554,16.554,0,0,0,2.031.943,15.658,15.658,0,0,0,2.139.65,15.659,15.659,0,0,0,2.248.341,17.851,17.851,0,0,0,2.137.045,16.465,16.465,0,0,0,2.1-.217,15.808,15.808,0,0,0,2.053-.49,15.9,15.9,0,0,0,2-.774.289.289,0,0,0,.089.155.221.221,0,0,0,.128.046.9.9,0,0,0,.148-.007.719.719,0,0,1,.148,0c.068.005.137.006.2.008a1.511,1.511,0,0,1,.2.016.58.58,0,0,1,.183.059.477.477,0,0,1,.158.137l-.024.027-.025.03a.3.3,0,0,1-.027.028.137.137,0,0,1-.03.021A15.859,15.859,0,0,0,32.8,4.328a15.178,15.178,0,0,0-1.642,1.964,15.923,15.923,0,0,0-1.3,2.209,18.121,18.121,0,0,0-.968,2.446c-.139.443-.257.889-.362,1.338s-.2.9-.285,1.352-.171.9-.258,1.356-.177.9-.279,1.35l-.143,0-.145,0-.145,0-.143,0-6.776.006-6.778,0H.021Z" transform="translate(0.01 19.501)"/>
      <path id="Path_29" data-name="Path 29" class="cls-25" d="M.031,8.187q0-.974-.006-1.949T.02,4.289q0-.974-.007-1.949T0,.392A.774.774,0,0,1,.019.2.283.283,0,0,1,.084.077.232.232,0,0,1,.2.011.551.551,0,0,1,.388,0c.026,0,.052,0,.079,0H.545l.079,0h51.5c.2,0,.338-.005.44,0a.288.288,0,0,1,.2.057.3.3,0,0,1,.054.2c0,.1,0,.245,0,.441q0,1.183,0,2.367t0,2.369q0,1.184-.007,2.369t-.008,2.367c-.768.016-1.535.016-2.3.01s-1.535-.016-2.3-.021-1.534-.005-2.3.01-1.532.047-2.3.1c.005-.029.011-.058.017-.088l.019-.09.019-.09c.006-.03.012-.059.017-.088a6.457,6.457,0,0,0,.151-1.16,5.358,5.358,0,0,0-.075-1.119,4.99,4.99,0,0,0-.315-1.072,5.356,5.356,0,0,0-.568-1.018,3.261,3.261,0,0,0-.995-.94,2.5,2.5,0,0,0-1.155-.352,2.539,2.539,0,0,0-1.188.239,3.358,3.358,0,0,0-1.095.833,3.857,3.857,0,0,0-.451.619,4.393,4.393,0,0,0-.319.672,5.9,5.9,0,0,0-.217.715c-.059.245-.105.495-.144.749H15.865q-.035-.291-.1-.57a5.363,5.363,0,0,0-.152-.548,5.107,5.107,0,0,0-.211-.529,5.171,5.171,0,0,0-.274-.511,3.616,3.616,0,0,0-1.16-1.225,2.7,2.7,0,0,0-2.823-.073A3.631,3.631,0,0,0,9.924,5.8a4.18,4.18,0,0,0-.318.565,4.97,4.97,0,0,0-.23.591c-.064.2-.117.406-.163.613s-.084.418-.118.63L6.831,8.191l-2.267,0H.031Z"/>
      <path id="Path_30" data-name="Path 30" class="cls-26" d="M.031,0h27.12l.143,0,.145,0,.145,0,.143,0q-.02.118-.041.234t-.043.232q-.022.116-.043.232T27.56.943l-.022.039-.02.039-.02.039-.022.039c-.047,0-.094.007-.141.011l-.141.014-.141.012c-.047,0-.094.005-.141.005H24.033q-.72,0-1.441,0t-1.444.01l-1.012.007c-.337,0-.674.008-1.011.019s-.675.026-1.013.05-.678.057-1.018.1q-.664.086-1.33.161t-1.333.143l-1.335.135q-.668.067-1.336.137c-.165.024-.331.041-.5.056s-.334.031-.5.05-.332.042-.5.075a3.394,3.394,0,0,0-.486.133q.884.153,1.768.3t1.767.284l1.765.276,1.762.274c.272.042.459.057.591.074a.467.467,0,0,1,.264.085.551.551,0,0,1,.125.267c.039.139.086.336.173.622a.706.706,0,0,1,.03.162.16.16,0,0,1-.025.1.163.163,0,0,1-.088.056.734.734,0,0,1-.158.026q-.267.016-.534.037t-.534.045l-.534.048-.534.048-.582.055-.582.055-.582.055-.582.055q.558.114,1.114.216t1.111.192q.555.09,1.109.169t1.108.145a1.529,1.529,0,0,1,.32.071.663.663,0,0,1,.229.132.6.6,0,0,1,.148.217,1.228,1.228,0,0,1,.078.324,1.246,1.246,0,0,1,.009.193.227.227,0,0,1-.035.12.172.172,0,0,1-.1.063.758.758,0,0,1-.18.022q-1.037.051-2.077.106l-2.078.11-2.078.112-2.077.111-1.413.079-1.411.079-1.411.079-1.413.079c-.031,0-.063,0-.093.007a.306.306,0,0,0-.085.02A.168.168,0,0,0,4,7.844a.271.271,0,0,0-.046.108l1.476.057L6.9,8.067l1.471.059,1.47.057,1.817.074,1.819.076q.91.037,1.819.072t1.817.062c.341.01.68.026,1.02.041s.679.03,1.018.041.679.016,1.018.013.68-.016,1.02-.042q.275.024.55.035t.551.012q.276,0,.553-.012t.556-.035l.692.017.692.019.692.019.692.017-.1.629q-.051.314-.1.629t-.105.629q-.053.314-.108.629L25.5,12.566q-.126.731-.253,1.461t-.255,1.461q-.128.731-.258,1.461l-1.258,0-1.258,0-1.257,0-1.258,0H.576c-.084,0-.162,0-.232,0a.452.452,0,0,1-.182-.047.267.267,0,0,1-.12-.139A.745.745,0,0,1,0,16.49q0-2.031.006-4.066t0-4.07q0-2.036,0-4.072T.01.21c0-.018,0-.036,0-.053s0-.034,0-.051,0-.034.007-.051Z" transform="translate(0 35.844)"/>
      <path id="Path_31" data-name="Path 31" class="cls-26" d="M17.909,0q0,.986.008,1.974t.007,1.976q0,.988,0,1.976t0,1.974q0,.609,0,1.218t0,1.217q0,.608,0,1.215t.006,1.212a1.184,1.184,0,0,1-.012.192.318.318,0,0,1-.052.138.234.234,0,0,1-.117.083.635.635,0,0,1-.206.027L13.2,13.192l-4.355-.007-4.357,0-4.36,0-.031-.022-.031-.02-.031-.02L0,13.1l.071-.5q.036-.248.072-.495t.074-.495q.038-.248.077-.5c.079-.32.144-.642.2-.965S.6,9.5.654,9.176.75,8.525.8,8.2s.107-.649.173-.971q.051-.259.1-.519t.1-.52q.05-.26.1-.522t.086-.525a.739.739,0,0,1,.045-.177.294.294,0,0,1,.078-.113.29.29,0,0,1,.122-.06.723.723,0,0,1,.175-.018c.16,0,.32,0,.479,0s.32,0,.479-.009l.479-.013L3.7,4.746l.442.007.444.007q.222,0,.444.01t.442.018A2.99,2.99,0,0,0,6.347,4.7a2.344,2.344,0,0,0,.721-.322,2.584,2.584,0,0,0,.58-.54A3.723,3.723,0,0,0,8.1,3.1a6.4,6.4,0,0,0,.294-.751c.082-.254.15-.512.208-.772s.107-.522.151-.786S8.837.265,8.876,0h9.033Z" transform="translate(34.896 39.615)"/>
      <path id="Path_32" data-name="Path 32" class="cls-27" d="M15.132,15.39H6.1c-.013-.144-.016-.289-.017-.435s0-.29-.01-.434a2.341,2.341,0,0,0-.059-.424,1.456,1.456,0,0,0-.165-.405,1.422,1.422,0,0,0-.254-.443,1.208,1.208,0,0,0-.354-.281,1.594,1.594,0,0,0-.433-.149,2.69,2.69,0,0,0-.49-.048q-.538-.008-1.078-.01t-1.08,0H0c.052-.223.095-.447.132-.673s.07-.453.1-.68.064-.455.1-.682.077-.454.127-.679.1-.43.147-.645.1-.431.143-.648S.836,8.32.868,8.1s.054-.44.065-.662A.21.21,0,0,0,1,7.413a.2.2,0,0,0,.048-.041.242.242,0,0,0,.035-.052A.3.3,0,0,0,1.1,7.26,6.146,6.146,0,0,1,1.326,6.6c.086-.213.183-.421.288-.625s.217-.4.335-.6.241-.389.367-.581a7.082,7.082,0,0,1,.647-.664,6.137,6.137,0,0,1,.719-.556,5.641,5.641,0,0,1,1.673-.749c.194-.05.389-.088.585-.119s.393-.052.591-.067.4-.026.6-.032.4-.01.6-.012c.215.013.429.02.642.018S8.791,2.6,9,2.585A6.26,6.26,0,0,0,9.63,2.5a5.515,5.515,0,0,0,.619-.159,2.176,2.176,0,0,0,.483-.2,1.152,1.152,0,0,0,.328-.285,1.156,1.156,0,0,0,.193-.391,2.2,2.2,0,0,0,.076-.523c0-.079,0-.157,0-.236S11.32.54,11.315.462,11.3.307,11.3.23s-.01-.154-.012-.23h3.846q0,.483.008.966t.007.966q0,.483,0,.966t0,.966V14.782c0,.047,0,.1,0,.145s0,.1,0,.151,0,.1-.007.155S15.135,15.337,15.132,15.39Z" transform="translate(37.673 24.226)"/>
      <path id="Path_33" data-name="Path 33" class="cls-28" d="M19.156,14.058H15.31q-.027-.126-.054-.253L15.2,13.55q-.027-.128-.055-.255t-.059-.253c-.063-.246-.117-.5-.172-.744s-.114-.5-.185-.739a4.727,4.727,0,0,0-.266-.71,3.187,3.187,0,0,0-.414-.656.366.366,0,0,0-.025-.03L14,10.134l-.027-.028a.372.372,0,0,1-.025-.03h0l-.041-.039L13.864,10l-.043-.039L13.78,9.92h0a1.726,1.726,0,0,0-.206-.162,1.945,1.945,0,0,0-.222-.129,2.411,2.411,0,0,0-.236-.1c-.081-.03-.163-.056-.247-.08A8.526,8.526,0,0,0,11.432,9.2,10.864,10.864,0,0,0,10,9.165c-.477.02-.955.065-1.432.127s-.954.138-1.431.219a15.481,15.481,0,0,0-1.56.353,15.093,15.093,0,0,0-2.942,1.174,15.524,15.524,0,0,0-1.377.819.507.507,0,0,0-.163-.137.6.6,0,0,0-.185-.059,1.5,1.5,0,0,0-.2-.016c-.066,0-.133,0-.2-.008a.88.88,0,0,0-.144.009.787.787,0,0,1-.149.007.23.23,0,0,1-.131-.048A.293.293,0,0,1,0,11.449L.079,11.4l.08-.044.082-.044.085-.046A19.251,19.251,0,0,0,3.076,9.528,14.752,14.752,0,0,0,5.346,7.388,12.97,12.97,0,0,0,7.067,4.8,13.738,13.738,0,0,0,8.174,1.706a2.7,2.7,0,0,0,.582-.247A2.586,2.586,0,0,0,9.236,1.1,2.974,2.974,0,0,0,9.628.65,3.927,3.927,0,0,0,9.945.114c.765-.055,1.531-.085,2.3-.1S13.774,0,14.541,0s1.534.014,2.3.018,1.535,0,2.3-.012q0,.978.008,1.956t.007,1.956q0,.978,0,1.956t0,1.956q0,.782,0,1.562t0,1.558q0,.778-.006,1.554T19.156,14.058Z" transform="translate(33.649 10.158)"/>
      <path id="Path_34" data-name="Path 34" class="cls-29" d="M.021,0H9.1q0,.137.006.275t0,.274q0,.137,0,.272t.006.269a4.206,4.206,0,0,0,.172,1.055A2.136,2.136,0,0,0,9.7,2.91a2.182,2.182,0,0,0,.7.525,4.407,4.407,0,0,0,1.02.337,6.188,6.188,0,0,0,.161.844,7.509,7.509,0,0,0,.263.807c.1.264.217.523.342.778s.258.507.4.755a11.423,11.423,0,0,0,.806,1.232,14.113,14.113,0,0,0,.936,1.12c.33.357.677.7,1.034,1.034s.726.656,1.1.973a.418.418,0,0,1-.082.217.27.27,0,0,1-.148.089.693.693,0,0,1-.185.015c-.065,0-.131-.007-.194-.007H.021q0-1.147-.006-2.294t0-2.294q0-1.147,0-2.294T0,2.451q0-.306,0-.613t0-.613Q.01.919.013.613T.021,0Z" transform="translate(0.01 8.187)"/>
      <path id="Path_35" data-name="Path 35" class="cls-11" d="M9.2,2.944l-.071.5q-.036.248-.072.495t-.074.495q-.038.248-.077.5a.132.132,0,0,0-.021.018.1.1,0,0,0-.015.02.063.063,0,0,0-.008.022.053.053,0,0,0,0,.023H5.585a.327.327,0,0,0-.014-.143.179.179,0,0,0-.065-.084.374.374,0,0,0-.1-.049c-.04-.013-.084-.024-.132-.037-.432-.12-.861-.249-1.285-.392s-.841-.3-1.251-.47-.812-.363-1.2-.576a11.264,11.264,0,0,1-1.143-.71A.45.45,0,0,0,.3,2.5a.968.968,0,0,0-.1-.034L.1,2.438C.065,2.429.031,2.42,0,2.41.016,2.205.033,2,.055,1.8S.1,1.391.136,1.189s.072-.4.12-.6S.361.194.43,0L.549.077l.12.076C.709.179.749.2.788.231S.865.285.9.314A11.5,11.5,0,0,0,1.84,1a11.237,11.237,0,0,0,.994.581,11.349,11.349,0,0,0,1.049.476q.538.212,1.1.373.519.141,1.041.245t1.049.169q.527.065,1.057.09T9.2,2.944Z" transform="translate(25.978 47.787)"/>
      <path id="Path_36" data-name="Path 36" class="cls-12" d="M.482,0c.031.01.065.02.1.029l.1.028a.968.968,0,0,1,.1.034A.45.45,0,0,1,.87.136,11.423,11.423,0,0,0,2.013.847c.392.214.794.405,1.2.579s.828.329,1.251.471.852.269,1.285.387c.047.013.092.024.133.037a.389.389,0,0,1,.107.049.173.173,0,0,1,.065.084.3.3,0,0,1,.009.143H.094L.071,2.576l-.024-.02-.024-.02L0,2.514c.031-.21.061-.42.092-.63s.062-.421.1-.631S.266.833.314.624.417.207.482,0Z" transform="translate(25.496 50.186)"/>
      <path id="Path_37" data-name="Path 37" class="cls-13" d="M1.258,5.868c-.066.2-.121.411-.168.62S1,6.907.965,7.118s-.068.424-.1.637-.06.425-.092.638a.207.207,0,0,0-.006.022.177.177,0,0,0,0,.02c0,.007,0,.013,0,.02s0,.014,0,.022H0q.126-.731.253-1.461T.508,5.553q.128-.731.255-1.461t.253-1.461q.055-.314.108-.629t.105-.629q.052-.314.1-.629l.1-.629a2.759,2.759,0,0,1,.435-.11A.3.3,0,0,1,2.1.043a.275.275,0,0,1,.072.218,2.542,2.542,0,0,1-.048.432c-.039.23-.083.46-.126.69s-.088.459-.129.689-.08.46-.112.691-.057.463-.073.7c-.068.194-.125.39-.173.589s-.087.4-.12.6-.059.4-.081.608S1.273,5.663,1.258,5.868Z" transform="translate(24.72 44.318)"/>
      <path id="Path_38" data-name="Path 38" class="cls-11" d="M0,.084A.154.154,0,0,1,0,.062c0-.007,0-.013,0-.02s0-.013,0-.02A.154.154,0,0,0,.01,0L.034.022l.024.02.024.02L.1.084H0Z" transform="translate(25.485 52.711)"/>
      <path id="Path_39" data-name="Path 39" class="cls-25" d="M0,.084A.182.182,0,0,1,0,.055.1.1,0,0,1,.009.03.057.057,0,0,1,.022.012.053.053,0,0,1,.042,0L.073.022.1.042l.031.02L.168.084H0Z" transform="translate(34.843 52.711)"/>
      <path id="Path_40" data-name="Path 40" class="cls-14" d="M5.04,8.056c-.375-.317-.743-.64-1.1-.973s-.7-.676-1.034-1.034a14.11,14.11,0,0,1-.936-1.12A11.423,11.423,0,0,1,1.163,3.7c-.141-.249-.276-.5-.4-.755S.522,2.429.42,2.165A7.46,7.46,0,0,1,.16,1.357,6.313,6.313,0,0,1,0,.513l0,0L.01.5.018.5l0,0H.052L.145.5.236.5l.091,0L.419.513a.215.215,0,0,1,.1.045.251.251,0,0,1,.06.076A.827.827,0,0,1,.62.725.827.827,0,0,0,.66.817c.071.131.14.263.208.394s.137.263.206.393.14.26.214.387.15.253.232.376A16.718,16.718,0,0,0,4.962,6.146a16.66,16.66,0,0,0,4.32,2.519,16.447,16.447,0,0,0,4.867,1.114,16.24,16.24,0,0,0,5.081-.435,17.264,17.264,0,0,0,3.582-1.3,14.6,14.6,0,0,0,3.007-1.993,14.581,14.581,0,0,0,2.421-2.681A17.22,17.22,0,0,0,30.065,0l.071,0,.071,0,.071,0,.071,0c0,.034.006.068.009.1s.008.068.011.1.008.068.011.1.007.068.01.1a13.738,13.738,0,0,1-1.107,3.093A12.97,12.97,0,0,1,27.562,6.1,14.751,14.751,0,0,1,25.292,8.24a19.251,19.251,0,0,1-2.752,1.743l-.079.041-.08.044-.082.046-.085.047a16.254,16.254,0,0,1-2.005.768,16.056,16.056,0,0,1-2.053.488,16.673,16.673,0,0,1-2.1.219,18.1,18.1,0,0,1-2.135-.039,15.66,15.66,0,0,1-2.248-.341,15.658,15.658,0,0,1-2.139-.65,16.555,16.555,0,0,1-2.031-.943A18.336,18.336,0,0,1,5.585,8.444l-.134-.094-.135-.1-.137-.1Z" transform="translate(11.433 11.445)"/>
      <path id="Path_41" data-name="Path 41" class="cls-13" d="M23.148,2.7a15.067,15.067,0,0,1,1.377-.823,14.84,14.84,0,0,1,1.441-.664,15.056,15.056,0,0,1,1.5-.507,15.707,15.707,0,0,1,1.56-.352C29.5.275,29.977.2,30.453.137S31.407.03,31.885.011a10.9,10.9,0,0,1,1.436.03,8.527,8.527,0,0,1,1.438.252c.084.024.166.049.247.078a2.355,2.355,0,0,1,.236.1A1.786,1.786,0,0,1,35.465.6a1.574,1.574,0,0,1,.206.166c-.134-.029-.267-.063-.4-.1S35,.595,34.869.561,34.6.5,34.469.47a3.226,3.226,0,0,0-.4-.051Q33.29.376,32.516.379T30.972.44Q30.2.5,29.439.619T27.916.932c-.385.1-.764.208-1.136.334s-.736.27-1.092.432a10.391,10.391,0,0,0-1.039.544,9.49,9.49,0,0,0-.977.67,11.036,11.036,0,0,0-1.151.837A11.667,11.667,0,0,0,21.5,4.71a12.97,12.97,0,0,0-.909,1.073q-.427.563-.8,1.173c-.084.139-.17.276-.256.414s-.17.276-.251.417-.157.284-.225.431a3.78,3.78,0,0,0-.179.456q-.24.5-.446,1.016t-.377,1.036q-.171.523-.306,1.058t-.233,1.081l-.025.047-.025.047a.5.5,0,0,0-.021.047.253.253,0,0,0-.013.047l-.22,1.24q-.11.619-.218,1.238t-.214,1.238q-.106.619-.208,1.24a1.215,1.215,0,0,1-.062.244.459.459,0,0,1-.107.167.383.383,0,0,1-.171.093.84.84,0,0,1-.257.02c-.134-.005-.268-.007-.4-.007s-.27,0-.4,0l-.4.009c-.135,0-.269,0-.4,0H12.313l-1.022,0-1.022-.006H9.222l-.523,0-.525-.006L6.28,18.516l-1.893,0-1.891,0L.608,18.5c-.05,0-.1,0-.152.006s-.1.005-.155,0a.65.65,0,0,1-.153-.022A.463.463,0,0,1,0,18.417q.668-.075,1.336-.142l1.335-.135Q3.338,18.073,4,18t1.33-.159c.341-.045.68-.077,1.018-.1s.676-.04,1.013-.05.674-.016,1.011-.019l1.012-.007q.719-.008,1.438-.009t1.439,0l1.441,0q.721,0,1.444,0c.047,0,.094,0,.141,0l.141-.01.141-.013.141-.015a.138.138,0,0,0,.054-.023.08.08,0,0,0,.027-.036.128.128,0,0,0,.007-.046.378.378,0,0,0,0-.053q.02-.118.041-.234t.043-.232q.022-.116.043-.232t.041-.234c.1-.448.189-.9.275-1.35s.17-.9.258-1.356.182-.9.288-1.352.224-.9.363-1.338a17.829,17.829,0,0,1,.963-2.446,15.814,15.814,0,0,1,1.3-2.209,15.186,15.186,0,0,1,1.644-1.964A15.93,15.93,0,0,1,23.065,2.8l.018-.019.02-.024.022-.026Z" transform="translate(11.768 19.323)"/>
      <path id="Path_42" data-name="Path 42" class="cls-29" d="M1.123,0h21.43c0,.1,0,.193,0,.289s0,.192,0,.287,0,.191,0,.287.007.192.015.289a5.637,5.637,0,0,0,.079.641,3.25,3.25,0,0,0,.171.6,2.3,2.3,0,0,0,.3.541,2.167,2.167,0,0,0,.474.458.374.374,0,0,1,.12.134.238.238,0,0,1,.022.135A.481.481,0,0,1,23.7,3.8c-.02.046-.045.092-.069.14a12.693,12.693,0,0,1-.766,1.277,12.187,12.187,0,0,1-.9,1.159,12.2,12.2,0,0,1-1.03,1.041,12.712,12.712,0,0,1-1.161.923,13.623,13.623,0,0,1-3.71,1.851,13.075,13.075,0,0,1-3.965.618,13.288,13.288,0,0,1-3.986-.614A14.207,14.207,0,0,1,4.34,8.35a15.108,15.108,0,0,1-1.246-.944A13.666,13.666,0,0,1,1.97,6.345,12.845,12.845,0,0,1,.979,5.16,12.631,12.631,0,0,1,.127,3.845a1.293,1.293,0,0,1-.094-.192A.456.456,0,0,1,0,3.478a.335.335,0,0,1,.052-.167.659.659,0,0,1,.159-.169A1.688,1.688,0,0,0,.483,2.88a2.091,2.091,0,0,0,.211-.309,3.008,3.008,0,0,0,.163-.343c.048-.118.091-.24.13-.363a2.561,2.561,0,0,0,.095-.459A4.588,4.588,0,0,0,1.11.94c0-.156,0-.312,0-.469S1.112.157,1.123,0Z" transform="translate(14.743 8.082)"/>
      <path id="Path_43" data-name="Path 43" class="cls-15" d="M6.738,3.831c-.008.157-.009.314-.008.471s0,.313,0,.469a4.544,4.544,0,0,1-.031.465,2.64,2.64,0,0,1-.1.459c-.039.123-.081.245-.129.363a2.964,2.964,0,0,1-.161.343,2,2,0,0,1-.21.309,1.634,1.634,0,0,1-.276.263.649.649,0,0,0-.163.169.323.323,0,0,0-.051.167.458.458,0,0,0,.035.174,1.4,1.4,0,0,0,.1.192A12.783,12.783,0,0,0,6.6,8.989a13.068,13.068,0,0,0,.994,1.182,14.053,14.053,0,0,0,1.121,1.06q.591.5,1.24.948a14.177,14.177,0,0,0,3.775,1.843,13.29,13.29,0,0,0,3.986.611,13.111,13.111,0,0,0,3.965-.618,13.669,13.669,0,0,0,3.71-1.846,12.71,12.71,0,0,0,1.161-.923,12.158,12.158,0,0,0,1.929-2.2,12.7,12.7,0,0,0,.766-1.277c.026-.047.053-.094.075-.14a.448.448,0,0,0,.043-.137.229.229,0,0,0-.024-.135.385.385,0,0,0-.126-.134,2.184,2.184,0,0,1-.48-.456,2.246,2.246,0,0,1-.3-.539,3.12,3.12,0,0,1-.169-.6,5.376,5.376,0,0,1-.074-.645c-.008-.094-.012-.189-.015-.285s0-.191,0-.288,0-.193,0-.29,0-.194,0-.291c.039-.251.086-.5.146-.744a6.011,6.011,0,0,1,.22-.716,4.541,4.541,0,0,1,.32-.675,3.934,3.934,0,0,1,.447-.621A3.357,3.357,0,0,1,30.395.242,2.539,2.539,0,0,1,31.583,0a2.5,2.5,0,0,1,1.155.352,3.261,3.261,0,0,1,.995.94,5.409,5.409,0,0,1,.57,1.018,4.988,4.988,0,0,1,.317,1.072A5.281,5.281,0,0,1,34.695,4.5a6.284,6.284,0,0,1-.155,1.16c-.005.029-.011.058-.017.088l-.019.09-.019.09c-.006.03-.012.059-.017.088a4.093,4.093,0,0,1-.322.536,3.062,3.062,0,0,1-.394.453,2.615,2.615,0,0,1-.479.356,2.681,2.681,0,0,1-.576.247c0-.034-.006-.068-.01-.1s-.008-.068-.011-.1-.008-.068-.011-.1-.007-.068-.01-.1c.134-.081.267-.162.395-.248a3.666,3.666,0,0,0,.367-.277,2.241,2.241,0,0,0,.316-.334,1.884,1.884,0,0,0,.242-.419,3.648,3.648,0,0,0,.258-1.2,5.286,5.286,0,0,0-.1-1.325,5.217,5.217,0,0,0-.419-1.258,3.536,3.536,0,0,0-.7-1,2.609,2.609,0,0,0-.773-.514,2.111,2.111,0,0,0-.829-.171,2.021,2.021,0,0,0-.819.177,2.384,2.384,0,0,0-.744.529,4.229,4.229,0,0,0-.661.88,4.14,4.14,0,0,0-.39.964,5.009,5.009,0,0,0-.158,1.035,6.978,6.978,0,0,0,.035,1.092c.013.136.031.27.056.4a2.683,2.683,0,0,0,.1.384,2.017,2.017,0,0,0,.167.36,1.847,1.847,0,0,0,.251.331,1.28,1.28,0,0,0,.172.156.239.239,0,0,0,.142.055.156.156,0,0,0,.119-.077.8.8,0,0,0,.1-.239q.055-.185.1-.368t.084-.368q.037-.185.065-.372t.043-.38a1.43,1.43,0,0,1,.133-.5,1.2,1.2,0,0,1,.707-.624,1.445,1.445,0,0,1,.522-.07,1.491,1.491,0,0,1,.518.11,1.191,1.191,0,0,1,.4.268,1.226,1.226,0,0,1,.259.4,1.571,1.571,0,0,1,.105.517,2.915,2.915,0,0,1-.027.524c-.023.172-.058.341-.1.51s-.081.337-.119.506-.071.339-.092.512a17.22,17.22,0,0,1-1.826,3.366,14.581,14.581,0,0,1-2.421,2.681,14.6,14.6,0,0,1-3.007,1.993,17.264,17.264,0,0,1-3.582,1.3,16.3,16.3,0,0,1-5.085.436,16.428,16.428,0,0,1-4.866-1.112,16.609,16.609,0,0,1-4.318-2.518A16.708,16.708,0,0,1,3.835,9.551c-.081-.123-.158-.249-.232-.376s-.144-.257-.214-.387-.138-.262-.206-.393S3.047,8.131,2.976,8a.826.826,0,0,1-.041-.092.826.826,0,0,0-.041-.092.252.252,0,0,0-.06-.076.215.215,0,0,0-.1-.045c-.031-.21-.076-.417-.125-.624s-.1-.413-.153-.62-.1-.414-.129-.624a4.03,4.03,0,0,1-.054-.636,1.574,1.574,0,0,1,.089-.538,1.214,1.214,0,0,1,.255-.42,1.185,1.185,0,0,1,.4-.279,1.5,1.5,0,0,1,.531-.114,1.465,1.465,0,0,1,.539.075,1.249,1.249,0,0,1,.432.253,1.22,1.22,0,0,1,.292.4,1.38,1.38,0,0,1,.12.517c0,.06.006.12.01.181s.01.12.017.181.016.12.027.181.024.12.04.181c.021.079.039.172.058.267s.039.193.062.281a.861.861,0,0,0,.086.222.157.157,0,0,0,.129.09.459.459,0,0,0,.251-.084.757.757,0,0,0,.192-.2,1.511,1.511,0,0,0,.141-.265,2.66,2.66,0,0,0,.1-.278,5.554,5.554,0,0,0,.245-1.227A4.421,4.421,0,0,0,6.232,3.44a4.15,4.15,0,0,0-.378-1.108,4.761,4.761,0,0,0-.71-1.027A2.617,2.617,0,0,0,4.263.654,2.174,2.174,0,0,0,3.287.468,2.26,2.26,0,0,0,2.32.737a2.819,2.819,0,0,0-.853.715,4.322,4.322,0,0,0-.9,1.863A5.281,5.281,0,0,0,.459,4.333,7.2,7.2,0,0,0,.524,5.391a2.778,2.778,0,0,0,.149.629,1.874,1.874,0,0,0,.284.511,1.642,1.642,0,0,0,.431.381,2.056,2.056,0,0,0,.592.24.767.767,0,0,1,.21.079.36.36,0,0,1,.123.115A.4.4,0,0,1,2.37,7.5a.988.988,0,0,1,.009.2H2.347l0,0-.007.007-.007.007,0,0a4.38,4.38,0,0,1-1.019-.337A2.053,2.053,0,0,1,.2,6.091,4.292,4.292,0,0,1,.021,5.035Q.013,4.9.009,4.76T0,4.487q0-.137,0-.272t0-.269c.034-.212.072-.422.118-.63S.216,2.9.28,2.7a4.971,4.971,0,0,1,.23-.591,4.18,4.18,0,0,1,.318-.565A3.635,3.635,0,0,1,2.051.385a2.7,2.7,0,0,1,2.82.073A3.646,3.646,0,0,1,6.036,1.683q.138.247.251.5t.2.526q.088.268.151.547T6.738,3.831Z" transform="translate(9.127 4.251)"/>
      <path id="Path_44" data-name="Path 44" class="cls-16" d="M.018,0H2.061L3.083,0,4.1.011C4.1.236,4.1.462,4.1.688s.008.452.023.677.037.45.07.673a6.22,6.22,0,0,0,.135.665,9.614,9.614,0,0,0,.862,2.2A7.766,7.766,0,0,0,6.5,6.654,7.872,7.872,0,0,0,8.246,7.97a9.933,9.933,0,0,0,2.188.883,6.192,6.192,0,0,0,.849.172,7.562,7.562,0,0,0,.85.062c.284.005.567,0,.852-.021s.569-.045.855-.076c-.065.322-.121.646-.173.971s-.1.651-.148.976-.1.651-.158.974-.124.646-.2.965q-.538.016-1.071-.01t-1.059-.092q-.527-.067-1.047-.175t-1.035-.257q-.566-.161-1.1-.373A11.326,11.326,0,0,1,6.8,11.491a11.387,11.387,0,0,1-.994-.581q-.484-.317-.944-.686c-.037-.029-.075-.056-.113-.083s-.078-.053-.118-.078l-.12-.076-.119-.077c.013-.233.037-.465.069-.7s.07-.461.112-.691.087-.459.132-.689.088-.459.128-.69a2.539,2.539,0,0,0,.048-.432A.275.275,0,0,0,4.8,6.5a.3.3,0,0,0-.233-.037,2.759,2.759,0,0,0-.435.11l-.692-.017-.692-.019-.692-.019L1.37,6.5c-.013-.045-.025-.09-.037-.137s-.023-.093-.036-.14-.026-.093-.041-.138A1.084,1.084,0,0,0,1.2,5.951,11.166,11.166,0,0,1,.609,4.527,11.311,11.311,0,0,1,.221,3.058,12.064,12.064,0,0,1,.027,1.547,13.422,13.422,0,0,1,.018,0Z" transform="translate(22.01 37.855)"/>
      <path id="Path_45" data-name="Path 45" class="cls-12" d="M7.817,0a.463.463,0,0,0,.147.071.65.65,0,0,0,.153.022c.052,0,.1,0,.155,0s.1-.006.152-.006L10.319.09l1.893,0L14.1.1,15.991.1q0,.684.058,1.359t.166,1.341q.111.666.281,1.322t.406,1.3c.034.094.076.188.119.282s.086.189.124.286a1.594,1.594,0,0,1,.086.3,1,1,0,0,1,.007.318c-.341.024-.68.034-1.02.036s-.679,0-1.018-.015-.679-.025-1.018-.039-.68-.027-1.02-.035q-.908-.024-1.817-.056t-1.819-.07L7.706,6.355l-1.817-.08-1.47-.057L2.949,6.16,1.476,6.1,0,6.045a.271.271,0,0,1,.046-.108.168.168,0,0,1,.069-.054A.306.306,0,0,1,.2,5.864c.03,0,.062,0,.093-.007l1.413-.079L3.118,5.7l1.411-.079,1.413-.079,2.077-.111L10.1,5.318l2.078-.11q1.039-.054,2.077-.106a.758.758,0,0,0,.18-.022.172.172,0,0,0,.1-.063.227.227,0,0,0,.035-.12,1.245,1.245,0,0,0-.009-.193,1.158,1.158,0,0,0-.074-.324.588.588,0,0,0-.149-.217.672.672,0,0,0-.231-.132,1.554,1.554,0,0,0-.322-.071q-.558-.071-1.114-.15t-1.111-.168q-.555-.089-1.109-.19T9.337,3.237l.582-.055.582-.055.582-.055.582-.055.534-.048.534-.048q.267-.024.534-.045t.534-.037a.734.734,0,0,0,.158-.026.163.163,0,0,0,.088-.056.16.16,0,0,0,.025-.1.706.706,0,0,0-.03-.162c-.084-.285-.13-.483-.168-.622a.541.541,0,0,0-.125-.267.476.476,0,0,0-.267-.085c-.133-.017-.32-.032-.593-.074l-1.767-.274Q10.24,1.035,9.358.9T7.593.612Q6.71.467,5.826.314A3.518,3.518,0,0,1,6.319.181c.166-.033.332-.056.5-.075s.334-.034.5-.05S7.652.024,7.817,0Z" transform="translate(3.94 37.751)"/>
      <path id="Path_46" data-name="Path 46" class="cls-11" d="M1.247,6.506a1.067,1.067,0,0,0-.011-.318,1.685,1.685,0,0,0-.086-.3c-.037-.1-.079-.192-.121-.286S.946,5.416.912,5.322Q.672,4.678.5,4.022T.22,2.7Q.11,2.034.057,1.359T0,0H1.048l.523,0L2.1.011a13.352,13.352,0,0,0,.01,1.546A11.938,11.938,0,0,0,2.3,3.064a11.187,11.187,0,0,0,.99,2.9,1.084,1.084,0,0,1,.054.131c.016.045.029.091.041.138s.024.093.036.14.023.092.037.137q-.279.02-.556.031t-.553.012q-.276,0-.551-.009T1.247,6.506Z" transform="translate(19.942 37.855)"/>
      <path id="Path_47" data-name="Path 47" class="cls-27" d="M.084,0a.38.38,0,0,1,0,.053A.128.128,0,0,1,.081.1.08.08,0,0,1,.054.134.138.138,0,0,1,0,.157C.005.144.011.131.018.118L.038.079.06.039Z" transform="translate(27.476 36.787)"/>
      <path id="Path_48" data-name="Path 48" class="cls-17" d="M9.747,16.25c-.286.031-.571.058-.856.074s-.57.024-.854.019a7.841,7.841,0,0,1-.85-.062,6.376,6.376,0,0,1-.845-.167,9.932,9.932,0,0,1-2.188-.883A7.872,7.872,0,0,1,2.4,13.915a7.766,7.766,0,0,1-1.309-1.754,9.614,9.614,0,0,1-.862-2.2A6.628,6.628,0,0,1,.1,9.294C.062,9.07.038,8.846.023,8.621S0,8.172,0,7.947s0-.45.011-.676l.4-.01.4-.01c.135,0,.27,0,.4,0s.269.005.4.013a.841.841,0,0,0,.257-.02.384.384,0,0,0,.171-.093.459.459,0,0,0,.107-.167,1.216,1.216,0,0,0,.062-.244q.1-.621.208-1.24t.214-1.238q.108-.619.218-1.238l.22-1.24a.254.254,0,0,1,.013-.047.5.5,0,0,1,.021-.047l.025-.047.025-.047a.641.641,0,0,0,.158-.012.779.779,0,0,0,.146-.046,1.231,1.231,0,0,0,.138-.069c.045-.026.09-.054.134-.083a9.535,9.535,0,0,1,2-.968A7.582,7.582,0,0,1,9.853.177a9.427,9.427,0,0,1,2.1.735l.131.063c.043.02.086.04.13.056a.806.806,0,0,0,.136.038.636.636,0,0,0,.149.01c-.01.223-.033.443-.065.662s-.071.437-.116.654-.094.432-.143.648-.1.43-.147.645-.09.451-.127.677-.068.453-.1.679-.065.453-.1.679-.08.452-.132.677c0,.021-.006.042-.01.063s-.008.042-.011.063-.008.042-.011.063-.007.042-.009.063c-.037.173-.064.3-.074.4a.278.278,0,0,0,.034.206.284.284,0,0,0,.2.079c.1.012.232.014.41.017l.731,0,.73,0,.728,0,.725,0a8.56,8.56,0,0,1-.038,1.725,6.989,6.989,0,0,1-.392,1.589,6.66,6.66,0,0,1-.761,1.446,7.574,7.574,0,0,1-1.146,1.3.79.79,0,0,0-.074.075.522.522,0,0,0-.059.084.376.376,0,0,0-.037.093.335.335,0,0,0-.009.1l-.479.011-.479.013c-.16,0-.32.007-.479.009s-.32,0-.479,0a.75.75,0,0,0-.179.018.282.282,0,0,0-.121.06A.288.288,0,0,0,10.2,14a.788.788,0,0,0-.043.177q-.047.259-.1.519t-.105.519q-.053.259-.105.519T9.747,16.25ZM8.143,5.459a2.7,2.7,0,0,0-1.123.179,3.149,3.149,0,0,0-1.006.622A3.043,3.043,0,0,0,5.3,7.24,2.86,2.86,0,0,0,5.041,8.5a3.541,3.541,0,0,0,.242,1.259,2.881,2.881,0,0,0,.636.973,2.832,2.832,0,0,0,.965.63,3.372,3.372,0,0,0,1.227.228,3.332,3.332,0,0,0,1.2-.208,2.819,2.819,0,0,0,1.623-1.559,3.394,3.394,0,0,0,.257-1.251,3.087,3.087,0,0,0-.22-1.208,3.051,3.051,0,0,0-.644-.992,3,3,0,0,0-2.185-.911Z" transform="translate(26.113 30.594)"/>
      <path id="Path_49" data-name="Path 49" class="cls-16" d="M0,6.433a.349.349,0,0,1,.046-.2A.5.5,0,0,1,.106,6.15a.889.889,0,0,1,.074-.073,7.574,7.574,0,0,0,1.146-1.3,6.661,6.661,0,0,0,.761-1.446,6.989,6.989,0,0,0,.392-1.589A8.563,8.563,0,0,0,2.516.021L3.121.013,3.726.007l.605,0,.605,0A1.539,1.539,0,0,1,5.1.411a2.368,2.368,0,0,1,.062.426c.009.143.01.288.011.432s0,.287.013.429c-.042.265-.083.529-.127.792s-.093.526-.151.786-.124.518-.206.772a6.251,6.251,0,0,1-.292.751,3.689,3.689,0,0,1-.454.739,2.6,2.6,0,0,1-.582.54,2.359,2.359,0,0,1-.722.322,2.967,2.967,0,0,1-.872.085c-.149-.01-.3-.018-.448-.024s-.3-.01-.447-.014L.443,6.439Z" transform="translate(38.583 37.929)"/>
      <path id="Path_50" data-name="Path 50" class="cls-12" d="M0,2.534a9.485,9.485,0,0,1,.977-.67A10.4,10.4,0,0,1,2.016,1.32q.533-.243,1.092-.432T4.244.554Q5,.362,5.767.241T7.3.062Q8.069,0,8.843,0T10.4.041A3.245,3.245,0,0,1,10.8.092c.134.025.267.056.4.09s.266.071.4.106.266.069.4.1h0a.176.176,0,0,0,0,.081.083.083,0,0,0,.034.045.163.163,0,0,0,.058.022c.022,0,.047.007.073.01h0a.367.367,0,0,0,.025.03L12.219.6l.027.028a.364.364,0,0,1,.025.03,3.187,3.187,0,0,1,.414.656,4.724,4.724,0,0,1,.266.71c.071.243.129.491.185.739s.11.5.172.744q.031.126.059.253t.055.255l.053.255q.026.127.054.253c.005.079.012.157.018.236s.013.157.018.235.009.156.01.233,0,.154-.005.23a2.2,2.2,0,0,1-.076.523,1.1,1.1,0,0,1-.521.676,2.176,2.176,0,0,1-.483.2,5.963,5.963,0,0,1-.624.153c-.209.04-.42.068-.63.088s-.422.03-.634.033-.424,0-.636-.012a.379.379,0,0,0-.007-.149A.422.422,0,0,0,9.9,6.849a.869.869,0,0,0-.087-.111c-.032-.036-.067-.071-.1-.108-.121-.126-.246-.245-.376-.359s-.263-.224-.4-.33-.275-.209-.415-.31-.282-.2-.423-.3A15.961,15.961,0,0,0,6.219,4.22a15.761,15.761,0,0,0-1.98-.829,16.489,16.489,0,0,0-2.074-.558A18.161,18.161,0,0,0,0,2.534Z" transform="translate(35.43 19.69)"/>
      <path id="Path_51" data-name="Path 51" class="cls-11" d="M4.8,0A17.967,17.967,0,0,1,6.964.3,16.45,16.45,0,0,1,9.038.862a15.831,15.831,0,0,1,1.98.833A16.111,16.111,0,0,1,12.9,2.808c.144.1.287.2.428.3s.279.2.415.31.268.215.4.33.254.233.374.359c.034.034.068.068.1.1a.8.8,0,0,1,.085.111.463.463,0,0,1,.055.127.429.429,0,0,1,.011.151c-.2.005-.4.01-.6.017s-.4.017-.6.032-.395.036-.591.065a5.8,5.8,0,0,0-.585.117,5.723,5.723,0,0,0-.882.309,5.571,5.571,0,0,0-.8.436A5.979,5.979,0,0,0,10,6.13a6.972,6.972,0,0,0-.646.669.323.323,0,0,0-.068-.117.441.441,0,0,0-.1-.08,1.28,1.28,0,0,0-.115-.06C9.036,6.524,9,6.506,8.96,6.485q-.279-.161-.569-.3T7.8,5.94q-.3-.114-.6-.21t-.61-.178q-.55-.141-1.1-.232a11.166,11.166,0,0,0-1.11-.125,10.419,10.419,0,0,0-1.119-.009A10.2,10.2,0,0,0,2.127,5.3c-.181.029-.358.068-.534.112s-.351.092-.525.138-.35.091-.527.128A4.506,4.506,0,0,1,0,5.762,4,4,0,0,1,.178,5.3c.068-.148.143-.292.223-.433s.164-.28.25-.418.174-.274.26-.41q.377-.609.8-1.173A12.979,12.979,0,0,1,2.624,1.8,11.66,11.66,0,0,1,3.648.837,11.035,11.035,0,0,1,4.8,0Z" transform="translate(30.631 22.225)"/>
      <path id="Path_52" data-name="Path 52" class="cls-16" d="M1.362.59A4.986,4.986,0,0,0,1.9.5c.177-.038.352-.082.528-.128s.351-.093.528-.136.355-.082.536-.11A10.28,10.28,0,0,1,4.617.012a10.39,10.39,0,0,1,1.12.007A10.893,10.893,0,0,1,6.849.143Q7.4.234,7.954.38q.306.079.61.174t.6.21q.3.115.588.251t.569.3c.037.021.075.039.114.058a1.266,1.266,0,0,1,.113.06.465.465,0,0,1,.1.08.365.365,0,0,1,.073.117c-.128.191-.253.384-.371.581s-.231.4-.335.6-.2.412-.286.625a6.34,6.34,0,0,0-.224.657.3.3,0,0,1-.022.06.239.239,0,0,1-.035.052.2.2,0,0,1-.048.041.21.21,0,0,1-.063.025.606.606,0,0,1-.144-.01.844.844,0,0,1-.136-.038c-.045-.016-.088-.036-.132-.056L8.792,4.1a9.427,9.427,0,0,0-2.1-.735A7.582,7.582,0,0,0,2.581,3.6a9.533,9.533,0,0,0-2,.968c-.045.029-.089.057-.134.083A1.236,1.236,0,0,1,.3,4.723a.78.78,0,0,1-.146.046A.641.641,0,0,1,0,4.78Q.1,4.234.233,3.7T.54,2.642q.171-.523.377-1.036T1.362.59Z" transform="translate(29.268 27.397)"/>
      <path id="Path_53" data-name="Path 53" class="cls-13" d="M5.977.943,5.372.95,4.767.957l-.605,0-.605,0-.731,0-.73,0-.728,0-.725,0A3.863,3.863,0,0,1,.234.941a.279.279,0,0,1-.2-.079A.285.285,0,0,1,0,.653c.01-.1.037-.229.074-.4C.083.23.087.209.091.189S.1.147.1.126.108.084.111.063L.119,0H2.278l1.08,0L4.437.01a2.611,2.611,0,0,1,.49.05A1.6,1.6,0,0,1,5.36.213,1.25,1.25,0,0,1,5.717.5,1.476,1.476,0,0,1,5.977.943Z" transform="translate(37.543 36.975)"/>
      <path id="Path_54" data-name="Path 54" class="cls-13" d="M.171.157A.414.414,0,0,1,.1.152.144.144,0,0,1,.04.13.088.088,0,0,1,.006.082.184.184,0,0,1,0,0L.049.039.091.079l.04.039Z" transform="translate(47.426 20.077)"/>
      <path id="Path_55" data-name="Path 55" class="cls-13" d="M.1.115A.365.365,0,0,0,.08.085L.052.058.025.03A.365.365,0,0,1,0,0L.025.031l.027.03L.08.09Z" transform="translate(47.596 20.224)"/>
      <path id="Path_56" data-name="Path 56" class="cls-18" d="M1.921,7.231a.925.925,0,0,0,0-.2.378.378,0,0,0-.054-.154.355.355,0,0,0-.125-.115.8.8,0,0,0-.215-.079,1.994,1.994,0,0,1-.592-.235A1.623,1.623,0,0,1,.5,6.069a1.886,1.886,0,0,1-.284-.513,2.8,2.8,0,0,1-.149-.63A7.273,7.273,0,0,1,0,3.862,5.266,5.266,0,0,1,.113,2.846a4.315,4.315,0,0,1,.9-1.86A2.819,2.819,0,0,1,1.862.271,2.26,2.26,0,0,1,2.828,0,2.174,2.174,0,0,1,3.8.188,2.617,2.617,0,0,1,4.687.84,4.711,4.711,0,0,1,5.4,1.867a4.109,4.109,0,0,1,.377,1.108,4.415,4.415,0,0,1,.057,1.174,5.606,5.606,0,0,1-.247,1.227c-.029.089-.062.185-.1.278a1.59,1.59,0,0,1-.14.265.752.752,0,0,1-.189.2.452.452,0,0,1-.249.084.147.147,0,0,1-.129-.086A.848.848,0,0,1,4.692,5.9c-.024-.088-.043-.187-.062-.283s-.037-.19-.058-.268c-.016-.06-.029-.12-.04-.181s-.02-.12-.027-.181-.013-.12-.017-.181-.008-.12-.01-.181a1.38,1.38,0,0,0-.12-.517,1.22,1.22,0,0,0-.292-.4,1.249,1.249,0,0,0-.432-.253,1.465,1.465,0,0,0-.539-.075,1.5,1.5,0,0,0-.531.114,1.186,1.186,0,0,0-.4.279,1.214,1.214,0,0,0-.255.42,1.574,1.574,0,0,0-.089.538,3.97,3.97,0,0,0,.056.64c.034.21.081.417.131.623s.1.412.153.618.092.413.121.623a.744.744,0,0,1-.088.01c-.03,0-.06,0-.09,0l-.09,0Z" transform="translate(9.575 4.707)"/>
      <path id="Path_57" data-name="Path 57" class="cls-18" d="M3.752,6.723c.021-.173.054-.343.092-.512s.08-.338.119-.506.074-.339.1-.51a2.918,2.918,0,0,0,.027-.524,1.571,1.571,0,0,0-.105-.517,1.225,1.225,0,0,0-.259-.4,1.191,1.191,0,0,0-.4-.268,1.491,1.491,0,0,0-.518-.11,1.455,1.455,0,0,0-.524.07,1.22,1.22,0,0,0-.421.24,1.2,1.2,0,0,0-.289.384,1.382,1.382,0,0,0-.129.5q-.016.189-.043.375t-.065.372q-.037.186-.084.37t-.1.369a.8.8,0,0,1-.1.239.156.156,0,0,1-.119.077.239.239,0,0,1-.142-.055,1.278,1.278,0,0,1-.172-.156,1.827,1.827,0,0,1-.251-.332A2.045,2.045,0,0,1,.2,5.462a2.732,2.732,0,0,1-.1-.385c-.025-.131-.043-.264-.056-.4A6.917,6.917,0,0,1,.008,3.593,5.022,5.022,0,0,1,.166,2.558a4.161,4.161,0,0,1,.39-.967A4.213,4.213,0,0,1,1.216.71,2.441,2.441,0,0,1,1.966.179,2.035,2.035,0,0,1,2.787,0a2.077,2.077,0,0,1,.827.171,2.545,2.545,0,0,1,.767.518,3.536,3.536,0,0,1,.7,1A5.217,5.217,0,0,1,5.5,2.944a5.286,5.286,0,0,1,.1,1.325,3.648,3.648,0,0,1-.258,1.2,1.885,1.885,0,0,1-.242.419,2.239,2.239,0,0,1-.316.334A3.668,3.668,0,0,1,4.42,6.5c-.128.086-.261.167-.395.248a.585.585,0,0,0-.065-.012l-.068-.006-.07,0Z" transform="translate(37.756 4.732)"/>
      <path id="Path_58" data-name="Path 58" class="cls-19" d="M3.1,0a3.022,3.022,0,0,1,2.829,1.9,3.088,3.088,0,0,1,.22,1.208A3.351,3.351,0,0,1,5.9,4.367a2.823,2.823,0,0,1-.655.953,2.869,2.869,0,0,1-.971.606,3.342,3.342,0,0,1-1.2.208,3.362,3.362,0,0,1-1.225-.228,2.823,2.823,0,0,1-.962-.63A2.9,2.9,0,0,1,.247,4.3,3.59,3.59,0,0,1,0,3.043,2.892,2.892,0,0,1,.261,1.786,3.059,3.059,0,0,1,.978.8a3.14,3.14,0,0,1,1-.622A2.694,2.694,0,0,1,3.1,0Z" transform="translate(31.154 36.049)"/>
    </g>
  </g>
</svg>
