<svg xmlns="http://www.w3.org/2000/svg" xmlns:xlink="http://www.w3.org/1999/xlink" width="74.263" height="96.149" viewBox="0 0 74.263 96.149">
  <defs>
    <style>
      .cls-news1 {
        stroke: #000;
        stroke-width: 2px;
        fill: url(#linear-gradient);
      }

      .cls-news1, .cls-news3 {
        stroke-linejoin: round;
      }

      .cls-news2 {
        isolation: isolate;
      }

      .cls-news3, .cls-news4 {
        fill: none;
      }

      .cls-news5, .cls-news6, .cls-7 {
        stroke: none;
      }

      .cls-news6 {
        fill: #000;
      }

      .cls-news7 {
        fill: #fff;
      }
    </style>
    <linearGradient id="linear-gradient" x1="0.5" y1="0.753" x2="0.5" y2="1" gradientUnits="objectBoundingBox">
      <stop offset="0" stop-color="#2c00ff"/>
      <stop offset="1" stop-color="#ececec"/>
    </linearGradient>
  </defs>
  <g id="Group_3" data-name="Group 3" transform="translate(-52.607 -1920.134)">
    <path id="Path_8" data-name="Path 8" class="cls-news1" d="M79.044,2004.909l-.347-83.775h47.025s.3,73.282,0,84.408-13.054,9.642-13.054,9.642l-45.952-.34"/>
    <g id="Group_1" data-name="Group 1" class="cls-news2" transform="translate(52.607 1962.769)">
      <g id="Path_7" data-name="Path 7" class="cls-news3" transform="translate(0 0)">
        <path class="cls-news5" d="M26.273,1H1.234S1.2,2.619,1.168,5.284s-.08,6.376-.11,10.561-.044,8.842-.022,13.4.08,9.015.2,12.8a8.2,8.2,0,0,0,1.39,4.334,11.112,11.112,0,0,0,3.281,3.144,16.171,16.171,0,0,0,4.3,1.915,16.367,16.367,0,0,0,4.432.647,13.8,13.8,0,0,0,2.734-.412,14.293,14.293,0,0,0,2.57-.92A13.159,13.159,0,0,0,22.2,49.4a10.767,10.767,0,0,0,1.824-1.711A10.2,10.2,0,0,0,25.1,46.1a12.555,12.555,0,0,0,.753-1.62,10.952,10.952,0,0,0,.438-1.417,4.31,4.31,0,0,0,.134-.975"/>
        <path class="cls-news6" d="M 14.63279056549072 53.08468246459961 C 13.84275245666504 53.08468246459961 13.03366756439209 53.02119064331055 12.2230863571167 52.89909744262695 C 11.41250514984131 52.77700424194336 10.60046005249023 52.59654998779297 9.804530143737793 52.36286163330078 C 9.008600234985352 52.12917327880859 8.228817939758301 51.84225463867188 7.482763767242432 51.50722885131836 C 6.736709117889404 51.17220306396484 6.024383544921875 50.7890739440918 5.363367557525635 50.36296463012695 C 4.987257480621338 50.12048721313477 4.630011081695557 49.86628723144531 4.292177677154541 49.60134506225586 C 3.954344034194946 49.33639907836914 3.635953664779663 49.06022644042969 3.337464809417725 48.7735481262207 C 3.03900671005249 48.48687362670898 2.760449647903442 48.189697265625 2.50234317779541 47.88226318359375 C 2.244267463684082 47.57483291625977 2.00664234161377 47.25763320922852 1.790017366409302 46.9306640625 C 1.545371890068054 46.56145095825195 1.329174280166626 46.18247222900391 1.141638159751892 45.79446029663086 C 0.954102098941803 45.40644454956055 0.7952275276184082 45.00915145874023 0.6652586460113525 44.60355758666992 C 0.5352898240089417 44.19795989990234 0.4342266619205475 43.78406143188477 0.3622828722000122 43.36235046386719 C 0.2903390824794769 42.94063949584961 0.2475146800279617 42.51135635375977 0.234053835272789 42.07499313354492 C 0.1183394268155098 38.32793426513672 0.06016172841191292 33.90227890014648 0.03806274756789207 29.36722564697266 C 0.01596376672387123 24.83241653442383 0.02994350716471672 20.18845558166504 0.05854398384690285 16.00478935241699 C 0.08714445680379868 11.82136726379395 0.1303656697273254 8.097993850708008 0.1667191088199615 5.404360771179199 C 0.2030725330114365 2.710849046707153 0.2325581908226013 1.04695451259613 0.2337180823087692 0.9821226596832275 C 0.2361904829740524 0.8458659648895264 0.2658287584781647 0.7163243889808655 0.3174439072608948 0.5987480878829956 C 0.3690590858459473 0.4810496270656586 0.4426206052303314 0.3753163814544678 0.5329394936561584 0.2865541875362396 C 0.6232584118843079 0.1977919787168503 0.7302736043930054 0.1262450069189072 0.8488267064094543 0.0767970085144043 C 0.9673798084259033 0.02734901383519173 1.097409725189209 0 1.233757972717285 0 L 26.27321434020996 0 L 26.27321434020996 2.000385046005249 L 2.217345714569092 2.000385046005249 C 2.197719097137451 3.218881368637085 2.163288831710815 5.498983383178711 2.129102468490601 8.441200256347656 C 2.094885587692261 11.3834171295166 2.0609130859375 14.98774814605713 2.042171716690063 18.85470390319824 C 2.023460865020752 22.72165870666504 2.02001166343689 26.85111618041992 2.04687237739563 30.84407234191895 C 2.073732852935791 34.83702850341797 2.13093376159668 38.6932373046875 2.23346209526062 42.01345825195313 C 2.259193420410156 42.84687042236328 2.41883111000061 43.60507202148438 2.672969341278076 44.29246139526367 C 2.927077054977417 44.97985076904297 3.275685548782349 45.5964241027832 3.679388761520386 46.14657974243164 C 4.083061218261719 46.69673156738281 4.541798114776611 47.18022537231445 5.016224384307861 47.60120391845703 C 5.490650177001953 48.02242660522461 5.980734825134277 48.38113784790039 6.447103023529053 48.68173217773438 C 7.028971195220947 49.05656051635742 7.655922889709473 49.39402770996094 8.312604904174805 49.68925094604492 C 8.96928596496582 49.98447418212891 9.655697822570801 50.23745346069336 10.35636329650879 50.44354629516602 C 11.05702972412109 50.64988708496094 11.77201080322266 50.80934143066406 12.48589324951172 50.91775894165039 C 13.19977569580078 51.02618026733398 13.91255950927734 51.08307647705078 14.60883045196533 51.08429718017578 C 15.44544696807861 51.04278564453125 16.28499412536621 50.91263198852539 17.10357284545898 50.70507431030273 C 17.92215156555176 50.49751281738281 18.71975898742676 50.21254730224609 19.4725284576416 49.86140441894531 C 20.22529792785645 49.51001739501953 20.93316841125488 49.09221267700195 21.57229804992676 48.61946487426758 C 22.21139907836914 48.1467170715332 22.78172874450684 47.6187858581543 23.25938987731934 47.04689788818359 C 23.64377212524414 46.58733749389648 23.9724178314209 46.08846282958984 24.24892997741699 45.58885192871094 C 24.52544212341309 45.0892448425293 24.74985122680664 44.58890533447266 24.9257869720459 44.12641525268555 C 25.10172462463379 43.66392135620117 25.22916030883789 43.23928070068359 25.31172561645508 42.89106750488281 C 25.39432334899902 42.5428581237793 25.43205070495605 42.27107620239258 25.42856979370117 42.11430740356445 L 27.428466796875 42.06986618041992 C 27.43536567687988 42.37924957275391 27.38292503356934 42.79510116577148 27.27316284179688 43.27761840820313 C 27.16340065002441 43.7598876953125 26.99637603759766 44.30857849121094 26.77410507202148 44.88364028930664 C 26.55183410644531 45.45870208740234 26.27437591552734 46.06013488769531 25.94374465942383 46.64789581298828 C 25.61311531066895 47.23540878295898 25.22931289672852 47.80924987792969 24.79441452026367 48.32937240600586 C 24.22154998779297 49.01553726196289 23.54966926574707 49.64383316040039 22.80242347717285 50.20326614379883 C 22.05517959594727 50.76294326782227 21.23257255554199 51.25400543212891 20.35819816589355 51.66497421264648 C 19.48385238647461 52.07594299316406 18.55777168273926 52.40705871582031 17.60357856750488 52.64709854125977 C 16.6494140625 52.88737869262695 15.66713905334473 53.03633117675781 14.68040752410889 53.08346176147461 C 14.67643928527832 53.08370590209961 14.67247104644775 53.08370590209961 14.6685037612915 53.08395004272461 C 14.66453552246094 53.08419418334961 14.66056728363037 53.08419418334961 14.6565990447998 53.08443832397461 C 14.65263080596924 53.08468246459961 14.64866352081299 53.08468246459961 14.64469528198242 53.08468246459961 C 14.64072704315186 53.08468246459961 14.63675880432129 53.08468246459961 14.63279056549072 53.08468246459961 Z"/>
      </g>
    </g>
    <g id="Group_2" data-name="Group 2" transform="translate(87.646 1933.77)">
      <g id="Line_4" data-name="Line 4" class="cls-news4" transform="translate(0.008)">
        <path class="cls-news5" d="M0,1H26"/>
        <path class="cls-news7" d="M 26.00499725341797 2.000385046005249 L -7.630863365193363e-06 2.000385046005249 L -7.630863365193363e-06 0 L 26.00499725341797 0 L 26.00499725341797 2.000385046005249 Z"/>
      </g>
      <g id="Line_5" data-name="Line 5" class="cls-news4" transform="translate(0 22.219)">
        <path class="cls-news5" d="M.008,1l26.005.2"/>
        <path class="cls-news7" d="M 26.00498962402344 2.204374074935913 L -1.461433294025483e-05 2.000354766845703 L 0.01568840630352497 2.974844392156228e-05 L 26.02069473266602 0.2040490508079529 L 26.00498962402344 2.204374074935913 Z"/>
      </g>
      <g id="Line_6" data-name="Line 6" class="cls-news4" transform="translate(0.008 11.109)">
        <path class="cls-news5" d="M0,1H26"/>
        <path class="cls-news7" d="M 26.00499725341797 2.000385046005249 L -7.630863365193363e-06 2.000385046005249 L -7.630863365193363e-06 0 L 26.00499725341797 0 L 26.00499725341797 2.000385046005249 Z"/>
      </g>
    </g>
  </g>
</svg>
