<svg xmlns="http://www.w3.org/2000/svg" xmlns:xlink="http://www.w3.org/1999/xlink" width="114.54" height="146.649" viewBox="0 0 114.54 146.649">
  <defs>
    <linearGradient id="linear-gradient" x1="0.254" x2="1" y2="0.846" gradientUnits="objectBoundingBox">
      <stop offset="0" stop-color="#d96d6d"/>
      <stop offset="1" stop-color="#8d89f3"/>
    </linearGradient>
  </defs>
  <g id="Group_10" data-name="Group 10" transform="translate(-522 -321.596)">
    <path id="Path_8" data-name="Path 8" d="M0,0H66.743V110.718H0Z" transform="translate(522 321.596)"/>
    <path id="Path_39" data-name="Path 39" d="M0,0H66.743V110.718H0Z" transform="translate(522 321.596)"/>
    <rect id="Rectangle_13" data-name="Rectangle 13" width="62.51" height="107.965" transform="translate(524.116 323.512)" fill="#fff"/>
    <g id="zoom_in_black_24dp" transform="translate(547.805 374.325)">
      <path id="Path_6" data-name="Path 6" d="M0,0H88.735V93.919H0Z" fill="none"/>
      <path id="Path_7" data-name="Path 7" d="M60.784,57.26H57.132l-1.294-1.332A33.2,33.2,0,0,0,63.1,35.063C63.1,17.354,49.643,3,33.048,3S3,17.354,3,35.063,16.452,67.125,33.048,67.125A28.84,28.84,0,0,0,52.6,59.381l1.248,1.381v3.9L76.963,89.273l6.888-7.35Zm-27.736,0c-11.511,0-20.8-9.915-20.8-22.2s9.292-22.2,20.8-22.2,20.8,9.915,20.8,22.2S44.558,57.26,33.048,57.26Zm2.311-34.529H30.736V32.6H21.491v4.933h9.245v9.865h4.623V37.529H44.6V32.6H35.359Z" transform="translate(0.633 0.524)" fill="url(#linear-gradient)"/>
    </g>
    <g id="Ellipse_2" data-name="Ellipse 2" transform="translate(553.367 323.512)" fill="#fff" stroke="#000" stroke-width="1">
      <ellipse cx="2.505" cy="2.593" rx="2.505" ry="2.593" stroke="none"/>
      <ellipse cx="2.505" cy="2.593" rx="2.005" ry="2.093" fill="none"/>
    </g>
  </g>
</svg>
