<svg xmlns="http://www.w3.org/2000/svg" width="660.428" height="186.544" viewBox="0 0 660.428 186.544">
  <g id="Group_3" data-name="Group 3" transform="translate(-1007.973 -484.245)">
    <path id="Path_4" data-name="Path 4" d="M67.25,4.245,89,55.78h31.633l-18.395,47.906,24.82,43.551H89L67.25,190.789,43.032,147.238H4.973l20.652-43.551L4.973,55.78H43.032Z" transform="translate(1003 480)" fill="#eefd26"/>
    <path id="Path_4-2" data-name="Path 4" d="M67.25,4.245,89,55.78h31.633l-18.395,47.906,24.82,43.551H89L67.25,190.789,43.032,147.238H4.973l20.652-43.551L4.973,55.78H43.032Z" transform="translate(1137.586 480)" fill="#eefd26"/>
    <path id="Path_4-3" data-name="Path 4" d="M67.25,4.245,89,55.78h31.633l-18.395,47.906,24.82,43.551H89L67.25,190.789,43.032,147.238H4.973l20.652-43.551L4.973,55.78H43.032Z" transform="translate(1272.172 480)" fill="#eefd26"/>
    <g id="Path_4-4" data-name="Path 4" transform="translate(1406.758 480)" fill="#fff">
      <path d="M 67.22647094726563 189.7174682617188 L 43.4684944152832 146.9948883056641 L 43.32559204101563 146.7378845214844 L 43.03152084350586 146.7378845214844 L 5.763613224029541 146.7378845214844 L 26.07682800292969 103.9007720947266 L 26.17375755310059 103.6963424682617 L 26.08418655395508 103.4886093139648 L 5.733151435852051 56.28039169311523 L 43.03152084350586 56.28039169311523 L 43.34901809692383 56.28039169311523 L 43.48404312133789 55.99305725097656 L 67.22570037841797 5.472607135772705 L 88.5372314453125 55.97479629516602 L 88.66620635986328 56.28039169311523 L 88.99790191650391 56.28039169311523 L 119.9031143188477 56.28039169311523 L 101.7691116333008 103.5072937011719 L 101.684211730957 103.7283706665039 L 101.8014678955078 103.9341049194336 L 126.1958236694336 146.7378845214844 L 88.99790191650391 146.7378845214844 L 88.68871307373047 146.7378845214844 L 88.55056762695313 147.0145111083984 L 67.22647094726563 189.7174682617188 Z" stroke="none"/>
      <path d="M 67.20114135742188 6.700439453125 L 43.93656921386719 56.20570373535156 L 43.66649627685547 56.7803955078125 L 43.03151702880859 56.7803955078125 L 6.493202209472656 56.7803955078125 L 26.54332733154297 103.290657043457 L 26.72245025634766 103.7061767578125 L 26.528564453125 104.114990234375 L 6.554054260253906 146.2378845214844 L 43.03151702880859 146.2378845214844 L 43.61963653564453 146.2378845214844 L 43.90547180175781 146.7518920898438 L 67.20268249511719 188.6459045410156 L 88.10323333740234 146.7911376953125 L 88.3795166015625 146.2378845214844 L 88.99789428710938 146.2378845214844 L 125.3353729248047 146.2378845214844 L 101.3670654296875 104.1816787719727 L 101.132568359375 103.7702026367188 L 101.3023300170898 103.3280792236328 L 119.1755218505859 56.7803955078125 L 88.99789428710938 56.7803955078125 L 88.33449554443359 56.7803955078125 L 88.07656860351563 56.16917419433594 L 67.20114135742188 6.700439453125 M 67.25025939941406 4.2447509765625 L 88.99789428710938 55.7803955078125 L 120.6306838989258 55.7803955078125 L 102.2358779907227 103.6865310668945 L 127.056282043457 147.2378845214844 L 88.99789428710938 147.2378845214844 L 67.25025939941406 190.7890319824219 L 43.03151702880859 147.2378845214844 L 4.973136901855469 147.2378845214844 L 25.62501525878906 103.6865310668945 L 4.973136901855469 55.7803955078125 L 43.03151702880859 55.7803955078125 L 67.25025939941406 4.2447509765625 Z" stroke="none" fill="#000"/>
    </g>
    <g id="Path_4-5" data-name="Path 4" transform="translate(1541.344 480)" fill="#fff">
      <path d="M 67.22647094726563 189.7174682617188 L 43.4684944152832 146.9948883056641 L 43.32559204101563 146.7378845214844 L 43.03152084350586 146.7378845214844 L 5.763613224029541 146.7378845214844 L 26.07682800292969 103.9007720947266 L 26.17375755310059 103.6963424682617 L 26.08418655395508 103.4886093139648 L 5.733151435852051 56.28039169311523 L 43.03152084350586 56.28039169311523 L 43.34901809692383 56.28039169311523 L 43.48404312133789 55.99305725097656 L 67.22570037841797 5.472607135772705 L 88.5372314453125 55.97479629516602 L 88.66620635986328 56.28039169311523 L 88.99790191650391 56.28039169311523 L 119.9031143188477 56.28039169311523 L 101.7691116333008 103.5072937011719 L 101.684211730957 103.7283706665039 L 101.8014678955078 103.9341049194336 L 126.1958236694336 146.7378845214844 L 88.99790191650391 146.7378845214844 L 88.68871307373047 146.7378845214844 L 88.55056762695313 147.0145111083984 L 67.22647094726563 189.7174682617188 Z" stroke="none"/>
      <path d="M 67.20114135742188 6.700439453125 L 43.93656921386719 56.20570373535156 L 43.66649627685547 56.7803955078125 L 43.03151702880859 56.7803955078125 L 6.493202209472656 56.7803955078125 L 26.54332733154297 103.290657043457 L 26.72245025634766 103.7061767578125 L 26.528564453125 104.114990234375 L 6.554054260253906 146.2378845214844 L 43.03151702880859 146.2378845214844 L 43.61963653564453 146.2378845214844 L 43.90547180175781 146.7518920898438 L 67.20268249511719 188.6459045410156 L 88.10323333740234 146.7911376953125 L 88.3795166015625 146.2378845214844 L 88.99789428710938 146.2378845214844 L 125.3353729248047 146.2378845214844 L 101.3670654296875 104.1816787719727 L 101.132568359375 103.7702026367188 L 101.3023300170898 103.3280792236328 L 119.1755218505859 56.7803955078125 L 88.99789428710938 56.7803955078125 L 88.33449554443359 56.7803955078125 L 88.07656860351563 56.16917419433594 L 67.20114135742188 6.700439453125 M 67.25025939941406 4.2447509765625 L 88.99789428710938 55.7803955078125 L 120.6306838989258 55.7803955078125 L 102.2358779907227 103.6865310668945 L 127.056282043457 147.2378845214844 L 88.99789428710938 147.2378845214844 L 67.25025939941406 190.7890319824219 L 43.03151702880859 147.2378845214844 L 4.973136901855469 147.2378845214844 L 25.62501525878906 103.6865310668945 L 4.973136901855469 55.7803955078125 L 43.03151702880859 55.7803955078125 L 67.25025939941406 4.2447509765625 Z" stroke="none" fill="#000"/>
    </g>
  </g>
</svg>
