<svg xmlns="http://www.w3.org/2000/svg" xmlns:xlink="http://www.w3.org/1999/xlink" width="250.114" height="185.5" viewBox="0 0 250.114 185.5">
  <defs>
    <filter id="Ellipse_3" x="21.433" y="22.83" width="130" height="130" filterUnits="userSpaceOnUse">
      <feOffset dy="2" input="SourceAlpha"/>
      <feGaussianBlur stdDeviation="10" result="blur"/>
      <feFlood flood-opacity="0.439"/>
      <feComposite operator="in" in2="blur"/>
      <feComposite in="SourceGraphic"/>
    </filter>
    <filter id="Rectangle_4" x="93.299" y="102.559" width="66.268" height="70.611" filterUnits="userSpaceOnUse">
      <feOffset dy="3" input="SourceAlpha"/>
      <feGaussianBlur stdDeviation="3" result="blur-2"/>
      <feFlood flood-opacity="0.161"/>
      <feComposite operator="in" in2="blur-2"/>
      <feComposite in="SourceGraphic"/>
    </filter>
  </defs>
  <g id="Group_2" data-name="Group 2" transform="translate(-975 -294)">
    <g id="Rectangle_1" data-name="Rectangle 1" transform="translate(987 294)" fill="#3c3c3c" stroke="#000" stroke-width="1">
      <rect width="226" height="152" stroke="none"/>
      <rect x="0.5" y="0.5" width="225" height="151" fill="none"/>
    </g>
    <g id="Rectangle_2" data-name="Rectangle 2" transform="translate(975 475)" stroke="#000" stroke-width="1">
      <rect width="250" height="4" stroke="none"/>
      <rect x="0.5" y="0.5" width="249" height="3" fill="none"/>
    </g>
    <path id="Path_1" data-name="Path 1" d="M991.007,452.686l-12.354,29.86" transform="translate(-3.182 -7.354)" fill="none" stroke="#000" stroke-width="1"/>
    <path id="Path_2" data-name="Path 2" d="M990.484,452.573l12.35,29.86" transform="translate(221.818 -7.422)" fill="none" stroke="#000" stroke-width="1"/>
    <path id="Path_3" data-name="Path 3" d="M1096.524,453.369v4h13.665v-4Z" transform="translate(-6.356 21.631)" fill="#fff" stroke="#000" stroke-width="1"/>
    <g id="Rectangle_3" data-name="Rectangle 3" transform="translate(992 300)" fill="#fff" stroke="#707070" stroke-width="1">
      <rect width="216" height="135" stroke="none"/>
      <rect x="0.5" y="0.5" width="215" height="134" fill="none"/>
    </g>
    <g id="Rectangle_6" data-name="Rectangle 6" transform="translate(1011 316)" fill="#fff" stroke="#707070" stroke-width="1">
      <rect width="53" height="83" rx="5" stroke="none"/>
      <rect x="0.5" y="0.5" width="52" height="82" rx="4.5" fill="none"/>
    </g>
    <g id="Ellipse_4" data-name="Ellipse 4" transform="translate(1035 320)" fill="#fff" stroke="#707070" stroke-width="1">
      <circle cx="3" cy="3" r="3" stroke="none"/>
      <circle cx="3" cy="3" r="2.5" fill="none"/>
    </g>
    <g id="Ellipse_5" data-name="Ellipse 5" transform="translate(1093 437)" fill="#fff" stroke="#707070" stroke-width="1">
      <circle cx="4" cy="4" r="4" stroke="none"/>
      <circle cx="4" cy="4" r="3.5" fill="none"/>
    </g>
    <g id="Group_1" data-name="Group 1" transform="translate(345.433 -25.17)">
      <g id="Ellipse_2" data-name="Ellipse 2" transform="translate(679 368)" stroke="#707070" stroke-width="1">
        <circle cx="36.5" cy="36.5" r="36.5" stroke="none"/>
        <circle cx="36.5" cy="36.5" r="36" fill="none"/>
      </g>
      <g transform="matrix(1, 0, 0, 1, 629.57, 319.17)" filter="url(#Ellipse_3)">
        <g id="Ellipse_3-2" data-name="Ellipse 3" transform="translate(51.43 50.83)" fill="#fff" stroke="#707070" stroke-width="1">
          <circle cx="35" cy="35" r="35" stroke="none"/>
          <circle cx="35" cy="35" r="34.5" fill="none"/>
        </g>
      </g>
      <g transform="matrix(1, 0, 0, 1, 629.57, 319.17)" filter="url(#Rectangle_4)">
        <g id="Rectangle_4-2" data-name="Rectangle 4" transform="matrix(0.75, -0.66, 0.66, 0.75, 102.3, 117.58)" fill="#fff" stroke="#000" stroke-width="0.5">
          <rect width="13.743" height="57.764" rx="5" stroke="none"/>
          <rect x="0.25" y="0.25" width="13.243" height="57.264" rx="4.75" fill="none"/>
        </g>
      </g>
    </g>
  </g>
</svg>
