<svg xmlns="http://www.w3.org/2000/svg" width="645.777" height="483.17" viewBox="0 0 645.777 483.17">
  <g id="undraw_subscribe_vspl" transform="translate(0.373 0)">
    <path id="Path_281" data-name="Path 281" d="M890.891,387.837h-.174L790.707,434.126,653.874,497.46a4.1,4.1,0,0,1-3.38.019L509.322,433.994,406.857,387.913l-.157-.076h-.174a6.377,6.377,0,0,0-6.1,6.61V681.511a6.377,6.377,0,0,0,6.1,6.61H890.891a6.377,6.377,0,0,0,6.1-6.61V394.447A6.377,6.377,0,0,0,890.891,387.837Z" transform="translate(-251.585 -204.952)" fill="#fff"/>
    <path id="Path_282" data-name="Path 282" d="M893.406,378.936a.822.822,0,0,1-.5-.169L651.982,196.894a4.094,4.094,0,0,0-4.99.009L407.8,378.765a.829.829,0,0,1-1.214-.231,1,1,0,0,1,.213-1.316L645.991,195.356a5.732,5.732,0,0,1,6.987-.012L893.9,377.217a.988.988,0,0,1,.333,1.058.882.882,0,0,1-.832.661Z" transform="translate(-252.358 -194.163)" fill="#3f3d56"/>
    <path id="Path_283" data-name="Path 283" d="M194.121,191.684,422.374,8.319,652.361,204.731,434.135,344.958,315.657,315.685Z" transform="translate(-25.011 -0.463)" fill="#e6e6e6"/>
    <path id="Path_284" data-name="Path 284" d="M557.228,650.03H444.465a5.729,5.729,0,0,1,0-11.421H557.228a5.729,5.729,0,0,1,0,11.421Z" transform="translate(-256.58 -218.923)" fill="#6c63ff"/>
    <path id="Path_285" data-name="Path 285" d="M484.922,624.03H444.465a5.729,5.729,0,0,1,0-11.421h40.457a5.729,5.729,0,0,1,0,11.421Z" transform="translate(-256.58 -217.474)" fill="#6c63ff"/>
    <path id="Path_288" data-name="Path 288" d="M890.891,387.837h-.174L790.707,434.126,653.874,497.46a4.1,4.1,0,0,1-3.38.019L509.322,433.994,406.857,387.913l-.157-.076h-.174a6.377,6.377,0,0,0-6.1,6.61V681.511a6.377,6.377,0,0,0,6.1,6.61H890.891a6.377,6.377,0,0,0,6.1-6.61V394.447A6.377,6.377,0,0,0,890.891,387.837Zm4.356,293.674a4.552,4.552,0,0,1-4.356,4.721H406.526a4.551,4.551,0,0,1-4.356-4.721V394.447a4.577,4.577,0,0,1,4.19-4.721l102.962,46.308,140.5,63.192a5.761,5.761,0,0,0,4.739-.028l136.145-63.022,100.358-46.45a4.583,4.583,0,0,1,4.181,4.721Z" transform="translate(-251.585 -204.952)" fill="#3f3d56"/>
    <g id="Group_27" data-name="Group 27">
      <path id="Path_286" data-name="Path 286" d="M668.2,488.973a6.146,6.146,0,0,1-2.5-.531L524.929,425.129V226.947a6.377,6.377,0,0,1,6.1-6.61h270.06a6.377,6.377,0,0,1,6.1,6.61v198.32l-.265.123L670.775,488.412a6.193,6.193,0,0,1-2.575.562Z" transform="translate(-267.625 -195.621)" fill="#fff"/>
      <path id="Path_287" data-name="Path 287" d="M668.135,489.418a6.56,6.56,0,0,1-2.665-.565L524.429,425.417v-198.5a6.832,6.832,0,0,1,6.534-7.082h270.06a6.832,6.832,0,0,1,6.534,7.082V425.552L670.881,488.818A6.6,6.6,0,0,1,668.135,489.418ZM526.171,424.156l139.963,62.951a4.95,4.95,0,0,0,4.067-.026L805.814,424.3V226.919a5.011,5.011,0,0,0-4.791-5.194H530.963a5.011,5.011,0,0,0-4.791,5.194Z" transform="translate(-267.561 -195.593)" fill="#3f3d56"/>
      <path id="Path_289" data-name="Path 289" d="M649.029,297.9H553.2c-3.849,0-6.969-3.382-6.969-7.554s3.12-7.554,6.969-7.554h95.828c3.849,0,6.969,3.382,6.969,7.554S652.878,297.9,649.029,297.9Z" transform="translate(-270.37 -199.1)" fill="#6c63ff"/>
      <path id="Path_290" data-name="Path 290" d="M599.373,263.9H553.2c-3.849,0-6.969-3.382-6.969-7.554s3.12-7.554,6.969-7.554h46.171c3.849,0,6.969,3.382,6.969,7.554S603.222,263.9,599.373,263.9Z" transform="translate(-270.37 -197.206)" fill="#6c63ff"/>
      <path id="Path_291" data-name="Path 291" d="M746.524,377.9H600.169c-3.849,0-6.969-3.382-6.969-7.554s3.12-7.554,6.969-7.554H746.524c3.849,0,6.969,3.382,6.969,7.554S750.373,377.9,746.524,377.9Z" transform="translate(-276.422 -203.557)" fill="#ccc"/>
      <path id="Path_292" data-name="Path 292" d="M746.524,414.9H600.169c-3.849,0-6.969-3.382-6.969-7.554s3.12-7.554,6.969-7.554H746.524c3.849,0,6.969,3.382,6.969,7.554S750.373,414.9,746.524,414.9Z" transform="translate(-276.422 -205.618)" fill="#ccc"/>
    </g>
    <path id="Path_293" data-name="Path 293" d="M269.389,421.462a4.021,4.021,0,0,1-3.843-3.414l-3.17-17.129c-3.5-18.919,7.811-37.333,25.265-41.128s34.442,8.467,37.942,27.386l3.169,17.129a4.255,4.255,0,0,1-3.072,5l-55.52,12.071a3.637,3.637,0,0,1-.772.083Z" transform="translate(-233.716 -203.351)" fill="#2f2e41"/>
    <path id="Path_294" data-name="Path 294" d="M151.915,498.6h-9.959l-4.736-41.639h14.7Z" transform="translate(-17.679 -25.457)" fill="#a0616a"/>
    <path id="Path_295" data-name="Path 295" d="M132.7,497.791h19.207V510.9h-31.3c0-7.24,5.414-13.109,12.093-13.109Z" transform="translate(-15.539 -27.732)" fill="#2f2e41"/>
    <path id="Path_296" data-name="Path 296" d="M33.613,498.315l-9.171-4.21L35.06,453.76l13.534,6.214Z" transform="translate(-3.149 -25.279)" fill="#a0616a"/>
    <path id="Path_297" data-name="Path 297" d="M12.248.365,31.7.944,32.065,13.9l-31.7-.944h0C.163,5.8,5.484.163,12.248.365Z" transform="matrix(0.921, 0.39, -0.39, 0.921, 4.717, 457.864)" fill="#2f2e41"/>
    <ellipse id="Ellipse_3" data-name="Ellipse 3" cx="21.397" cy="23.193" rx="21.397" ry="23.193" transform="translate(39.779 167.433)" fill="#a0616a"/>
    <path id="Path_298" data-name="Path 298" d="M298.255,503.323l-.22-.773c-5.83-20.542-11.857-41.775-17.892-61.97l-.163-.545.371-.409c9.367-10.329,26.916-14.449,40.821-9.581,13.994,4.9,23.638,18.632,22.433,31.95a36.28,36.28,0,0,0,5.6,22.562l.558.878-.873.494a149.873,149.873,0,0,1-49.9,17.277Z" transform="translate(-236.066 -207.19)" fill="#3f3d56"/>
    <path id="Path_299" data-name="Path 299" d="M268.982,675.947a4.089,4.089,0,0,1-2.172-.635l-11.558-7.235a4.9,4.9,0,0,1-1.769-6.087l25.682-66.055,19.628-96.34,35.771-14.1.325.162c38.35,19.1,35.386,155.964,34.4,183.207a4.577,4.577,0,0,1-3.971,4.51L354.564,674.9a4.473,4.473,0,0,1-4.712-3.906L327.892,564.614a.916.916,0,0,0-.717-.82.831.831,0,0,0-.908.465L272.791,673.527a4.412,4.412,0,0,1-2.657,2.252A4.076,4.076,0,0,1,268.982,675.947Z" transform="translate(-232.599 -210.393)" fill="#2f2e41"/>
    <path id="Path_300" data-name="Path 300" d="M283.862,582.213a9.477,9.477,0,0,0,1.131-7.391,8.688,8.688,0,0,0-4.5-5.685l.585-20.224-11.252-3.383-.456,28.573a9.234,9.234,0,0,0,3.924,11.033,7.844,7.844,0,0,0,10.57-2.923Z" transform="translate(-234.631 -213.737)" fill="#a0616a"/>
    <path id="Path_301" data-name="Path 301" d="M268.5,554.937l-.66,0a4.493,4.493,0,0,1-4.289-4.35c-1.079-15.062-4.393-66.37-1.724-94.188a19.92,19.92,0,0,1,7.327-13.049,17.006,17.006,0,0,1,13.742-3.389l.687.165-.005.763c-.245,36.6-.229,72.984-.214,108.172a4.654,4.654,0,0,1-3.4,4.617,52.017,52.017,0,0,1-11.462,1.263Z" transform="translate(-233.596 -207.839)" fill="#6c63ff"/>
    <path id="Path_302" data-name="Path 302" d="M295.131,598.379c-5.959-.028-10.969-4.855-11.693-11.267l.947-84.468L268.9,460.18c-1.342-11.486,4.786-22.462,14.8-26.5L287.834,432a5.9,5.9,0,0,1,4.866.185,6.693,6.693,0,0,1,3.314,3.867l15.971,46.74,0,.068c1.107,18.6,6.106,111.189-3.86,113.951a50.923,50.923,0,0,1-12.884,1.57Z" transform="translate(-234.615 -207.388)" fill="#6c63ff"/>
    <path id="Path_303" data-name="Path 303" d="M402.492,548.3a8.612,8.612,0,0,1-4.7-5.489,9.5,9.5,0,0,1,.862-7.434l-10.78-16.519,7.663-9.549,14.921,23.56a9.385,9.385,0,0,1,2.342,11.549,7.92,7.92,0,0,1-10.3,3.882Z" transform="translate(-249.967 -211.72)" fill="#a0616a"/>
    <path id="Path_304" data-name="Path 304" d="M383.711,522.4a3.464,3.464,0,0,1-2.828-1.707l-.057-.093c-17.837-29.264-36.281-59.523-54.975-89.689l-.2-.325.257-.275a16.327,16.327,0,0,1,24.385,1.337c16.335,21.544,39.649,66.26,46.406,79.453a3.935,3.935,0,0,1-1.075,4.94,53.961,53.961,0,0,1-10.6,6.111,3.1,3.1,0,0,1-1.315.248Z" transform="translate(-241.95 -207.048)" fill="#6c63ff"/>
    <path id="Path_305" data-name="Path 305" d="M375.812,579.188c-10.684.007-48.91-79.776-56.465-95.77l-.065-.194-8.357-48.941a7.344,7.344,0,0,1,1.018-5.161,6.325,6.325,0,0,1,4.092-2.859l4.352-.853c10.506-2.087,20.955,3.938,25.229,14.548l10.92,49.752,36.513,67.245a13.409,13.409,0,0,1-4.771,16.329,53,53,0,0,1-11.809,5.8,2.159,2.159,0,0,1-.657.1Z" transform="translate(-240.039 -207.022)" fill="#6c63ff"/>
    <path id="Path_306" data-name="Path 306" d="M312.493,394.52H269.371v-5.666c.014-13.032,9.756-23.593,21.779-23.607h3.485c12.023.015,21.765,10.575,21.779,23.607v1.416a4.1,4.1,0,0,1-3.92,4.249Z" transform="translate(-234.699 -203.694)" fill="#2f2e41"/>
  </g>
</svg>
