<svg xmlns="http://www.w3.org/2000/svg" xmlns:xlink="http://www.w3.org/1999/xlink" width="1920" height="1080" viewBox="0 0 1920 1080">
  <defs>
    <linearGradient id="linear-gradient" y1="0.647" x2="1.144" y2="0.298" gradientUnits="objectBoundingBox">
       <stop offset="0" stop-color="#b8b4ef"/>
      <stop offset="1" stop-color="#c8c5f0"/>
    </linearGradient>
    <clipPath id="clip-Web_1920_1">
      <rect width="1920" height="1080"/>
    </clipPath>
  </defs>
  <g id="Web_1920_1" data-name="Web 1920 – 1" clip-path="url(#clip-Web_1920_1)">
    <rect width="1920" height="1080" fill="#fff"/>
    <path id="Path_1" data-name="Path 1" d="M0,692.512l1916.3-227.3v615.361H0Z" transform="translate(0 -0.578)" fill="url(#linear-gradient)"/>
    <g id="undraw_secure_login_pdn4" transform="translate(1519.94 353.329)">
      <path id="Path_3" data-name="Path 3" d="M551.176,625.672H403.453c-2.736,0-4.953-2.552-4.953-5.7h0a580.763,580.763,0,0,1,157.629,0h0c0,3.148-2.218,5.7-4.953,5.7Z" transform="translate(-203.5 -439.001)" fill="#2f2e41"/>
      <path id="Path_4" data-name="Path 4" d="M556.129,355.439,398.5,355.1l18.269-35.38.087-.168V241.584c0-3.981,2.8-7.207,6.262-7.207H530.637c3.459,0,6.262,3.227,6.261,7.207v78.509Z" transform="translate(-203.5 -174.134)" fill="#3f3d56"/>
      <path id="Path_5" data-name="Path 5" d="M485.652,250.957a2.212,2.212,0,0,0-2.04,2.347v71.1a2.212,2.212,0,0,0,2.04,2.347h108.68a2.212,2.212,0,0,0,2.04-2.347V253.3a2.212,2.212,0,0,0-2.04-2.347Z" transform="translate(-266.177 -185.684)" fill="#fff"/>
      <path id="Path_6" data-name="Path 6" d="M474.91,531.718a.878.878,0,0,0-.794.586l-5.629,14.085a1.138,1.138,0,0,0,.058.963.853.853,0,0,0,.736.463H587.658a.856.856,0,0,0,.744-.477,1.139,1.139,0,0,0,.038-.979l-6.119-14.085a.866.866,0,0,0-.781-.556Z" transform="translate(-254.979 -381.265)" fill="#2f2e41"/>
      <ellipse id="Ellipse_2" data-name="Ellipse 2" cx="1.311" cy="1.509" rx="1.311" ry="1.509" transform="translate(272.066 61.081)" fill="#fff"/>
      <path id="Path_7" data-name="Path 7" d="M645.313,593.619a.906.906,0,0,0-.844.744l-1.412,6.036a1.128,1.128,0,0,0,.15.874.84.84,0,0,0,.694.394h26.853a.845.845,0,0,0,.712-.423,1.134,1.134,0,0,0,.114-.913l-1.815-6.036a.893.893,0,0,0-.826-.677Z" transform="translate(-383.571 -424.386)" fill="#2f2e41"/>
      <path id="Path_8" data-name="Path 8" d="M384.436,337.135v1.341H264.306l.09-.167v-1.174Z" transform="translate(-51.037 -192.886)" fill="#2f2e41"/>
      <path id="Path_11" data-name="Path 11" d="M617.826,358H533.835a1.687,1.687,0,0,1-1.555-1.79v-23.98a1.687,1.687,0,0,1,1.555-1.79h83.992a1.687,1.687,0,0,1,1.555,1.79v23.98A1.687,1.687,0,0,1,617.826,358Zm-83.992-26.844a1.012,1.012,0,0,0-.933,1.074v23.98a1.012,1.012,0,0,0,.933,1.074h83.992a1.012,1.012,0,0,0,.933-1.074v-23.98a1.012,1.012,0,0,0-.933-1.074Z" transform="translate(-302.016 -241.054)" fill="#e6e6e6"/>
      <ellipse id="Ellipse_5" data-name="Ellipse 5" cx="6.336" cy="7.292" rx="6.336" ry="7.292" transform="translate(238.533 94.955)" fill="#e6e6e6"/>
      <path id="Path_12" data-name="Path 12" d="M640.253,356.8a1.227,1.227,0,0,0,0,2.431h49.782a1.227,1.227,0,0,0,0-2.431Z" transform="translate(-380.751 -259.419)" fill="#e6e6e6"/>
      <path id="Path_13" data-name="Path 13" d="M640.253,380.842a1.227,1.227,0,0,0,0,2.431h21.421a1.227,1.227,0,0,0,0-2.431Z" transform="translate(-380.751 -276.164)" fill="#e6e6e6"/>
    </g>
    <g id="undraw_video_game_night_8h8m" transform="translate(1744.517 899.368)">
      <path id="Path_37" data-name="Path 37" d="M137.874,40.06l-2.982,1.468q-1.289-2.5-2.785-4.885T128.918,32q-1.694-2.254-3.578-4.369t-3.95-4.075A69.218,69.218,0,0,0,98.5,9.094a71.734,71.734,0,0,0-52.225.354A69.12,69.12,0,0,0,23.305,24.513,66.738,66.738,0,0,0,8.212,47.2a65.849,65.849,0,0,0,1.055,51.31,66.958,66.958,0,0,0,16.008,22.08q2,1.837,4.149,3.51t4.413,3.173q2.268,1.5,4.653,2.821t4.872,2.457l-1.514,3.031a72.8,72.8,0,0,1-19.273-12.792A70.936,70.936,0,0,1,8.7,105.135,69.292,69.292,0,0,1,1.142,84.128a68.874,68.874,0,0,1,6.771-44.5,70.8,70.8,0,0,1,13.46-17.962A72.787,72.787,0,0,1,39.845,8.669a74.694,74.694,0,0,1,66.653.393A72.735,72.735,0,0,1,124.543,22,70.62,70.62,0,0,1,137.874,40.06Z" transform="translate(0 0)" fill="#e6e6e6"/>
      <path id="Path_38" data-name="Path 38" d="M10.5,6.66A36.861,36.861,0,0,0,.007,33.157,36.661,36.661,0,0,0,24.088,66.8a37.462,37.462,0,0,0,39.969-9.379l6.32-6.636L16.955.018Z" transform="translate(23.043 73.233)" fill="#e6e6e6"/>
      <path id="Path_39" data-name="Path 39" d="M2.335,2.536a8.2,8.2,0,0,0,.233,11.692L51.776,60.835a8.065,8.065,0,0,0,2.751,1.714,8.186,8.186,0,0,0,3.1.5,8.27,8.27,0,0,0,8.02-8.419,8.128,8.128,0,0,0-.659-3.055,8.041,8.041,0,0,0-1.849-2.65L14.152,2.311a8.344,8.344,0,0,0-2.8-1.757A8.488,8.488,0,0,0,5.069.671,8.353,8.353,0,0,0,2.335,2.536Z" transform="translate(28.781 67.152)" fill="#535461"/>
      <path id="Path_40" data-name="Path 40" d="M52.62,68.614l6.21-6.526A36.275,36.275,0,0,0,66.5,49.92,36.528,36.528,0,0,0,18.321,3.144,36.145,36.145,0,0,0,6.341,11.33L0,17.861Z" transform="translate(78.549 20.495)" fill="#e6e6e6"/>
      <path id="Path_41" data-name="Path 41" d="M2.3,2.533A8.1,8.1,0,0,0,0,8.36a8.223,8.223,0,0,0,2.523,5.767L50.9,60.731a8.024,8.024,0,0,0,11.394-.261,8.133,8.133,0,0,0-.224-11.455L13.912,2.4A8.274,8.274,0,0,0,4.983.706,8.117,8.117,0,0,0,2.3,2.533Z" transform="translate(72.363 26.337)" fill="#535461"/>
    </g>
    <g id="undraw_watch_application_uhc9" transform="translate(30.815 908.167)">
      <path id="Path_52" data-name="Path 52" d="M51.81,104.864a31.219,31.219,0,0,1-3.94-2.457A45.535,45.535,0,0,1,39.5,94.65a42.809,42.809,0,0,1-7.72-13.641,48.445,48.445,0,0,1-2.2-20.295c.724-8,1.2-13.806,1.5-18.013s.438-6.814.481-8.414A11.063,11.063,0,0,0,31.5,31.9c-.059-.195-.128.011-.128.011s.346-1.13,1.028-2.931A75.287,75.287,0,0,1,35.458,22a55.223,55.223,0,0,1,5.062-8.316,28.939,28.939,0,0,1,7.056-6.909,25.093,25.093,0,0,0-4.418-2.936A24.78,24.78,0,0,0,32.1.791,21.767,21.767,0,0,0,17.707,6.059c-4.975,4.024-10,10.76-14.572,21.555,0,0-.283,1.6-.642,4.271S1.7,38.278,1.4,42.531a130.911,130.911,0,0,0-.287,13.795A68.126,68.126,0,0,0,2.875,70.12a96.616,96.616,0,0,0,3.919,12.04c1.475,3.721,3.043,7.087,4.48,9.923s2.747,5.152,3.695,6.753,1.538,2.493,1.538,2.493.546.522,1.518,1.311a41.948,41.948,0,0,0,4.087,2.925,34.767,34.767,0,0,0,5.965,3.023,22.9,22.9,0,0,0,7.148,1.579,25.005,25.005,0,0,0,6.816-.634,25.817,25.817,0,0,0,5.236-1.84,24.351,24.351,0,0,0,3.355-1.933A13.9,13.9,0,0,0,51.81,104.864Z" transform="translate(0.532 8.807)" fill="#ccc"/>
      <path id="Path_53" data-name="Path 53" d="M94.9,51.309A36.031,36.031,0,0,1,91.817,56.8,51.08,51.08,0,0,1,81.523,68.14a49.312,49.312,0,0,1-18.844,9.5c-7.771,2.019-17.13,2.533-28.277.374A35.359,35.359,0,0,1,10.9,62.435C5.856,54.905,3.127,45.629,1.72,36.6A128.733,128.733,0,0,1,.482,12.222c.259-6.568.871-10.89.871-10.89s-.228,3.222-.181,8.285A142.674,142.674,0,0,0,2.637,28.958a85.6,85.6,0,0,0,6.15,22.3c3.187,7.064,7.693,13.3,14.065,17.365a23.426,23.426,0,0,0,5.663,2.62,23.009,23.009,0,0,0,6.062,1.021A21.134,21.134,0,0,0,40.6,71.6a18.906,18.906,0,0,0,5.543-2.441,17.19,17.19,0,0,0,3.227-2.706,16.085,16.085,0,0,0,2.615-3.789,18.471,18.471,0,0,0,1.63-5.05,26.206,26.206,0,0,0,.271-6.479Z" transform="translate(0.529 43.898)" fill="#e6e6e6"/>
      <path id="Path_54" data-name="Path 54" d="M92.74,25.786a41.976,41.976,0,0,0-4.272-5.19,60.347,60.347,0,0,0-12.8-10.277A56.274,56.274,0,0,0,54.622,2.831a64.753,64.753,0,0,0-28.668,2.7,41.815,41.815,0,0,0-14.99,10.978A40.629,40.629,0,0,0,3.681,29.1,45.743,45.743,0,0,0,1.243,39.5a32,32,0,0,0-.238,4.343C.459,54.917,2.126,63.163,5.051,68.594c2.938,5.454,7.158,8.094,11.7,7.87,4.574-.226,9.479-3.361,13.715-9.471,4.267-6.155,7.846-15.32,9.7-27.518a26.993,26.993,0,0,0,.278-5.718,21.767,21.767,0,0,0-.66-4.2,16.341,16.341,0,0,0-.9-2.586,7.889,7.889,0,0,0-.455-.881,16.35,16.35,0,0,1-.814,1.859,25.132,25.132,0,0,1-2.735,4.289,23.279,23.279,0,0,1-5.079,4.776,21.756,21.756,0,0,1-7.807,3.339,30.7,30.7,0,0,1-7.465.841,8.35,8.35,0,0,1-4.34-1.161,4.895,4.895,0,0,1-1.987-2.736,11.4,11.4,0,0,1-.36-3.9l0-.043,0-.043,0-.043,0-.043a20.781,20.781,0,0,1,.475-3.48,21.164,21.164,0,0,1,1.05-3.353,21.743,21.743,0,0,1,1.6-3.168A22.465,22.465,0,0,1,13.1,20.3a37.678,37.678,0,0,1,6.638-6.112A22.463,22.463,0,0,1,28.984,10.2a18.181,18.181,0,0,1,11.31,1.876c4.066,2.039,8.372,5.708,12.812,11.647l1.267,2.707s1.352.292,3.631.649,5.514.782,9.256,1.042a90.478,90.478,0,0,0,12.433.052A54.267,54.267,0,0,0,92.74,25.786Z" transform="translate(0)" fill="#e6e6e6"/>
      <path id="Path_55" data-name="Path 55" d="M11.827,1.346a12.97,12.97,0,0,0-4.612.986A12.116,12.116,0,0,0,3.5,4.746,10.892,10.892,0,0,0,1.048,8.227a9.972,9.972,0,0,0-.847,4.2l.942,50.42A10.558,10.558,0,0,0,2.185,67.2a11.88,11.88,0,0,0,2.686,3.6,13.215,13.215,0,0,0,3.948,2.5,13.8,13.8,0,0,0,4.829,1.017l30.22.841a17.171,17.171,0,0,0,6.107-.927,15.329,15.329,0,0,0,5-2.859A13.311,13.311,0,0,0,58.322,67,12.211,12.211,0,0,0,59.5,61.573L58.715,14.2a12.635,12.635,0,0,0-1.368-5.494,14.111,14.111,0,0,0-3.533-4.419A16.135,16.135,0,0,0,48.671,1.4a17.561,17.561,0,0,0-6.2-.934Z" transform="translate(46.194 24.449)" fill="#3f3d56"/>
      <path id="Path_56" data-name="Path 56" d="M6.363,1.152a6.984,6.984,0,0,0-2.475.523,6.521,6.521,0,0,0-2,1.29A5.838,5.838,0,0,0,.564,4.829,5.314,5.314,0,0,0,.105,7.08L1.152,64.328a5.4,5.4,0,0,0,.54,2.241,6.112,6.112,0,0,0,1.391,1.855A6.826,6.826,0,0,0,5.122,69.7a7.13,7.13,0,0,0,2.487.518l28.916.761a14.675,14.675,0,0,0,5.206-.8,13.075,13.075,0,0,0,4.253-2.435,11.322,11.322,0,0,0,2.851-3.713,10.367,10.367,0,0,0,1-4.613L49.03,10.542a9.375,9.375,0,0,0-1.017-4.079,10.493,10.493,0,0,0-2.627-3.284,12.045,12.045,0,0,0-3.832-2.154,13.16,13.16,0,0,0-4.631-.7Z" transform="translate(56.844 26.728)" fill="#6c63ff"/>
      <path id="Path_57" data-name="Path 57" d="M5.625.975a6.232,6.232,0,0,0-1.064.953,5.81,5.81,0,0,0-.785,1.13A5.464,5.464,0,0,0,3.3,4.317a5.258,5.258,0,0,0-.15,1.339L4.189,63.03a5.4,5.4,0,0,0,.542,2.245,6.119,6.119,0,0,0,1.4,1.858,6.849,6.849,0,0,0,2.049,1.283,7.172,7.172,0,0,0,2.5.518l29.043.746q.423.009.844,0t.839-.052q.418-.038.833-.1t.824-.145A13.64,13.64,0,0,1,41.512,70a14.187,14.187,0,0,1-1.62.435,14.642,14.642,0,0,1-1.675.245,14.953,14.953,0,0,1-1.709.052l-28.9-.767a7.127,7.127,0,0,1-2.486-.519,6.824,6.824,0,0,1-2.039-1.282,6.111,6.111,0,0,1-1.39-1.854,5.4,5.4,0,0,1-.539-2.24L.1,6.838A5.3,5.3,0,0,1,.5,4.751,5.759,5.759,0,0,1,1.642,2.974,6.39,6.39,0,0,1,3.4,1.661,6.9,6.9,0,0,1,5.625.975Z" transform="translate(56.545 27.255)" opacity="0.2"/>
      <path id="Ellipse_11" data-name="Ellipse 11" d="M6,.1A5.392,5.392,0,0,1,8.363.6a6.123,6.123,0,0,1,1.954,1.451A7.093,7.093,0,0,1,11.66,4.236a7.754,7.754,0,0,1,.528,2.689,7.692,7.692,0,0,1-.429,2.7A6.952,6.952,0,0,1,10.5,11.831a5.99,5.99,0,0,1-1.9,1.492,5.34,5.34,0,0,1-2.341.555,5.4,5.4,0,0,1-2.352-.527,6.141,6.141,0,0,1-1.934-1.46A7.105,7.105,0,0,1,.649,9.72a7.829,7.829,0,0,1-.1-5.34A6.966,6.966,0,0,1,1.79,2.18,6.008,6.008,0,0,1,3.669.678,5.347,5.347,0,0,1,6,.1Z" transform="translate(42.598 41.978)" fill="#6c63ff"/>
      <path id="Path_58" data-name="Path 58" d="M4.965,6.954a7.786,7.786,0,0,0-.413-2.375A7.235,7.235,0,0,0,3.5,2.572a6.427,6.427,0,0,0-1.562-1.49A5.594,5.594,0,0,0,0,.257Q.15.22.3.192T.6.144Q.749.124.9.113T1.206.1A5.4,5.4,0,0,1,3.57.6,6.127,6.127,0,0,1,5.526,2.056,7.1,7.1,0,0,1,6.87,4.238,7.754,7.754,0,0,1,7.4,6.927a7.693,7.693,0,0,1-.429,2.7,6.955,6.955,0,0,1-1.263,2.209,5.994,5.994,0,0,1-1.9,1.493,5.347,5.347,0,0,1-2.343.555q-.153,0-.3-.007t-.3-.024q-.151-.016-.3-.042t-.3-.059a5.5,5.5,0,0,0,1.9-.867,6.284,6.284,0,0,0,1.506-1.522A7.1,7.1,0,0,0,4.64,9.336,7.734,7.734,0,0,0,4.965,6.954Z" transform="translate(47.997 41.968)" opacity="0.2"/>
      <path id="Path_59" data-name="Path 59" d="M.036,1.925.3,16.216a1.812,1.812,0,0,0,.179.751,2.02,2.02,0,0,0,.463.618,2.232,2.232,0,0,0,.678.423,2.323,2.323,0,0,0,.824.164,2.243,2.243,0,0,0,.82-.139,2.046,2.046,0,0,0,.665-.4,1.843,1.843,0,0,0,.442-.606,1.742,1.742,0,0,0,.153-.748L4.261,1.937a1.8,1.8,0,0,0-.18-.752A1.992,1.992,0,0,0,3.615.57a2.2,2.2,0,0,0-.68-.415A2.307,2.307,0,0,0,2.109,0a2.253,2.253,0,0,0-.819.15A2.078,2.078,0,0,0,.627.565a1.872,1.872,0,0,0-.44.611A1.755,1.755,0,0,0,.036,1.925Z" transform="translate(47.816 64.666)" fill="#6c63ff"/>
      <path id="Path_60" data-name="Path 60" d="M1.811,16.26,1.546,1.932a1.793,1.793,0,0,0-.123-.612A1.928,1.928,0,0,0,1.1.783,2.1,2.1,0,0,0,.618.361,2.245,2.245,0,0,0,0,.09Q.075.069.149.052T.3.025Q.374.014.45.008T.6,0a2.311,2.311,0,0,1,.826.153,2.2,2.2,0,0,1,.68.415,2,2,0,0,1,.466.614,1.807,1.807,0,0,1,.181.752l.265,14.341a1.742,1.742,0,0,1-.153.748,1.847,1.847,0,0,1-.443.606,2.051,2.051,0,0,1-.665.4,2.249,2.249,0,0,1-.82.139q-.077,0-.153-.01c-.051,0-.1-.011-.152-.02s-.1-.018-.151-.03-.1-.025-.148-.04a2.118,2.118,0,0,0,.607-.26,1.937,1.937,0,0,0,.469-.414,1.794,1.794,0,0,0,.3-.531A1.74,1.74,0,0,0,1.811,16.26Z" transform="translate(49.623 64.668)" opacity="0.2"/>
      <path id="Ellipse_12" data-name="Ellipse 12" d="M2.863.062A3.11,3.11,0,0,1,3.985.3a3.067,3.067,0,0,1,.926.6,2.853,2.853,0,0,1,.634.868,2.593,2.593,0,0,1,.247,1.051,2.458,2.458,0,0,1-.206,1.04,2.525,2.525,0,0,1-.6.838,2.731,2.731,0,0,1-.9.552,2.968,2.968,0,0,1-1.114.182,3.11,3.11,0,0,1-1.12-.239,3.066,3.066,0,0,1-.921-.6A2.851,2.851,0,0,1,.3,3.722,2.592,2.592,0,0,1,.053,2.675a2.458,2.458,0,0,1,.2-1.036A2.524,2.524,0,0,1,.853.8a2.729,2.729,0,0,1,.9-.554A2.966,2.966,0,0,1,2.863.062Z" transform="translate(16.064 89.795)" fill="#fff"/>
      <path id="Path_61" data-name="Path 61" d="M2.351,2.735a2.58,2.58,0,0,0-.189-.917,2.8,2.8,0,0,0-.492-.8A3,3,0,0,0,.93.413,3.109,3.109,0,0,0,0,.054,3.046,3.046,0,0,1,.852.031a3.126,3.126,0,0,1,.816.206A3.085,3.085,0,0,1,2.4.652a2.935,2.935,0,0,1,.589.6,2.744,2.744,0,0,1,.38.731,2.572,2.572,0,0,1,.137.777,2.465,2.465,0,0,1-.459,1.484,2.583,2.583,0,0,1-.565.575,2.769,2.769,0,0,1-.712.38,2.954,2.954,0,0,1-.808.167A3.085,3.085,0,0,1,.1,5.306a2.856,2.856,0,0,0,.915-.315,2.647,2.647,0,0,0,.716-.574A2.493,2.493,0,0,0,2.2,3.644,2.464,2.464,0,0,0,2.351,2.735Z" transform="translate(18.353 89.845)" opacity="0.3"/>
      <path id="Ellipse_13" data-name="Ellipse 13" d="M2.858.037a3.084,3.084,0,0,1,1.12.225A3.026,3.026,0,0,1,4.9.85a2.818,2.818,0,0,1,.633.862,2.582,2.582,0,0,1,.247,1.049A2.473,2.473,0,0,1,5.576,3.8a2.555,2.555,0,0,1-.6.843,2.756,2.756,0,0,1-.9.56A2.97,2.97,0,0,1,2.964,5.4a3.084,3.084,0,0,1-1.118-.23A3.025,3.025,0,0,1,.926,4.58,2.817,2.817,0,0,1,.3,3.719,2.581,2.581,0,0,1,.053,2.675a2.474,2.474,0,0,1,.2-1.038A2.554,2.554,0,0,1,.851.795a2.754,2.754,0,0,1,.9-.562A2.968,2.968,0,0,1,2.858.037Z" transform="translate(14.566 79.157)" fill="#fff"/>
      <path id="Path_62" data-name="Path 62" d="M2.346,2.715A2.572,2.572,0,0,0,2.158,1.8a2.767,2.767,0,0,0-.492-.791,2.963,2.963,0,0,0-.738-.6A3.075,3.075,0,0,0,0,.054,3.045,3.045,0,0,1,.851.024a3.1,3.1,0,0,1,.814.2,3.045,3.045,0,0,1,.727.408,2.9,2.9,0,0,1,.588.6,2.719,2.719,0,0,1,.38.727,2.563,2.563,0,0,1,.137.776A2.485,2.485,0,0,1,3.038,4.22a2.611,2.611,0,0,1-.564.58,2.786,2.786,0,0,1-.711.386,2.956,2.956,0,0,1-.807.174A3.065,3.065,0,0,1,.105,5.3a2.873,2.873,0,0,0,.914-.323,2.676,2.676,0,0,0,.714-.58,2.523,2.523,0,0,0,.461-.776A2.479,2.479,0,0,0,2.346,2.715Z" transform="translate(16.851 79.186)" opacity="0.3"/>
      <path id="Ellipse_14" data-name="Ellipse 14" d="M2.874.076A3.036,3.036,0,0,1,4,.259a2.889,2.889,0,0,1,.929.555,2.683,2.683,0,0,1,.637.843,2.547,2.547,0,0,1,.041,2.1,2.717,2.717,0,0,1-.6.873,2.923,2.923,0,0,1-.907.6,3.074,3.074,0,0,1-2.243.05,2.887,2.887,0,0,1-.925-.557A2.682,2.682,0,0,1,.3,3.884,2.547,2.547,0,0,1,.258,1.789a2.716,2.716,0,0,1,.6-.871,2.921,2.921,0,0,1,.9-.6A3.05,3.05,0,0,1,2.874.076Z" transform="translate(16.601 30.07)" fill="#fff"/>
      <path id="Path_63" data-name="Path 63" d="M2.36,2.731a2.532,2.532,0,0,0-.19-.914,2.644,2.644,0,0,0-.494-.777A2.816,2.816,0,0,0,.934.462,2.976,2.976,0,0,0,0,.145,3.073,3.073,0,0,1,.856.081a3.035,3.035,0,0,1,.819.168,2.914,2.914,0,0,1,.731.383A2.751,2.751,0,0,1,3,1.21a2.607,2.607,0,0,1,.382.717,2.534,2.534,0,0,1,.138.776,2.546,2.546,0,0,1-.107.782,2.637,2.637,0,0,1-.353.735,2.79,2.79,0,0,1-.568.606,2.948,2.948,0,0,1-.715.417,3.066,3.066,0,0,1-1.667.184,3,3,0,0,0,.919-.361,2.851,2.851,0,0,0,.718-.613,2.675,2.675,0,0,0,.463-.8A2.545,2.545,0,0,0,2.36,2.731Z" transform="translate(18.9 30.07)" opacity="0.3"/>
      <path id="Ellipse_15" data-name="Ellipse 15" d="M6.32.029A5.844,5.844,0,0,1,8.806.574a6.528,6.528,0,0,1,2.055,1.511,7.336,7.336,0,0,1,1.41,2.252A7.807,7.807,0,0,1,12.822,7.1a7.658,7.658,0,0,1-.456,2.761,6.991,6.991,0,0,1-1.333,2.248,6.2,6.2,0,0,1-2,1.506,5.714,5.714,0,0,1-2.466.54,5.854,5.854,0,0,1-2.476-.569,6.544,6.544,0,0,1-2.034-1.52A7.346,7.346,0,0,1,.666,9.826,7.808,7.808,0,0,1,.124,7.088,7.661,7.661,0,0,1,.57,4.351a7,7,0,0,1,1.311-2.24A6.213,6.213,0,0,1,3.862.594,5.718,5.718,0,0,1,6.32.029Z" transform="translate(76.246 56.982)" fill="#fff" opacity="0.2"/>
      <path id="Ellipse_16" data-name="Ellipse 16" d="M11.761.11a10.913,10.913,0,0,1,4.654,1,12.185,12.185,0,0,1,3.858,2.817,13.7,13.7,0,0,1,2.653,4.217,14.586,14.586,0,0,1,1.036,5.182A14.306,14.306,0,0,1,23.1,18.5a13.053,13.053,0,0,1-2.508,4.207,11.571,11.571,0,0,1-3.759,2.806,10.674,10.674,0,0,1-4.615.989A10.948,10.948,0,0,1,7.6,25.423a12.241,12.241,0,0,1-3.782-2.846A13.734,13.734,0,0,1,1.239,18.4,14.591,14.591,0,0,1,.233,13.3a14.319,14.319,0,0,1,.826-5.095A13.1,13.1,0,0,1,3.491,4.031,11.623,11.623,0,0,1,7.176,1.187,10.689,10.689,0,0,1,11.761.11Z" transform="translate(70.698 50.761)" fill="#fff" opacity="0.2"/>
      <path id="Ellipse_17" data-name="Ellipse 17" d="M17.642.259a16.431,16.431,0,0,1,7.025,1.473,18.338,18.338,0,0,1,5.843,4.232,20.629,20.629,0,0,1,4.025,6.367,21.973,21.973,0,0,1,1.573,7.842A21.549,21.549,0,0,1,34.8,28.009a19.65,19.65,0,0,1-3.809,6.35A17.415,17.415,0,0,1,25.3,38.571a16.078,16.078,0,0,1-6.964,1.457,16.511,16.511,0,0,1-6.945-1.663,18.466,18.466,0,0,1-5.67-4.3,20.706,20.706,0,0,1-3.858-6.281A21.985,21.985,0,0,1,.353,20.142,21.577,21.577,0,0,1,1.585,12.5,19.75,19.75,0,0,1,5.221,6.214a17.532,17.532,0,0,1,5.525-4.3A16.113,16.113,0,0,1,17.642.259Z" transform="translate(64.701 43.918)" fill="#fff" opacity="0.2"/>
    </g>
    <g id="undraw_Mobile_app_re_catg" transform="translate(0 559.758)">
      <path id="Path_14" data-name="Path 14" d="M7.428,10.2,1.2,9.557a1.209,1.209,0,0,1-.468-.152,1.4,1.4,0,0,1-.383-.32A1.519,1.519,0,0,1,.1,8.642a1.487,1.487,0,0,1-.1-.52V1.31a1.325,1.325,0,0,1,.1-.5A1.141,1.141,0,0,1,.353.423,1.037,1.037,0,0,1,.736.185,1.061,1.061,0,0,1,1.2.134L7.428.827a1.2,1.2,0,0,1,.463.154,1.4,1.4,0,0,1,.378.321,1.522,1.522,0,0,1,.255.441,1.489,1.489,0,0,1,.094.516V9.022a1.328,1.328,0,0,1-.094.5,1.145,1.145,0,0,1-.255.387,1.034,1.034,0,0,1-.378.24A1.046,1.046,0,0,1,7.428,10.2ZM1.2.658A.636.636,0,0,0,.923.688.622.622,0,0,0,.694.831a.686.686,0,0,0-.155.233.8.8,0,0,0-.057.3V8.173a.892.892,0,0,0,.057.312.912.912,0,0,0,.155.266.842.842,0,0,0,.23.192.725.725,0,0,0,.281.091l6.224.646a.628.628,0,0,0,.278-.033A.621.621,0,0,0,7.933,9.5a.688.688,0,0,0,.153-.232.8.8,0,0,0,.056-.3V2.207a.891.891,0,0,0-.056-.31.915.915,0,0,0-.153-.265.841.841,0,0,0-.227-.192.718.718,0,0,0-.278-.092Z" transform="translate(129.537 51.965)" fill="#e6e6e6"/>
      <path id="Path_15" data-name="Path 15" d="M8.439,11.218l-7.07-.974a1.49,1.49,0,0,1-.532-.183A1.67,1.67,0,0,1,.4,9.7a1.687,1.687,0,0,1-.294-.484A1.532,1.532,0,0,1,0,8.659V1.4A1.3,1.3,0,0,1,.108.869,1.146,1.146,0,0,1,.4.468,1.132,1.132,0,0,1,.837.232,1.267,1.267,0,0,1,1.369.2L8.439,1.23a1.475,1.475,0,0,1,.526.186,1.665,1.665,0,0,1,.429.36,1.69,1.69,0,0,1,.289.482,1.535,1.535,0,0,1,.106.555v7.206a1.308,1.308,0,0,1-.106.524,1.15,1.15,0,0,1-.289.4,1.126,1.126,0,0,1-.429.238A1.247,1.247,0,0,1,8.439,11.218ZM1.369.758a.761.761,0,0,0-.319.02A.679.679,0,0,0,.789.919a.688.688,0,0,0-.176.241.782.782,0,0,0-.065.317V8.735a.919.919,0,0,0,.065.335,1.013,1.013,0,0,0,.176.29,1,1,0,0,0,.261.216.894.894,0,0,0,.319.11l7.07.977a.748.748,0,0,0,.316-.022.675.675,0,0,0,.258-.143.69.69,0,0,0,.174-.24.785.785,0,0,0,.064-.315V2.735A.921.921,0,0,0,9.186,2.4a1.014,1.014,0,0,0-.174-.29A1,1,0,0,0,8.754,1.9a.885.885,0,0,0-.316-.111Z" transform="translate(51.644)" fill="#e6e6e6"/>
      <path id="Path_16" data-name="Path 16" d="M7.477,10.257,1.212,9.592a1.223,1.223,0,0,1-.471-.154,1.416,1.416,0,0,1-.385-.323A1.528,1.528,0,0,1,.1,8.67,1.491,1.491,0,0,1,0,8.149V1.314a1.323,1.323,0,0,1,.1-.5A1.139,1.139,0,0,1,.356.426,1.04,1.04,0,0,1,.741.188a1.07,1.07,0,0,1,.471-.05L7.477.854a1.212,1.212,0,0,1,.466.156,1.415,1.415,0,0,1,.38.323,1.534,1.534,0,0,1,.256.444,1.493,1.493,0,0,1,.094.518V9.08a1.325,1.325,0,0,1-.094.5,1.145,1.145,0,0,1-.256.387,1.037,1.037,0,0,1-.38.239A1.055,1.055,0,0,1,7.477,10.257ZM1.212.664A.642.642,0,0,0,.93.694.624.624,0,0,0,.7.836a.685.685,0,0,0-.156.233.793.793,0,0,0-.057.3V8.2a.894.894,0,0,0,.057.313A.919.919,0,0,0,.7,8.781a.85.85,0,0,0,.231.194.733.733,0,0,0,.283.092l6.264.668a.633.633,0,0,0,.28-.032.621.621,0,0,0,.228-.144.686.686,0,0,0,.154-.232.793.793,0,0,0,.057-.3V2.241a.893.893,0,0,0-.057-.311.919.919,0,0,0-.154-.266.847.847,0,0,0-.228-.194.726.726,0,0,0-.28-.094Z" transform="translate(125.666 48.117)" fill="#e6e6e6"/>
      <path id="Path_17" data-name="Path 17" d="M9.079,10.957l-7.606-.441A1.547,1.547,0,0,1,.9,10.369a1.6,1.6,0,0,1-.468-.338,1.573,1.573,0,0,1-.316-.479A1.474,1.474,0,0,1,0,8.982V1.449A1.37,1.37,0,0,1,.116.893,1.325,1.325,0,0,1,.432.453,1.355,1.355,0,0,1,.9.174,1.444,1.444,0,0,1,1.473.1L9.079.6a1.528,1.528,0,0,1,.565.151,1.6,1.6,0,0,1,.461.339,1.575,1.575,0,0,1,.311.477,1.477,1.477,0,0,1,.114.567V9.6a1.374,1.374,0,0,1-.114.552,1.329,1.329,0,0,1-.311.439,1.347,1.347,0,0,1-.461.281A1.423,1.423,0,0,1,9.079,10.957ZM1.473.676a.866.866,0,0,0-.344.046A.812.812,0,0,0,.849.89a.8.8,0,0,0-.189.264.822.822,0,0,0-.07.333v7.53a.885.885,0,0,0,.07.342.944.944,0,0,0,.189.287.962.962,0,0,0,.281.2.928.928,0,0,0,.344.089l7.606.444a.853.853,0,0,0,.339-.048.809.809,0,0,0,.277-.169A.8.8,0,0,0,9.882,9.9.825.825,0,0,0,9.95,9.57V2.094a.887.887,0,0,0-.069-.34.945.945,0,0,0-.187-.286.957.957,0,0,0-.277-.2.917.917,0,0,0-.339-.09Z" transform="translate(4.736 97.184)" fill="#e6e6e6"/>
      <path id="Path_18" data-name="Path 18" d="M9.144,11.025l-7.661-.466a1.567,1.567,0,0,1-.577-.15,1.621,1.621,0,0,1-.471-.34,1.584,1.584,0,0,1-.318-.481A1.477,1.477,0,0,1,0,9.015V1.454A1.368,1.368,0,0,1,.117.9,1.323,1.323,0,0,1,.435.456,1.36,1.36,0,0,1,.907.177,1.456,1.456,0,0,1,1.484.1L9.144.63a1.548,1.548,0,0,1,.57.153,1.616,1.616,0,0,1,.465.341,1.587,1.587,0,0,1,.313.48,1.48,1.48,0,0,1,.115.569v7.5a1.372,1.372,0,0,1-.115.554,1.328,1.328,0,0,1-.313.439,1.352,1.352,0,0,1-.465.281A1.435,1.435,0,0,1,9.144,11.025ZM1.484.683a.874.874,0,0,0-.346.045A.816.816,0,0,0,.855.9a.794.794,0,0,0-.191.264.821.821,0,0,0-.07.335V9.052a.887.887,0,0,0,.07.344.951.951,0,0,0,.191.289.972.972,0,0,0,.283.2.94.94,0,0,0,.346.09l7.661.469a.861.861,0,0,0,.342-.047.812.812,0,0,0,.279-.168.8.8,0,0,0,.188-.264.824.824,0,0,0,.069-.333v-7.5a.889.889,0,0,0-.069-.342A.953.953,0,0,0,9.765,1.5a.968.968,0,0,0-.279-.2.929.929,0,0,0-.342-.092Z" transform="translate(0 93.091)" fill="#e6e6e6"/>
      <path id="Path_19" data-name="Path 19" d="M9.113,1.155,74.2,9.4a13.577,13.577,0,0,1,4.386,1.351,15.2,15.2,0,0,1,3.76,2.689A16.13,16.13,0,0,1,85.2,17.173a15.941,15.941,0,0,1,1.675,4.5l29.81,144.211a11.745,11.745,0,0,1,.016,4.664,11.555,11.555,0,0,1-.678,2.218,11.154,11.154,0,0,1-1.115,2.035,10.644,10.644,0,0,1-1.5,1.73,10.124,10.124,0,0,1-1.785,1.33,9.672,9.672,0,0,1-2.008.888,9.378,9.378,0,0,1-2.165.4l-63.3,4.22a14.327,14.327,0,0,1-5.331-.649,14.56,14.56,0,0,1-4.631-2.483,14.943,14.943,0,0,1-3.5-4,15.294,15.294,0,0,1-1.938-5.192L9.411,62.6l-1.463.3L4.17,41.943l1.515-.234L.145,10.659a9.183,9.183,0,0,1-.137-2,8.495,8.495,0,0,1,.3-1.911A7.928,7.928,0,0,1,1.024,5,7.534,7.534,0,0,1,3.586,2.289a7.744,7.744,0,0,1,1.69-.8,8.219,8.219,0,0,1,1.864-.385,8.863,8.863,0,0,1,1.972.048Z" transform="translate(17.779 19.744)" fill="#3f3d56"/>
      <path id="Path_20" data-name="Path 20" d="M59.182,7.342l7.265.9a9.4,9.4,0,0,1,3.055.936,10.535,10.535,0,0,1,2.62,1.874,11.173,11.173,0,0,1,1.987,2.609,11.022,11.022,0,0,1,1.155,3.146l28.868,143.637a6.223,6.223,0,0,1,0,2.451,6.113,6.113,0,0,1-.357,1.164,5.9,5.9,0,0,1-.585,1.068,5.633,5.633,0,0,1-.783.909,5.366,5.366,0,0,1-.933.7,5.132,5.132,0,0,1-1.05.472,4.981,4.981,0,0,1-1.132.222l-63.228,4.92a7.456,7.456,0,0,1-2.807-.316,7.571,7.571,0,0,1-2.436-1.289,7.765,7.765,0,0,1-1.839-2.091,7.944,7.944,0,0,1-1.013-2.717L.113,8.359A7.241,7.241,0,0,1,.006,6.795,6.705,6.705,0,0,1,.237,5.3,6.259,6.259,0,0,1,.791,3.934a5.973,5.973,0,0,1,.861-1.19,5.9,5.9,0,0,1,1.121-.938,6.056,6.056,0,0,1,1.31-.635A6.4,6.4,0,0,1,5.532.856a6.89,6.89,0,0,1,1.535.02l7.492.929a3.514,3.514,0,0,1,1.065.311,3.838,3.838,0,0,1,.926.617,3.946,3.946,0,0,1,.72.861,3.79,3.79,0,0,1,.447,1.044h0a3.342,3.342,0,0,0,.394.921,3.468,3.468,0,0,0,.634.758,3.355,3.355,0,0,0,.814.541,3.058,3.058,0,0,0,.933.27l34.084,4.1a4.242,4.242,0,0,0,1.717-.136,3.932,3.932,0,0,0,1.427-.769,4.05,4.05,0,0,0,1.007-1.289,4.545,4.545,0,0,0,.457-1.7Z" transform="translate(24.606 23.926)" fill="#fff"/>
      <path id="Path_21" data-name="Path 21" d="M0,0,71.583,7.433,78.739,42.4,7.049,38.42Z" transform="translate(30.181 50.454)" fill="#6c63ff"/>
      <path id="Path_22" data-name="Path 22" d="M0,0,15.79.786l.495,3.223L.508,3.266Z" transform="translate(98.35 122.925)" fill="#6c63ff"/>
      <path id="Rectangle_1" data-name="Rectangle 1" d="M0,0,70.315,2.692l.009.511L.01.541Z" transform="translate(40.912 104.335)" fill="#2f2e41"/>
      <path id="Rectangle_2" data-name="Rectangle 2" d="M0,0,71.466,1.98l.01.53L.011.562Z" transform="translate(41.787 115.002)" fill="#2f2e41"/>
      <path id="Path_23" data-name="Path 23" d="M0,0,15.62.329l.489,3.192L.5,3.234Z" transform="translate(104.92 157.757)" fill="#6c63ff"/>
      <path id="Rectangle_3" data-name="Rectangle 3" d="M0,0,69.539.658l.009.508L.01.538Z" transform="translate(48.118 140.917)" fill="#2f2e41"/>
      <path id="Rectangle_4" data-name="Rectangle 4" d="M0,.079,70.679,0l.01.527L.011.637Z" transform="translate(48.983 151.419)" fill="#2f2e41"/>
    </g>
  </g>
</svg>
